<svg xmlns="http://www.w3.org/2000/svg" xmlns:xlink="http://www.w3.org/1999/xlink" width="587.582" height="390.252" viewBox="0 0 587.582 390.252">
  <defs>
    <clipPath id="clip-path">
      <path d="M530.431,946.972c-73.214,6.469-148.171,11.182-214.364-23.71-87.712-46.236-91.18-112.539-79.838-134.954,16.667-32.941,43.834-32.285,69.951-35.172,29.437-3.254,66.651,14.167,95.8,13.386,13.095-.351,23.258-7.93,35.043-11.8,13.452-4.418,29.506-4.019,43.528-5.495,30.626-3.224,61.02-9.46,91.414-12.82s111-49.416,178.456-36.817c108.982,20.355,65.789,153.8,23.754,197.515-16.4,17.061-62.6,47.771-147.119,44.359C612.427,940.873,547.6,945.455,530.431,946.972Z" transform="translate(-231.581 -697.413)" fill="#fff"/>
    </clipPath>
    <clipPath id="clip-path-2">
      <path d="M1703.86,2332.824c2.3-15.7.518-33.478-.523-49.287-1.831-27.812-4.136-53.929-1.305-81.836,2.9-28.6,9.491-40.531,14.254-76.083,0,0,35.639-2.947,39.5-1.695,10.451,3.389,15.938,6.513,23.85,13.788,10.541,9.692,17.832,23.561,21.839,36.9,4.831,16.078,16.23,18.374,31.411,23.8,21.8,7.79,17.543,28.64,33.71,41.445,16.252,12.871,35.674,11.083,53.136,2.709.289,13.972-.965,30.813-9.808,42.59,4.378-5.83-1.518-15.685-7.776-15.323-12.473,12.387-35.292,31.147-51.207,39.086-21.082,10.517-46.315,7.307-68.847,11.982-10.954,2.273-21.94,3.894-32.521,7.712C1729.718,2335.77,1703.86,2332.824,1703.86,2332.824Z" transform="translate(-1700.705 -2123.613)" fill="blue"/>
    </clipPath>
  </defs>
  <g transform="translate(0 75.129)">
    <path d="M530.431,946.972c-73.214,6.469-148.171,11.182-214.364-23.71-87.712-46.236-91.18-112.539-79.838-134.954,16.667-32.941,43.834-32.285,69.951-35.172,29.437-3.254,66.651,14.167,95.8,13.386,13.095-.351,23.258-7.93,35.043-11.8,13.452-4.418,29.506-4.019,43.528-5.495,30.626-3.224,61.02-9.46,91.414-12.82s111-49.416,178.456-36.817c108.982,20.355,65.789,153.8,23.754,197.515-16.4,17.061-62.6,47.771-147.119,44.359C612.427,940.873,547.6,945.455,530.431,946.972Z" transform="translate(-231.581 -697.413)" fill="#b6ffe8"/>
    <g transform="translate(0 0)" clip-path="url(#clip-path)">
      <path d="M2093.325,740.01a37.675,37.675,0,0,1-6.856,14.227c-5.607,7.027-12.37,7.154-20.932,7.507-13.344.55-26.449-1.285-39.774-2.131-12.159-.772-24.414-1.54-36.484.116-8.879,1.219-17.559,3.739-26.479,4.614-9.479.93-19.028-.015-28.523-.763a691.249,691.249,0,0,0-79.615-1.672c-25.177.922-50.773,1.843-75.791,4.85-35.878,4.313-71.651,9.576-107.084,16.39q-7.128,1.371-14.236,2.826c-2.385.489-10.791,3.487-12.826,2.705-2.806-1.077-2.158-5.243-2.433-8.062l-1.865-19.076c-.01-.108,60.937-6.626,64.368-7L1807.258,743.4c16.916-1.839,34.548-1.848,51.11-4.755,14.329-2.515,27.271-4.446,41.956-4.031,16.555.468,32.812,3.461,49.411,3.381,8.633-.042,17.453-.669,25.411-4.015,8.536-3.59,15.5-10.055,23.431-14.836,16.85-10.158,37.464-7.021,56.092-13.637,4.461-1.584,8.936-3.458,12.459-6.62s5.979-7.848,5.39-12.544c-.947-7.544-9.209-10.947-15.711-12.41-8.864-2-17.884-4.229-26.9-6.242-20.932-4.672-42.566-5.653-63.934-4.5-29.306,1.587-58.234,7.123-87.1,12.413-62.776,11.5-125.89,21.922-189.588,25.9-7.033.439-14.342.757-20.86-1.921,2.624-2.083,6.009-2.89,9.275-3.637q168.672-38.568,340.234-62.594c8.772-1.228,17.786-2.418,26.41-.4,12.905,3.027,22.069,16.324,28.777,26.992,8.762,13.936,14.544,29.7,18.512,45.613,2.363,9.48,3.979,19.32,2.731,29.01A45.69,45.69,0,0,1,2093.325,740.01Z" transform="translate(-1455.531 -640.474)" fill="#b6ffe8"/>
      <path d="M3610.543,1648.927c12.668-.31,22.531-6.085,27.879-14.869s7.839-16.78,16.135-22.857a26.159,26.159,0,0,1,24-3.4c-4.428-13.562.88-29.707,12.492-38,6.524-4.657,15.29-6.846,22.723-3.845,9.388,3.79,14.151,14.839,13.742,24.955s-4.894,19.561-9.293,28.679c4.151-3.9,8.8-8.024,14.491-8.336s11.707,5.689,9.117,10.761a44.643,44.643,0,0,1,16.207-9.468c3.761-1.23,7.866-1.948,11.656-.813s7.111,4.544,7.082,8.5c-.025,3.4-2.352,6.3-3.536,9.484-1.24,3.342-1.13,7.328.94,10.23s6.3,4.286,9.43,2.576" transform="translate(-3272.091 -1509.772)" fill="#fff"/>
      <path d="M3659.2,849.3a232.043,232.043,0,0,1,24.535-14.513c7.04-3.6,16-6.711,22.376-2.03a69.9,69.9,0,0,1,26.841-20.478c5.136-2.212,11.148-3.769,16.2-1.375,8.165,3.867,8.912,15,8.477,24.019a181.73,181.73,0,0,1,18.525-9.43c4.187-1.838,10.44-2.752,12.118,1.5,1.035,2.623-.575,5.825.723,8.329,1.335,2.573,4.827,2.883,7.725,2.858l21.46-.192" transform="translate(-3281.357 -646.967)" fill="#fff"/>
      <path d="M3659.2,849.3a232.043,232.043,0,0,1,24.535-14.513c7.04-3.6,16-6.711,22.376-2.03a69.9,69.9,0,0,1,26.841-20.478c5.136-2.212,11.148-3.769,16.2-1.375,8.165,3.867,8.912,15,8.477,24.019a181.73,181.73,0,0,1,18.525-9.43c4.187-1.838,10.44-2.752,12.118,1.5,1.035,2.623-.575,5.825.723,8.329,1.335,2.573,4.827,2.883,7.725,2.858l21.46-.192" transform="translate(-3247.357 -805.967)" fill="#fff"/>
    </g>
  </g>
  <path d="M232.7,690.974c-8.3,22.342-.121,64.421,10.561,84.979s27.182,34.805,44.231,45.959c33.511,21.923,70.369,33.779,107.267,42.6a737.841,737.841,0,0,0,107.788,17.5c29.568,2.565,41.721,1.929,70.843-5.2,58.97-14.436,81.365-120.909,68.663-192.791-9.694-54.858-49.175-94.361-92.594-95.148-45.216-.82-64.339,24.256-106.832,44.359-25.86,12.234-44.53,20.736-79.468,24.279C342.241,659.63,266.328,600.419,232.7,690.974Z" transform="translate(-170.6 -529.969)" fill="#b6ffe8" style="mix-blend-mode: multiply;isolation: isolate"/>
  <path d="M1963.905,482.337l.575.575" transform="translate(-1736.557 -435.436)" fill="#f15a24"/>
  <g transform="translate(131.159)">
    <path d="M1740.576,1966.63c1.709-8.3,1.3-16.884,1.807-25.331.136-2.275.27-6.4,2.723-7.528,8.574-3.959,14.39,15.59,14.538,20.578.356,12.071-5.031,17.944-11.37,26.49" transform="translate(-1682.936 -1785.401)" fill="#fff"/>
    <path d="M1652.351,1680.8c-4.636-.005-8.667,3.452-11.086,7.471s-3.636,8.648-5.49,12.967c-2.413,5.62-6.214,10.44-9.343,15.611a1.795,1.795,0,0,0,.329,2.637,62.674,62.674,0,0,0,21.478,15.971" transform="translate(-1587.978 -1576.178)" fill="#e6360c"/>
    <path d="M1647.731,2085.424c-.135,10.347-6.555,19.962-10.238,29.579-3.343,8.727-4.974,17.654-6.229,26.743-.93,6.739-3.436,13.028-3.808,19.457,2.836.542,5.776.987,8.628,1.807,2.389-15.8,16.484-30.118,21.5-45.508C1662.611,2102.051,1657.942,2092.515,1647.731,2085.424Z" transform="translate(-1589.185 -1911.522)" fill="#fff"/>
    <g>
      <g transform="translate(52.048 5.153)">
        <path d="M1982.2,1144.605c-.007-2.959.912-5.588,1.325-8.469.27-1.881-.192-3.744-.062-5.636.427-6.227-.892-11.239-3.175-17.044-1.453-3.694-5.906-9.927-.761-12.89,3.649-2.1,11.027,1.182,14.036,3.215,6.134,4.145,7.428,12.508,7.884,19.9.267,4.327.84,8.794.811,13.112-.031,4.564-1,8.951-.521,13.56.488,4.682,2.088,9.387,5.319,12.811,1.82,1.929,4.08,3.38,6.081,5.122,7.774,6.766,6.175,20.484,1.514,28.643-3.571,6.251-10.7,11.866-18.344,10.616-5.94-.972-13.791-8.405-14.2-14.7-.149-2.311.667-4.673.583-7.046-.138-3.9-.938-7.743-.924-11.648.024-6.785-.412-13.7.333-20.438A81.922,81.922,0,0,0,1982.2,1144.605Z" transform="translate(-1931.015 -1099.891)" fill="#f79223"/>
        <g transform="translate(0 1.511)">
          <path d="M1849.222,1129.958a81.524,81.524,0,0,1,4.68-16.18c1.755-4.4,6.425-5.379,10.929-4.98,9.56.846,18.084,7.6,22.143,16.3,4.745,10.167,3.091,20.7,0,31.026a23.3,23.3,0,0,1-4.045,8.5c-2.035,2.418-5.183,4.112-8.309,3.649-.792-.117-1.687-.344-2.33.135a2.411,2.411,0,0,0-.746,1.484c-1.213,5.521.368,9.493,1.964,14.545,1.49,4.72,3.525,9.134,8,11.743-1.171-.681-27.321,41.314-30.352,44.9a224.9,224.9,0,0,1-6.675-25.572c-1.088-5.054-2.49-11.266-.037-16.021,2.814-5.454,6.947-9.377,8.051-15.745a41.552,41.552,0,0,0,.166-9.58c-.52-8.688-.529-17.638-1.5-26.236C1850.5,1142.163,1848.137,1135.807,1849.222,1129.958Z" transform="translate(-1819.939 -1108.715)" fill="#fff"/>
          <path d="M1722.85,1684.782c-1.759-4.84.541-12.007-.441-17.541-1.189-6.7-6.212-11.641-9.6-17.682-2.188-3.9-4.688-8.509-4.878-13.111-.282-6.817,2.671-13.1,4.459-19.461,1.776-6.315,1.778-11.416,4.795-17.244a15.467,15.467,0,0,1,4.635-4.665c1.1-.763,17.852-12.111,18.016-11.69,2.49,6.37-1.45,12.8-2.148,19.1a74.921,74.921,0,0,0-.371,11.812c.163,3.42,1.73,6.657,1.2,10.115,1.855-3.715,5.627-7.25,8.907-9.779,2.594-2,5.852-4.6,4.969-7.752-.23-.822-.739-1.552-.919-2.386-.407-1.89.96-3.707,2.473-4.911s3.3-2.167,4.326-3.807c1.969-3.158,1.42-7.549,3.86-10.415,2.338-2.746,7.422-3.552,10.887-3.771a1.434,1.434,0,0,1,1.075.23,1.414,1.414,0,0,1,.354.763,17.6,17.6,0,0,1,.4,5.057,3.485,3.485,0,0,0,.263,2.125,3,3,0,0,0,1.127.917c6.405,3.587,14.871,4.715,18.111,12.08,3.058,6.95,1.858,16.8-.819,23.694-4.063,10.466-7.985,17.37-17.544,22.969-9.854,5.772-16.234,29.62-14.489,31.528" transform="translate(-1707.913 -1500.613)" fill="#1b1464"/>
        </g>
      </g>
      <path d="M1518.16,1071.371c5.479,1.712,16.78,8.219,8.4,30.817a3.106,3.106,0,0,1-.485,1.174,2.286,2.286,0,0,1-1.332.518,100,100,0,0,1-16.25,1.181,1.667,1.667,0,0,1-1.052-.25c-.977-.787.575-2.562-.185-3.562-4.094,3.06-8.819,6.287-13.863,5.459l1.391-7.538c.173-.938.322-2.046-.429-2.723-2.244-2.021-4.535,14.3-4.583,14.813a118.448,118.448,0,0,0-.223,19.649c.727,10.121,2.722,20.557-.372,30.221-4.646,14.511-20.644,23.611-35.857,22.769s-29.082-10.207-38.075-22.506l11.384-4.615c-5.179.19-10.547-.53-15-3.183-3.727-2.22-7.714-6.808-7.682-11.437.04-5.763,6.06-3.772,10.16-3.482,17.044,1.208,34.247-2.692,45.16-17.083a85.171,85.171,0,0,0,7.922-12.6,26.973,26.973,0,0,1,3.82-6.228c1.077-1.165,2.45-2.2,2.854-3.736a8.293,8.293,0,0,0,.043-2.7c-.577-8.076,3.943-16.028,10.562-20.692a33.167,33.167,0,0,1,15.588-5.594C1505.16,1069.5,1513.147,1069.8,1518.16,1071.371Z" transform="translate(-1403.943 -1069.794)" fill="#f7931e"/>
    </g>
    <g transform="translate(50.813 180.441)">
      <path d="M1703.86,2332.824c2.3-15.7.518-33.478-.523-49.287-1.831-27.812-4.136-53.929-1.305-81.836,2.9-28.6,9.491-40.531,14.254-76.083,0,0,35.639-2.947,39.5-1.695,10.451,3.389,15.938,6.513,23.85,13.788,10.541,9.692,17.832,23.561,21.839,36.9,4.831,16.078,16.23,18.374,31.411,23.8,21.8,7.79,17.543,28.64,33.71,41.445,16.252,12.871,35.674,11.083,53.136,2.709.289,13.972-.965,30.813-9.808,42.59,4.378-5.83-1.518-15.685-7.776-15.323-12.473,12.387-35.292,31.147-51.207,39.086-21.082,10.517-46.315,7.307-68.847,11.982-10.954,2.273-21.94,3.894-32.521,7.712C1729.718,2335.77,1703.86,2332.824,1703.86,2332.824Z" transform="translate(-1700.705 -2123.613)" fill="blue"/>
      <g clip-path="url(#clip-path-2)">
        <path d="M2115.51,2478.9c3.218-2.722,5.391-6.918,4.731-11.036s-4.726-7.708-8.929-7.088a10.391,10.391,0,0,0-5.7,3.271,4.951,4.951,0,0,0-1.688,3.078,3.408,3.408,0,0,0,3.439,3.227,4.825,4.825,0,0,0,4.146-2.805,7.991,7.991,0,0,0,.42-5.105,7.149,7.149,0,0,0-2.6-4.475,6.322,6.322,0,0,0-6.365-.212,10.685,10.685,0,0,0-4.453,4.77c-1.963,3.8-2.305,8.671.177,12.167a12.48,12.48,0,0,0,4.176,3.546,14.167,14.167,0,0,0,9.95,1.737c3.355-.787,6.347-3.427,6.92-6.763" transform="translate(-2029.092 -2399.915)" fill="blue" stroke="#f7931e" stroke-linecap="round" stroke-miterlimit="10" stroke-width="3"/>
        <path d="M2222.284,2918.185a9.559,9.559,0,0,1,2.11,10.245c-3.014,7.918-12.177,8.3-19.007,5.527a15.056,15.056,0,0,1-5.222-3.222c-3.254-3.341-3.517-8.817-1.35-12.919s6.356-6.908,10.827-8.364c3.566-1.161,8.134-1.274,10.407,1.659a6.85,6.85,0,0,1,.459,6.952,14.756,14.756,0,0,1-4.875,5.43c-2.292,1.694-5.578,3.091-7.875,1.4a4.415,4.415,0,0,1-1.293-5.007,7.36,7.36,0,0,1,3.836-3.868A10.305,10.305,0,0,1,2222.284,2918.185Z" transform="translate(-2112.363 -2774.263)" fill="blue" stroke="#2b3378" stroke-linecap="round" stroke-miterlimit="10" stroke-width="2"/>
        <path d="M1864.165,2600.735a19.186,19.186,0,0,1,4.236,20.564c-6.051,15.894-24.443,16.664-38.152,11.094a30.225,30.225,0,0,1-10.482-6.467c-6.532-6.707-7.061-17.7-2.71-25.933s12.758-13.867,21.733-16.79c7.158-2.33,16.326-2.557,20.889,3.332,3.019,3.9,2.971,9.492.921,13.953s-5.8,7.955-9.786,10.9c-4.6,3.4-11.2,6.206-15.807,2.817-3.02-2.219-3.872-6.567-2.6-10.05s4.315-6.128,7.7-7.764A20.683,20.683,0,0,1,1864.165,2600.735Z" transform="translate(-1794.8 -2503.242)" fill="blue" stroke="#f7931e" stroke-linecap="round" stroke-miterlimit="10" stroke-width="3"/>
        <path d="M1888.24,2242.458a10.7,10.7,0,0,1-4.38,1c-4.621.112-11.272-2.3-11.011-7.672.167-3.441,3.939-6.517,7.245-5.35a3.179,3.179,0,0,1,2.218,2.384,3.491,3.491,0,0,1-.849,2.466,7.867,7.867,0,0,1-10.484,1.471,7.513,7.513,0,0,1-1.444-10.289c2.338-3.008,6.677-3.791,10.509-3.359a16.3,16.3,0,0,1,10.648,5.161C1895.01,2233.348,1893.452,2239.968,1888.24,2242.458Z" transform="translate(-1839.448 -2205.982)" fill="blue" stroke="#f7931e" stroke-linecap="round" stroke-miterlimit="10" stroke-width="3"/>
        <path d="M1732.4,2455.775a8.906,8.906,0,0,1-6.467,4.884,13.3,13.3,0,0,1-8.238-1.263,11.144,11.144,0,0,1-4.622-3.814,6.443,6.443,0,0,1-.77-5.735,6.533,6.533,0,0,1,5.386-3.816,4.248,4.248,0,0,1,3.223.762,3.127,3.127,0,0,1-.416,4.755c-5.927,4.032-9.04-10.509.677-10.4C1727.788,2441.215,1735.2,2449.37,1732.4,2455.775Z" transform="translate(-1710.014 -2386.773)" fill="blue" stroke="#f7931e" stroke-linecap="round" stroke-miterlimit="10" stroke-width="3"/>
        <path d="M1829.7,3037.567a5.027,5.027,0,0,0,2.467-2.374,5.567,5.567,0,0,0-4.493-8.037,5.507,5.507,0,0,0-5.841,4.819c-.1,1.512.831,3.277,2.375,3.346a3.041,3.041,0,0,0,1.928-.722,4.943,4.943,0,0,0,1.894-4.869,4.2,4.2,0,0,0-4.006-3.213,4.838,4.838,0,0,0-3.92,2.579,9.757,9.757,0,0,0-1.035,4.689,5.3,5.3,0,0,0,.389,2.407,4.585,4.585,0,0,0,3.246,2.2A11.507,11.507,0,0,0,1829.7,3037.567Z" transform="translate(-1798.799 -2871.917)" fill="blue" stroke="#2b3378" stroke-linecap="round" stroke-miterlimit="10" stroke-width="2"/>
        <path d="M2663.9,3030.641a11.448,11.448,0,0,0-3.885-7,9.15,9.15,0,0,0-7.679-1.383,12,12,0,0,0-6.481,4.482c-1.568,2.082-2.515,4.965-1.266,7.244a4.687,4.687,0,0,0,7.762.618,3.266,3.266,0,0,0,.581-3.254c-.849-1.9-3.661-2.029-5.555-1.1a11.191,11.191,0,0,0-5.35,6.808,7.965,7.965,0,0,0-.1,5.515,8.3,8.3,0,0,0,4.721,4.008,13.854,13.854,0,0,0,8.516.856C2662.608,3045.58,2665.265,3037.293,2663.9,3030.641Z" transform="translate(-2480.389 -2868.141)" fill="blue" stroke="#2b3378" stroke-linecap="round" stroke-miterlimit="10" stroke-width="2"/>
      </g>
    </g>
    <path d="M2162.705,2156.051s-5.43-35.65-6.306-52.8-5.237-25.88-6.382-26.727-8.98-8.7-14.237-.211,1.313,25.729,8.43,48.872,8.141,34.217,8.141,34.217" transform="translate(-2008.895 -1900.727)" fill="#fff"/>
    <path d="M2112.576,1791.448c-3.32-11.25-5.617-19.82-5.683-30.17-.065-10.371.892-21.261,1.619-31.617.476-6.773,1.588-18.146-5.955-21.719-7.024-3.326-12.806,3.222-15.694,8.834-6.273,12.191-3.108,28.931-.9,41.849,2.341,13.708,5.018,25.391,15.062,35.876" transform="translate(-1966.876 -1597.928)" fill="#fff"/>
    <path d="M2090.48,1675.356c10.652-1.7,11.532,19.629,16.092,25.309,1.479,1.841,4.793,3.017,4.652,5.762-.127,2.481-4.519,5.149-6.474,6.446-1.561,1.035-3.289,2.007-4.8,3a8.315,8.315,0,0,0-2.429,2.176c.093-2.045-.716-4.582-.225-6.468-3.408,2.66-8.046,4.463-11.749,6.857-1.45.938-11.864,6.981-11.365,8.871-2.6-9.838-4.812-18.824-3.178-29.562a32.314,32.314,0,0,1,5.015-12.524,23.209,23.209,0,0,1,6.767-7.313,22.24,22.24,0,0,1,3.6-2.09C2089.2,1674.576,2091.894,1675.091,2090.48,1675.356Z" transform="translate(-1956.321 -1571.391)" fill="#f15a24"/>
    <path d="M2243.137,2524.862c4.229,4.582,8.835,6.549,13.96,9.784a142.261,142.261,0,0,0,14.066,8.172c-6.472,4.309-15.737.276-21.444-2.146,3.55,2.815,4.4,4.721,5.176,9.075-4.561-3.682-11.35-5.795-15.635-9.844-5.234-4.946-6.042-11.675-7.285-19.2" transform="translate(-2090.196 -2272.272)" fill="#fff"/>
    <path d="M1524.023,2494.273c-.858,4.879-4.569,6.018-10.716,8.367-3.281,1.254-9.641,4.089-11.99,5.813,2.826,1.055,13.841-.595,17.539-.746,5.617-.229,12.449-3.973,12.411-9.22" transform="translate(-1484.645 -2250.365)" fill="#fff"/>
    <path d="M1583.137,2527.278c-2.548,5.523-4.345,6.544-10.524,8.138-1.886.486-7.035,3.384-8.9,3.713.773-2.9,2.986-4.459,3.97-6.039.924-1.483-.177-2.5.859-3.879C1570.726,2526.308,1583.644,2520.863,1583.137,2527.278Z" transform="translate(-1536.357 -2275.236)" fill="#fff"/>
    <path d="M2763.1,2819.275c6.789,15.484-2.013,43.127-18.185,52.184-7.922,4.437-18.206-1.16-26.338-1.4C2731.843,2857.521,2767.036,2830.882,2763.1,2819.275Z" transform="translate(-2493.481 -2519.719)" fill="#2b3378"/>
    <path d="M1486.355,1598.069a83.215,83.215,0,0,0,45.707-8.618c-.194-1.319-2.08-1.363-3.368-1.018a90.661,90.661,0,0,0-33.759,17.3" transform="translate(-1472.244 -1499.477)" fill="none" stroke="#f15a24" stroke-linecap="round" stroke-miterlimit="10" stroke-width="2"/>
    <path d="M1628.054,1124.356a36.418,36.418,0,0,0,2.394-3.315c.287-.452.554-1.083.189-1.475-.433-.463-1.19-.052-1.678.353a37.554,37.554,0,0,1-5.544,3.81,1.081,1.081,0,0,1-.674.2c-.547-.087-.621-.845-.516-1.39.48-2.495,1.888-4.448,3.192-6.541,2.181-3.5,4.885-5.584,5.9-9.832.681-2.863.906-5.828,1.731-8.652a26.586,26.586,0,0,1,4.753-8.858c1.581-2.017,4.5-6.292,6.9-7.142-6.672,2.411-13.176,6.736-15.713,13.361a53.378,53.378,0,0,0-1.465,5.726,21.011,21.011,0,0,0-.856,5.659,8.686,8.686,0,0,1-.177,2.622,7.034,7.034,0,0,1-.991,1.841c-2.875,4.263-5.6,8.58-8.327,12.942a57.7,57.7,0,0,1-8.648,11.355c-2.607,2.5-6.849,6.678-19.52,11.3a65.869,65.869,0,0,0,24.314-9.075,62.924,62.924,0,0,0,11.326-8.978C1625.823,1126.976,1626.973,1125.7,1628.054,1124.356Z" transform="translate(-1557.314 -1079.506)" fill="#f15a24"/>
    <path d="M1825.225,1226.1l-21.143.632a1.29,1.29,0,0,1-1.235-1.771l.245-.606a1.933,1.933,0,0,1,1.9-1.675l20.918-.682Z" transform="translate(-1734.465 -1195.939)" fill="blue"/>
    <path d="M2225.236,1871.672a21.535,21.535,0,0,1,13.27-3.754c-3.684,4.167-8.881,6.639-13.206,10.135" transform="translate(-2084.608 -1731.236)" fill="#e6360c"/>
    <path d="M1931.188,1961.2c-6.156-6.576-1.7-29.171,7.993-31.472,4.418,8.393,5.4,21.155-1.021,28.752-.609.72-2.353,2.982-3.225,3.233C1933.66,1962.083,1929.9,1960.2,1931.188,1961.2Z" transform="translate(-1838.567 -1782.487)" fill="#2e3192"/>
    <path d="M2007.884,1220.164a7.442,7.442,0,0,0-.282,2.356q-.152,1.269-.3,2.537a29.243,29.243,0,0,0-.383,4.55,37.185,37.185,0,0,1-4.409.109,7.127,7.127,0,0,1,.838-3.859C2004.657,1223.862,2006.521,1222.162,2007.884,1220.164Z" transform="translate(-1900.015 -1194.417)" fill="#f15a24"/>
  </g>
</svg>
