<svg xmlns="http://www.w3.org/2000/svg" width="188.035" height="40.004" viewBox="0 0 188.035 40.004">
    <path d="M679.524,357.489h2.47v23.272h-2.47Z"
        transform="translate(-679.523 -340.758)" fill="blue" />
    <path d="M721.577,357.489h2.471v23.272h-2.471Z"
        transform="translate(-684.191 -340.758)" fill="blue" />
    <path d="M682.147,383.394v-2.2h35.542v2.2Z"
        transform="translate(-679.814 -343.391)" fill="blue" />
    <path d="M719.379,355.4,699.45,369.731,679.523,355.4l19.927-16.731Z"
        transform="translate(-679.523 -338.668)" fill="blue" />
    <path d="M707.951,367.749l3.777,3.777-20.646,5.948,8.077-5.721"
        transform="translate(-680.806 -341.896)" fill="blue" />
    <g transform="translate(49.905 7.689)">
        <g transform="translate(0 0)">
            <path d="M72.613,21a13.712,13.712,0,0,1-.94,5.236,10.827,10.827,0,0,1-2.821,4.033,13.106,13.106,0,0,1-4.607,2.6,19.567,19.567,0,0,1-6.233.94c-2.416,0-4.249-.056-5.519-.159s-1.965-.179-2.116-.207V10.088c0-.874.489-1.354,1.448-1.447.583-.076,1.4-.151,2.472-.236s2.266-.113,3.639-.113a19.415,19.415,0,0,1,6.271.941,13.415,13.415,0,0,1,4.607,2.622,10.823,10.823,0,0,1,2.821,4.015A13.4,13.4,0,0,1,72.613,21Zm-2.679,0a12.334,12.334,0,0,0-.7-4.25,8.3,8.3,0,0,0-2.219-3.327,10.6,10.6,0,0,0-3.9-2.163,18.624,18.624,0,0,0-5.716-.781,31.558,31.558,0,0,0-3.215.123c-.771.084-1.222.14-1.335.169V31.308c.16.047.63.113,1.391.216a30.637,30.637,0,0,0,3.451.141,16.542,16.542,0,0,0,5.368-.809,10.554,10.554,0,0,0,3.827-2.181,8.871,8.871,0,0,0,2.3-3.385,12.144,12.144,0,0,0,.752-4.325Z"
                transform="translate(-50.378 -7.521)" fill="blue" />
            <path d="M83.9,9.137a1.717,1.717,0,0,1-.526,1.25,1.694,1.694,0,0,1-1.251.517,1.613,1.613,0,0,1-1.221-.517,1.742,1.742,0,0,1-.508-1.25A1.681,1.681,0,0,1,80.9,7.925a1.632,1.632,0,0,1,1.221-.5,1.717,1.717,0,0,1,1.251.5A1.662,1.662,0,0,1,83.9,9.137Zm-2.933,7.521a1.136,1.136,0,0,1,1.025-1.239,1.151,1.151,0,0,1,.282.008,2.042,2.042,0,0,1,.629.094,2.525,2.525,0,0,1,.452.16V33.337H80.966Z"
                transform="translate(-53.71 -7.425)" fill="blue" />
            <path d="M101.914,17.721a1.149,1.149,0,0,1-.2.658,4.449,4.449,0,0,1-.376.47,9.217,9.217,0,0,0-1.56-.545,8.419,8.419,0,0,0-2.2-.254,7.532,7.532,0,0,0-2.482.357,3.9,3.9,0,0,0-1.608,1.072,4.139,4.139,0,0,0-.865,1.749,10.222,10.222,0,0,0-.253,2.388V34.277H89.984V22.5a6.26,6.26,0,0,1,1.88-4.86,7.872,7.872,0,0,1,5.5-1.721,10.684,10.684,0,0,1,3.253.433C101.482,16.659,101.914,17.1,101.914,17.721Z"
                transform="translate(-54.774 -8.366)" fill="blue" />
            <path d="M108.365,26.913a6.4,6.4,0,0,0,2.313,4.306,7.94,7.94,0,0,0,5.058,1.514,8.14,8.14,0,0,0,3.13-.526,15.743,15.743,0,0,0,1.974-.941l1.044,1.74c-.2.122-.479.282-.865.489a9.515,9.515,0,0,1-1.41.592,12.622,12.622,0,0,1-4.193.686,11.622,11.622,0,0,1-3.76-.592,8.955,8.955,0,0,1-3.074-1.758A8.151,8.151,0,0,1,106.5,29.6a9.614,9.614,0,0,1-.761-3.949,10.554,10.554,0,0,1,.724-3.958,9.029,9.029,0,0,1,2.022-3.065,9.153,9.153,0,0,1,3.111-1.965,10.61,10.61,0,0,1,3.92-.7,11.025,11.025,0,0,1,3.168.413,6.572,6.572,0,0,1,2.257,1.175,4.913,4.913,0,0,1,1.316,1.758,5.455,5.455,0,0,1,.452,2.219,4.852,4.852,0,0,1-.452,2.19,4.315,4.315,0,0,1-1.654,1.73,9.529,9.529,0,0,1-3.15,1.156,24.244,24.244,0,0,1-4.974.423h-2.115A19.112,19.112,0,0,1,108.365,26.913Zm-.075-1.88c.648.047,1.288.076,1.88.094h1.936a21.8,21.8,0,0,0,4.053-.31,8.922,8.922,0,0,0,2.51-.818,2.979,2.979,0,0,0,1.279-1.185,3.038,3.038,0,0,0,.432-1.447,3.194,3.194,0,0,0-.423-1.7,3.057,3.057,0,0,0-1.165-1.119,5.025,5.025,0,0,0-1.589-.6,9.655,9.655,0,0,0-1.823-.179,7.02,7.02,0,0,0-3,.6,6.307,6.307,0,0,0-2.19,1.608,7.315,7.315,0,0,0-1.373,2.331A8.244,8.244,0,0,0,108.291,25.033Z"
                transform="translate(-56.525 -8.373)" fill="blue" />
            <path d="M138.393,17.978a8.961,8.961,0,0,0-2.821.433,5.866,5.866,0,0,0-2.219,1.344,6.034,6.034,0,0,0-1.467,2.294,9.332,9.332,0,0,0-.526,3.271,8.784,8.784,0,0,0,.583,3.357,6.1,6.1,0,0,0,1.57,2.3,6.589,6.589,0,0,0,2.35,1.316,9.31,9.31,0,0,0,2.877.433,8.164,8.164,0,0,0,2.981-.433,16.4,16.4,0,0,0,1.645-.761l.941,1.777a14.611,14.611,0,0,1-2.426,1.024,11.883,11.883,0,0,1-3.619.452,11.232,11.232,0,0,1-3.761-.611,8.183,8.183,0,0,1-5.011-4.7,10.18,10.18,0,0,1-.724-3.94,10.78,10.78,0,0,1,.724-4.061,8.735,8.735,0,0,1,1.993-3.028,8.255,8.255,0,0,1,3.037-1.88,11.573,11.573,0,0,1,3.864-.629,11.15,11.15,0,0,1,3.76.488,6.258,6.258,0,0,1,1.664.781,1.8,1.8,0,0,1,.433.452,1.157,1.157,0,0,1,.179.668,1.606,1.606,0,0,1-.2.686,1.879,1.879,0,0,1-.593.686,7.773,7.773,0,0,0-1.889-1.157A8.3,8.3,0,0,0,138.393,17.978Z"
                transform="translate(-59.081 -8.369)" fill="blue" />
            <path d="M152.874,18.054V28.537a3.468,3.468,0,0,0,1.053,2.821,4.286,4.286,0,0,0,2.745.828,5.64,5.64,0,0,0,2.021-.357,7.747,7.747,0,0,0,1.439-.668l1.053,1.561a4.893,4.893,0,0,1-.668.432,9.132,9.132,0,0,1-1.091.508,8.5,8.5,0,0,1-1.476.414,9.666,9.666,0,0,1-1.88.159,7.119,7.119,0,0,1-2.5-.395,4.638,4.638,0,0,1-1.73-1.1,4.5,4.5,0,0,1-1.035-1.683,6.473,6.473,0,0,1-.338-2.134V12.264a1.128,1.128,0,0,1,1.015-1.231,1.15,1.15,0,0,1,.282.009,2.322,2.322,0,0,1,.63.084,3.521,3.521,0,0,1,.451.169v4.588h6.365a1.349,1.349,0,0,1,1.053.339,1.319,1.319,0,0,1,.282.856,2.052,2.052,0,0,1-.066.545c-.043.147-.093.291-.15.432Z"
                transform="translate(-61.49 -7.825)" fill="blue" />
            <path d="M168.595,33.475V9.97a1.387,1.387,0,0,1,.3-.94,1.326,1.326,0,0,1,1.034-.357,2.523,2.523,0,0,1,.668.084,2.915,2.915,0,0,1,.489.2v24.52Z"
                transform="translate(-63.503 -7.563)" fill="blue" />
            <path d="M202.5,20.969a13.237,13.237,0,0,1-1.251,5.819,12.578,12.578,0,0,1-3.45,4.372l3.507,4.409-1.88,1.41-3.507-4.512a13.4,13.4,0,0,1-3.037,1.175,14.1,14.1,0,0,1-8.6-.555,12.222,12.222,0,0,1-4.118-2.726,12.939,12.939,0,0,1-2.736-4.165,13.575,13.575,0,0,1-.987-5.218,13.494,13.494,0,0,1,.987-5.2,12.715,12.715,0,0,1,2.736-4.118,12.531,12.531,0,0,1,4.118-2.718,14.293,14.293,0,0,1,10.341,0,12.706,12.706,0,0,1,4.119,2.7,12.457,12.457,0,0,1,2.764,4.137A13.313,13.313,0,0,1,202.5,20.969Zm-2.679,0a11.792,11.792,0,0,0-.79-4.382,10.439,10.439,0,0,0-2.172-3.413,9.736,9.736,0,0,0-3.29-2.219,10.9,10.9,0,0,0-8.189,0,9.952,9.952,0,0,0-3.271,2.219,10.4,10.4,0,0,0-2.172,3.413,11.614,11.614,0,0,0-.8,4.382,11.7,11.7,0,0,0,.8,4.391,10.482,10.482,0,0,0,2.182,3.45,9.878,9.878,0,0,0,3.271,2.247,10.506,10.506,0,0,0,4.089.789,10.12,10.12,0,0,0,4.992-1.232l-3.111-3.939a1.878,1.878,0,0,1-.546-1.194,1.05,1.05,0,0,1,.386-.808,2.012,2.012,0,0,1,1.2-.414l3.977,5.021A9.84,9.84,0,0,0,198.93,25.7,11.7,11.7,0,0,0,199.824,20.969Z"
                transform="translate(-64.374 -7.486)" fill="blue" />
        </g>
    </g>
</svg>