<svg xmlns="http://www.w3.org/2000/svg" width="75" height="46.875" viewBox="0 0 75 46.875">
  <path id="Icon_metro-eye" data-name="Icon metro-eye" d="M40.071,7.712A42,42,0,0,0,2.571,31.15a41.719,41.719,0,0,0,75,0A42,42,0,0,0,40.071,7.712Zm18.49,12.429A35.662,35.662,0,0,1,69.506,31.15,35.662,35.662,0,0,1,58.561,42.158a34.365,34.365,0,0,1-36.98,0A35.662,35.662,0,0,1,10.636,31.15,35.66,35.66,0,0,1,21.581,20.142c.287-.183.577-.36.869-.535a18.75,18.75,0,1,0,35.243,0q.438.261.869.535Zm-18.49,3.977a7.031,7.031,0,1,1-7.031-7.031A7.031,7.031,0,0,1,40.071,24.118Z" transform="translate(-2.571 -7.712)" fill="#fff"/>
</svg>
