<svg xmlns="http://www.w3.org/2000/svg" xmlns:xlink="http://www.w3.org/1999/xlink" width="292.164" height="252.256" viewBox="0 0 292.164 252.256">
  <defs>
    <clipPath id="clip-path">
      <path d="M2268.394,1197.96c2.221-4.355,7.137-6.611,11.855-6.823a20.218,20.218,0,0,1,15.169,6.074c2.109,2.156,3.9,4.883,6.664,5.958,2.195.853,4.629.5,6.958.764a13.939,13.939,0,0,1,9.881,6.1c2.852,4.269,3.59,10.216,7.661,13.217,6.989,5.152,16.767-4.424,22.348,3.337,3.675,5.111,2.185,12.9,4.335,18.683,6.289,16.918,26.775-1.7,37.744-1.641,14.761.08,17.765,15.883,17.036,28.566-.81,14.109-5.36,25.541-15.7,34.839-18.644,16.76-49.675,18.549-72.52,12.794-12.681-3.195-26.2-8.875-34.824-19.626-12.056-15.033-17.6-39.024-17.365-57.989" transform="translate(-2267.627 -1191.118)" fill="#2e3192"/>
    </clipPath>
    <clipPath id="clip-path-2">
      <path d="M2438.966,1953.936c-2.245-2.412-4.791-4.593-7.2-6.845a24.871,24.871,0,0,1-5.237-6.091c-2.273-4.21-2.043-9.338-2.9-14.089-1.515-8.423-7.641-14.487-11.273-22.017-3.729-7.727-8.8-16.724-9.073-25.58-.477-15.387,17.646-2.338,22.751,2.695,4.179,4.119,7.656,8.954,11.724,13.193,8.418,8.773,19.094,14.733,28.482,22.354,15.031,12.2,22.5,30.167,20.668,49.991-1.688,18.237-12.824,32.459-29.982,36.943-22.993,6.008-43.182-3.857-44.144-33.262-.184-5.65-2.376-14.61,3.827-17.212C2422.218,1951.665,2438.29,1954.019,2438.966,1953.936Z" transform="translate(-2403.274 -1872.045)" fill="#f7931e"/>
    </clipPath>
    <clipPath id="clip-path-3">
      <path d="M2872.969,1936.638c-6.931-22.92-10.089-54.982.256-77.258,4.618-9.945,11.767-19.139,13.753-30.254,1.721-9.628-2.641-18.232-8.3-25.551-7.561-9.773-14.186-17.188-25.874-20.77a138.627,138.627,0,0,0-43.129-6.527c-10.495.127-21.305.293-28.764,9.131-6.114,7.244-6.494,17.1-3.507,25.9,9.782,28.809,46.722,58.3,31.081,91.225a102.73,102.73,0,0,1-20.065,28.339c-2.838,2.754-6.521,5.174-7.84,8.988" transform="translate(-2775.583 -1776.268)" fill="#2e3192"/>
    </clipPath>
    <clipPath id="clip-path-4">
      <path d="M3346.311,1354.7c-6.909-7.464-13.853-14.9-21.393-21.781-13.682-12.494-27.392-25.683-36-43.11-6.575-13.318-11.847-28.765-9.573-44.139,3.038-20.55,16.061-43.548,37.682-38.779,4.393.969,9.368,2.691,12.928,5.908a33.181,33.181,0,0,1,10.031,18.473c.359,2.2,2.2,20.039-.973,19.94a96.039,96.039,0,0,0-21.483,1.755c-1.315.258-2.914.858-3.043,2.25a2.871,2.871,0,0,0,.793,1.989c1.872,2.3,4.739,3.349,7.295,4.747s5.12,3.613,5.331,6.621c.1,1.376-.31,2.839.229,4.1a5.094,5.094,0,0,0,1.716,1.915c6.4,4.911,14.34,7.057,21.3,11.053,19.715,11.318,17.955,45.824,15.412,65.872-.817,6.44-1.426,14.492-4.739,19.618C3356.525,1365.775,3351.427,1360.229,3346.311,1354.7Z" transform="translate(-3278.813 -1206.257)" fill="#f7931e"/>
    </clipPath>
  </defs>
  <g transform="translate(0)">
    <g transform="translate(101.987)">
      <path d="M2268.394,1197.96c2.221-4.355,7.137-6.611,11.855-6.823a20.218,20.218,0,0,1,15.169,6.074c2.109,2.156,3.9,4.883,6.664,5.958,2.195.853,4.629.5,6.958.764a13.939,13.939,0,0,1,9.881,6.1c2.852,4.269,3.59,10.216,7.661,13.217,6.989,5.152,16.767-4.424,22.348,3.337,3.675,5.111,2.185,12.9,4.335,18.683,6.289,16.918,26.775-1.7,37.744-1.641,14.761.08,17.765,15.883,17.036,28.566-.81,14.109-5.36,25.541-15.7,34.839-18.644,16.76-49.675,18.549-72.52,12.794-12.681-3.195-26.2-8.875-34.824-19.626-12.056-15.033-17.6-39.024-17.365-57.989" transform="translate(-2267.627 -1191.118)" fill="#000d92"/>
      <g clip-path="url(#clip-path)">
        <path d="M2364.536,1458.939c3.544,7.653-2.251,18.761-6.421,24.29a38.057,38.057,0,0,1-12.945,10.724c-5.778,3.1-11.13,3.495-17.351,3.454-11.6-.076-23.161-4.478-34.873-4.19-6.729.166-19.377,5.741-24.314-1.723-6.264-9.472,13.437-24.519-3.274-30.856-7.1-2.691-18.248,9.232-21.475-1.314-1.439-4.707.624-9.764.424-13.915-6.823,12.358-11.109,25.142-8.9,40.261,4.743,32.492,43.444,53.027,69.062,57.027,22.319,3.485,48.006-5.07,58.6-28.814,5.552-12.437,9.237-22.354,5.664-36.507" transform="translate(-2224.66 -1406.876)" fill="#2e3192" style="mix-blend-mode: multiply;isolation: isolate"/>
      </g>
    </g>
    <g transform="translate(132.237 78.312)">
      <path d="M1965.975,1728.755c-1.123-3.089-3.742-6.113-5.322-9.056-4.36-8.122-18.872-.94-20.743,1.425,26.1-26.972,45.046-5.378,48.01,1.656,3.1,7.358,3.175,14.6,4.424,22.291,1.874,11.533,9.326,24.837,21.891,23.246,8.024-1.016,13.443-6.66,20.9-9.09,10.6-3.458,18.92,2.038,28.425,6.168,8.887,3.862,27.5,10.676,36.281,2.675a34.824,34.824,0,0,1-20.54,23.138c-8.264,3.095-17.15-.227-24.125-5.2-4.126-2.941-9.041-8.27-14.216-8.747-4.805-.442-8.871,3.518-12.322,6.507-5.957,5.16-11.3,9.673-18.444,13s-17.012,9.2-24.511,4.8C1960.383,1786.711,1974.2,1751.381,1965.975,1728.755Z" transform="translate(-1939.91 -1707.93)" fill="#f15a24"/>
    </g>
    <g transform="translate(138.042 103.181)">
      <path d="M2438.966,1953.936c-2.245-2.412-4.791-4.593-7.2-6.845a24.871,24.871,0,0,1-5.237-6.091c-2.273-4.21-2.043-9.338-2.9-14.089-1.515-8.423-7.641-14.487-11.273-22.017-3.729-7.727-8.8-16.724-9.073-25.58-.477-15.387,17.646-2.338,22.751,2.695,4.179,4.119,7.656,8.954,11.724,13.193,8.418,8.773,19.094,14.733,28.482,22.354,15.031,12.2,22.5,30.167,20.668,49.991-1.688,18.237-12.824,32.459-29.982,36.943-22.993,6.008-43.182-3.857-44.144-33.262-.184-5.65-2.376-14.61,3.827-17.212C2422.218,1951.665,2438.29,1954.019,2438.966,1953.936Z" transform="translate(-2403.274 -1872.045)" fill="#f7931e"/>
      <g transform="translate(0)" clip-path="url(#clip-path-2)">
        <path d="M2651.664,2113.035q-2.517,12.635-5.035,25.27c-.4,2-.787,4.132-.041,6.031,1.516,3.858,6.5,4.587,10.524,5.573a30.679,30.679,0,0,1,15.982,9.881c-.807-.951-6.731-.816-8.089-.981-4.444-.539-8.8-1.774-13.246-2.065a2.506,2.506,0,0,0-1.984.465,2.639,2.639,0,0,0-.343,2.317,35.31,35.31,0,0,1,.63,8.265c-.154,2.088-.611,4.882-2.012,6.543-1.009,1.2-2.636,1.926-3.814,2.995-3.764,3.416-7.6,6.742-11.582,9.9-.368-8.913-.719-17.991,1.619-26.6,2.8-10.32,6.368-20.965,11.21-30.451" transform="translate(-2623.903 -2076.518)" fill="#f15a24"/>
      </g>
    </g>
    <path d="M2798.575,2406.269s2.909,7.511.172,14.128-19.506,1.789-19.506,1.789l.855-15.2S2793.785,2405.553,2798.575,2406.269Z" transform="translate(-2634.941 -2221.968)" fill="#fff1e0"/>
    <g transform="translate(53.758 88.668)">
      <path d="M2872.969,1936.638c-6.931-22.92-10.089-54.982.256-77.258,4.618-9.945,11.767-19.139,13.753-30.254,1.721-9.628-2.641-18.232-8.3-25.551-7.561-9.773-14.186-17.188-25.874-20.77a138.627,138.627,0,0,0-43.129-6.527c-10.495.127-21.305.293-28.764,9.131-6.114,7.244-6.494,17.1-3.507,25.9,9.782,28.809,46.722,58.3,31.081,91.225a102.73,102.73,0,0,1-20.065,28.339c-2.838,2.754-6.521,5.174-7.84,8.988" transform="translate(-2775.583 -1776.268)" fill="blue"/>
      <g clip-path="url(#clip-path-3)">
        <path d="M3212.113,2097.949q-.43-.713-.875-1.436c-2.621-4.252-5.35-8.588-8.784-12.061-3.284-3.319-10.8-8.885-13.477-2.015-.817,2.093.529,5.845.547,8.067.037,4.761-.612,9.318-.128,14.118,1.38,13.682,6.505,24.935,4.112,39.085-1.434,8.482-5.427,16.465-8.669,24.341-2.846,6.914-8.488,14.506-9.209,22.113-1.11,11.7,14.021,22.428,24.541,17.347,5.714-2.76,3.947-13.084,5.233-18.867,1.857-8.349,4.969-16.308,7.283-24.517a193.088,193.088,0,0,0,6.825-41.8C3220.087,2112.95,3216.86,2105.832,3212.113,2097.949Z" transform="translate(-3168.413 -2033.266)" fill="#1b1464"/>
      </g>
    </g>
    <path d="M3074.754,1312.352c-.582-2.572-3.384-4.719-4.93-6.765-3.216-4.251-6.425-9.264-7.729-14.563-2.357-9.582.823-18.392,4.473-27.026,4.3-10.173,12.589-19.132,9.212-30.866-4.328-15.038-21.861-16.505-31.48-6.391-2.7,2.843-2.24,5.5-4.229,8.9-1.111,1.9-3.868,3.384-6.862,5.828-.29,2.279-2.626,13.446-2.977,17.644a6.04,6.04,0,0,0,.862,4.158,6.574,6.574,0,0,0,2.115,1.663,29.14,29.14,0,0,0,6.094,2.57,7.232,7.232,0,0,1,2.581,1.089c2.725,2.19.78,6.145.3,8.839a70.587,70.587,0,0,1-3.221,12.337c-.46,1.234-7.92,15.373-7.966,15.349,9.753,5.291,20.116,7.253,30.923,8.673C3064.56,1314.139,3073.245,1312.927,3074.754,1312.352Z" transform="translate(-2949.617 -1215.855)" fill="#fff1e0"/>
    <path d="M2994.583,1205.115c2.477-1.736,7.771-.767,9.413,2.127,3.862,6.806-6.873,17.07-2.852,25.206,3.449,6.977,13.459,4.364,16.756,10.733,6.174-12.394,8.316-27.866-3.924-36.672C3009.685,1203.423,2993.984,1205.522,2994.583,1205.115Z" transform="translate(-2889.644 -1200.404)" fill="#000d92"/>
    <path d="M3055.39,1681.582a3.6,3.6,0,0,0-.158-1.79c-1.18-3.615-3.681-5.707-4.221-9.645-.512-3.731-.125-8.4-2.176-11.676-2.77-4.419-8.784-1.052-12.653-.534a63.79,63.79,0,0,1-16.317-.006c-1.812-.245-4.439-.307-5.822-1.372a15.36,15.36,0,0,0,.911-2.586c-1.613-.1-2.873-1.1-4.362-.345-3.046,1.551-4.433,7.158-5.646,10.1-1.249,3.026-2.669,7.529-5.44,9.341,1.662,1.9,4.9,3.036,7.054,4.291a81.409,81.409,0,0,0,9.159,4.9,57.906,57.906,0,0,0,17.9,4.577C3036.47,1687.086,3054.315,1687.434,3055.39,1681.582Z" transform="translate(-2923.838 -1583.305)" fill="#f15a24"/>
    <g transform="translate(0 2.294)">
      <path d="M3346.311,1354.7c-6.909-7.464-13.853-14.9-21.393-21.781-13.682-12.494-27.392-25.683-36-43.11-6.575-13.318-11.847-28.765-9.573-44.139,3.038-20.55,16.061-43.548,37.682-38.779,4.393.969,9.368,2.691,12.928,5.908a33.181,33.181,0,0,1,10.031,18.473c.359,2.2,2.2,20.039-.973,19.94a96.039,96.039,0,0,0-21.483,1.755c-1.315.258-2.914.858-3.043,2.25a2.871,2.871,0,0,0,.793,1.989c1.872,2.3,4.739,3.349,7.295,4.747s5.12,3.613,5.331,6.621c.1,1.376-.31,2.839.229,4.1a5.094,5.094,0,0,0,1.716,1.915c6.4,4.911,14.34,7.057,21.3,11.053,19.715,11.318,17.955,45.824,15.412,65.872-.817,6.44-1.426,14.492-4.739,19.618C3356.525,1365.775,3351.427,1360.229,3346.311,1354.7Z" transform="translate(-3278.813 -1206.257)" fill="#f7931e"/>
      <g clip-path="url(#clip-path-4)">
        <path d="M3327.942,1911.29c-2.041-5.843-9.659-10.282-14.427-13.408q-30.843-20.221-59.63-43.365c4.548,8.326,11.138,13.1,16.644,20.461,6.318,8.451,12.57,16.974,19.646,24.819a257.281,257.281,0,0,0,28.016,27.117c3.932-3.755,11.685-8.93,9.92-15.091C3328.06,1911.643,3328,1911.466,3327.942,1911.29Z" transform="translate(-3235.311 -1756.285)" fill="#f15a24"/>
        <path d="M3415.584,1289.679a42.675,42.675,0,0,0-4.069-13.906,27.979,27.979,0,0,0-14.209-14.111,21.423,21.423,0,0,0-9.889-1.423c-6.413.469-4.611,4.63-.932,7.933,7.088,6.364,15.11,13.028,17.981,22.5a8.041,8.041,0,0,1,.432,3.663,3.373,3.373,0,0,1-2.215,2.744,5.336,5.336,0,0,1-2.854-.3,67.994,67.994,0,0,0-30.567-1.558c-5.8,1.038-11.965,3.21-15.024,8.248,10.374.717,20.982,1.559,30.485,5.781a29.89,29.89,0,0,0,6.314,2.429,17.739,17.739,0,0,0,7.389-.447,26.468,26.468,0,0,0,8.574-3.49,19.661,19.661,0,0,0,8.14-11.472A20.136,20.136,0,0,0,3415.584,1289.679Z" transform="translate(-3337.82 -1251.998)" fill="#f15a24"/>
      </g>
    </g>
    <path d="M3190.308,1260.529c.808,1.572-4.475,6.408-7.513,7.821-1.955.908-5.027,1.091-6.7,2.666,1.882,1.115-6.936,4.966-7.627,5-5.608.139,1.473-2.245,3.414-5.5s.405-4.99,5.673-8.681" transform="translate(-3082.107 -1250.218)" fill="#f7dcbb"/>
    <path d="M3177.331,1216.282c11.862,1.213,23.351,1.407,35.232,1.776,6.462.2,14.173,1.471,20.152,4.009.891,4.323-7.03,5.317-9.551,5.742-2.923.493-5.876.774-8.824,1.054-2,.19-6.536-.172-7.938,1.347,1.579,1.568,4.271,1,6.258,1.046,1.289.033,5.089.132,5.694,1.8.986,2.726-6.775,1.509-8.03,1.463-6.356-.231-8.94-1.79-14.48-4.845-5.51-3.04-12.495-1.486-18.153-.143-3.481.827-3.829.586-6.032-2.894-2.154-3.4-5.063-6.706-4.594-11.074" transform="translate(-3126.564 -1211.862)" fill="#fff1e0"/>
    <path d="M2954.812,2410.931s-39.809,1.193-54.865,2.981c0,0,2.965,11.564-.8,20.148,0,0,36.3-3.886,53.413-2.813C2952.561,2431.246,2953.672,2420.349,2954.812,2410.931Z" transform="translate(-2808.002 -2226.093)" fill="#f15a24"/>
    <path d="M2348.807,2107.688c-6.322-1.321-12.765-2.059-19.036-3.6,7.935,4.653,17.538,6.443,24.542,12.409-.421-.359,4.62-2.651,5.056-2.756,1.188-.285,4.042-.231,2.993-1.65-.975-1.32-4.993-2.109-6.528-2.595A72.038,72.038,0,0,0,2348.807,2107.688Z" transform="translate(-2129.502 -1965.743)" fill="#e6360c"/>
    <path d="M3001.562,1726.142c-2.366,1.513-4.649,3.8-4.613,6.609l4.612-1.818a14.752,14.752,0,0,1,6.1-1.441c2.1.115,4.3,1.4,4.765,3.45a5.272,5.272,0,0,1-.356,3.052,9.239,9.239,0,0,1-5.995,5.446,26.5,26.5,0,0,0,6.876-1.72c2.081-.94,4.114-2.948,3.627-5.18-.273-1.257-1.273-2.2-2.024-3.243a14.978,14.978,0,0,1-2.281-6.52c-.156-.967-.28-6.462-1.292-6.658-.925-.179-2.586,3.128-3.168,3.747C3006.066,1723.726,3003.679,1724.788,3001.562,1726.142Z" transform="translate(-2884.657 -1638.256)" fill="#e6360c"/>
  </g>
</svg>
