<svg xmlns="http://www.w3.org/2000/svg" xmlns:xlink="http://www.w3.org/1999/xlink" width="587.582" height="411.768" viewBox="0 0 587.582 411.768">
  <defs>
    <clipPath id="clip-path">
      <path d="M530.431,946.972c-73.214,6.469-148.171,11.182-214.364-23.71-87.712-46.236-91.18-112.539-79.838-134.954,16.667-32.941,43.834-32.285,69.951-35.172,29.437-3.254,66.651,14.167,95.8,13.386,13.095-.351,23.258-7.93,35.043-11.8,13.452-4.418,29.506-4.019,43.528-5.495,30.626-3.224,61.02-9.46,91.414-12.82s111-49.416,178.456-36.817c108.982,20.355,65.789,153.8,23.754,197.515-16.4,17.061-62.6,47.771-147.119,44.359C612.427,940.873,547.6,945.455,530.431,946.972Z" transform="translate(-231.581 -697.413)" fill="#fff"/>
    </clipPath>
    <radialGradient id="radial-gradient" cx="0.668" cy="-0.027" r="0.606" gradientTransform="translate(0.149) scale(0.702 1)" gradientUnits="objectBoundingBox">
      <stop offset="0" stop-color="#fff"/>
      <stop offset="1" stop-color="#f7931e"/>
    </radialGradient>
  </defs>
  <g transform="translate(0 93.99)">
    <path d="M530.431,946.972c-73.214,6.469-148.171,11.182-214.364-23.71-87.712-46.236-91.18-112.539-79.838-134.954,16.667-32.941,43.834-32.285,69.951-35.172,29.437-3.254,66.651,14.167,95.8,13.386,13.095-.351,23.258-7.93,35.043-11.8,13.452-4.418,29.506-4.019,43.528-5.495,30.626-3.224,61.02-9.46,91.414-12.82s111-49.416,178.456-36.817c108.982,20.355,65.789,153.8,23.754,197.515-16.4,17.061-62.6,47.771-147.119,44.359C612.427,940.873,547.6,945.455,530.431,946.972Z" transform="translate(-231.581 -697.413)" fill="#b6ffe8"/>
    <g transform="translate(0 0)" clip-path="url(#clip-path)">
      <path d="M2093.325,740.01a37.675,37.675,0,0,1-6.856,14.227c-5.607,7.027-12.37,7.154-20.932,7.507-13.344.55-26.449-1.285-39.774-2.131-12.159-.772-24.414-1.54-36.484.116-8.879,1.219-17.559,3.739-26.479,4.614-9.479.93-19.028-.015-28.523-.763a691.249,691.249,0,0,0-79.615-1.672c-25.177.922-50.773,1.843-75.791,4.85-35.878,4.313-71.651,9.576-107.084,16.39q-7.128,1.371-14.236,2.826c-2.385.489-10.791,3.487-12.826,2.705-2.806-1.077-2.158-5.243-2.433-8.062l-1.865-19.076c-.01-.108,60.937-6.626,64.368-7L1807.258,743.4c16.916-1.839,34.548-1.848,51.11-4.755,14.329-2.515,27.271-4.446,41.956-4.031,16.555.468,32.812,3.461,49.411,3.381,8.633-.042,17.453-.669,25.411-4.015,8.536-3.59,15.5-10.055,23.431-14.836,16.85-10.158,37.464-7.021,56.092-13.637,4.461-1.584,8.936-3.458,12.459-6.62s5.979-7.848,5.39-12.544c-.947-7.544-9.209-10.947-15.711-12.41-8.864-2-17.884-4.229-26.9-6.242-20.932-4.672-42.566-5.653-63.934-4.5-29.306,1.587-58.234,7.123-87.1,12.413-62.776,11.5-125.89,21.922-189.588,25.9-7.033.439-14.342.757-20.86-1.921,2.624-2.083,6.009-2.89,9.275-3.637q168.672-38.568,340.234-62.594c8.772-1.228,17.786-2.418,26.41-.4,12.905,3.027,22.069,16.324,28.777,26.992,8.762,13.936,14.544,29.7,18.512,45.613,2.363,9.48,3.979,19.32,2.731,29.01A45.69,45.69,0,0,1,2093.325,740.01Z" transform="translate(-1455.531 -640.474)" fill="#b6ffe8"/>
      <path d="M3610.543,1648.927c12.668-.31,22.531-6.085,27.879-14.869s7.839-16.78,16.135-22.857a26.159,26.159,0,0,1,24-3.4c-4.428-13.562.88-29.707,12.492-38,6.524-4.657,15.29-6.846,22.723-3.845,9.388,3.79,14.151,14.839,13.742,24.955s-4.894,19.561-9.293,28.679c4.151-3.9,8.8-8.024,14.491-8.336s11.707,5.689,9.117,10.761a44.643,44.643,0,0,1,16.207-9.468c3.761-1.23,7.866-1.948,11.656-.813s7.111,4.544,7.082,8.5c-.025,3.4-2.352,6.3-3.536,9.484-1.24,3.342-1.13,7.328.94,10.23s6.3,4.286,9.43,2.576" transform="translate(-3272.091 -1509.772)" fill="#fff"/>
      <path d="M3659.2,849.3a232.043,232.043,0,0,1,24.535-14.513c7.04-3.6,16-6.711,22.376-2.03a69.9,69.9,0,0,1,26.841-20.478c5.136-2.212,11.148-3.769,16.2-1.375,8.165,3.867,8.912,15,8.477,24.019a181.73,181.73,0,0,1,18.525-9.43c4.187-1.838,10.44-2.752,12.118,1.5,1.035,2.623-.575,5.825.723,8.329,1.335,2.573,4.827,2.883,7.725,2.858l21.46-.192" transform="translate(-3281.357 -646.967)" fill="#fff"/>
      <path d="M3659.2,849.3a232.043,232.043,0,0,1,24.535-14.513c7.04-3.6,16-6.711,22.376-2.03a69.9,69.9,0,0,1,26.841-20.478c5.136-2.212,11.148-3.769,16.2-1.375,8.165,3.867,8.912,15,8.477,24.019a181.73,181.73,0,0,1,18.525-9.43c4.187-1.838,10.44-2.752,12.118,1.5,1.035,2.623-.575,5.825.723,8.329,1.335,2.573,4.827,2.883,7.725,2.858l21.46-.192" transform="translate(-3247.357 -805.967)" fill="#fff"/>
    </g>
  </g>
  <path d="M232.7,690.974c-8.3,22.342-.121,64.421,10.561,84.979s27.182,34.805,44.231,45.959c33.511,21.923,70.369,33.779,107.267,42.6a737.841,737.841,0,0,0,107.788,17.5c29.568,2.565,41.721,1.929,70.843-5.2,58.97-14.436,81.365-120.909,68.663-192.791-9.694-54.858-49.175-94.361-92.594-95.148-45.216-.82-64.339,24.256-106.832,44.359-25.86,12.234-44.53,20.736-79.468,24.279C342.241,659.63,266.328,600.419,232.7,690.974Z" transform="translate(-170.6 -511.107)" fill="#b6ffe8" style="mix-blend-mode: multiply;isolation: isolate"/>
  <path d="M1963.905,482.337l.575.575" transform="translate(-1736.557 -416.574)" fill="#f15a24"/>
  <g transform="translate(-598.299 -279.299)">
    <g transform="translate(747.182 279.299)">
      <path d="M1087.544,1796.576c-.278,2.076.9,4.813,1.35,6.783,1.29,5.656,1.756,11.49,3.133,17.091,1.116,4.537,1.069,8.991,1.84,13.45.948,5.482,3.575,11.03,5.177,16.371,3.289,10.969,5.069,16.482,6.11,27.933.73,8.031-1.947,26.039-18.735,53.8-1.588-8.328-2.215-16.684-3.57-25.089-.676-4.193-.858-8.47-1.678-12.643-1.35-6.867-3.73-13.583-5.251-20.419-1.351-6.076-1.92-12.262-3.274-18.309-1.37-6.118-2.172-12.563-3.038-18.778-.628-4.507-1.865-9.021-2.157-13.57a62.985,62.985,0,0,0-1.386-11.026c-.29-1.152-.4-2.36-.674-3.491-.292-1.228-.741-1.636-.712-3.093" transform="translate(-893.245 -1556.558)" fill="#f15a29"/>
      <path d="M698.008,2287.657s10.52,32.138-6.541,37.362-71.01-4.258-118.529-25c0,0-26.977-31.017-4.881-30.128C607.844,2271.494,687.361,2290.537,698.008,2287.657Z" transform="translate(-504.351 -1914.663)" fill="#f7931e"/>
      <path d="M562.925,1468.6c-5.669-13.07-10-26.787-14.74-40.255a70.364,70.364,0,0,0-5.37-12.48c-8.875-15.082-26.165-18.913-41.7-23.446a62.757,62.757,0,0,0-12.163-2.536,23.037,23.037,0,0,1-3.188-.925c-1.559-.353-2.363-.014-4.015-.806l-34.694,3.413c-5.195.511-9.916,3.8-14.535,5.8-4.971,2.151-10.473,2.549-15.727,3.865-10.94,2.74-21.772,7.281-29.623,15.644-9.073,9.666-12.551,23.223-15.242,35.916-2.8,13.229-4.243,26.694-6.558,40.008a31.561,31.561,0,0,1-2.264,8.253c6.187-.3,11.72,1.552,17.678,2.665,6.113,1.141,12.156,2.651,18.13,4.37,1.93.555,3.948,1.161,5.373,2.575,1.872,1.858,2.313,4.68,2.627,7.3,3.461,28.888,2.911,58.268.7,87.224,15.575,1.947,31.636,8.761,46.481,12.655,37.8,9.914,82.5,20.928,102.209,4.38-.487,5.11-6.992-57.006-8.78-67.78-2.853-17.184-2.624-35.145-5.608-52.016-.192-1.086-.329-2.113-.454-3.2-.058-.506.108-.787-.329-1.157,1.115.287,2.912-.915,3.967-1.378,2.685-1.178,5.561-1.69,8.341-2.681,1.73-.616,17.737-8.873,18.475-7.632A156.475,156.475,0,0,1,562.925,1468.6Z" transform="translate(-362.402 -1247.526)" fill="blue"/>
      <path d="M657.589,1253.768a183.221,183.221,0,0,0,19.665,1.431c2.708.022,5.35-.517,8.077-.5a30.115,30.115,0,0,0,5.921-.364c2.819-.526,5.687.089,8.487-.518,1.239-.269,2.3-.852,3.541-1.145a25.291,25.291,0,0,0,7.514-2.675c1.094-.639,6.119-4.412,7.052-4.3-8.81-1.028-18.705-5.309-23.224-13.4a28.037,28.037,0,0,1-2.364-6.475q-1.036-3.86-1.927-7.755c-.473-2.067-.347-4.348-.813-6.322-.07-.291-.31-.361-.382-.657a4.918,4.918,0,0,1,.018-1.057,10.347,10.347,0,0,0,.025-2.085c-.178-.8-1.074-.8-1.765-1.042a30.741,30.741,0,0,0-3.125-1.168c-1.48-.349-2.99-.57-4.456-.98-3.3-.922-6.669-1.436-9.866-2.675-4.145-1.607-8.469-2.56-12.508-4.425-.922-.426-1.7-.867-2.67-1.213a29.687,29.687,0,0,1-3.394-1.3c-1.543-.777-2.95-1.668-4.4-2.525,1.115,1.182,1,2.8,1.582,4.2.482,1.168,1.269,2.134,1.791,3.286,1.677,3.7,2.549,8.054,3.633,11.964q3.355,12.1,5.567,24.474a7.562,7.562,0,0,1,0,3.882c-.554,1.533-2,2.534-3.395,3.383a71.049,71.049,0,0,1-11.338,5.591c.4-.154,5.711,2.539,6.521,2.841A24.849,24.849,0,0,0,657.589,1253.768Z" transform="translate(-575.572 -1099.576)" fill="#f15a29"/>
      <path d="M393.035,1864.35l1.951.379c3.4.657,6.226,1.98,9.486,2.792-.382,9.48-2.815,19.328-4.247,28.741-.827,5.438-1.657,10.929-1.263,16.415.72,10.007,6.509,21.868,12.09,30.083,6.466,9.519,13.851,13.76,20.416,23.2.181.26,9.387,5.476,9.491,5.354-.721.847,2.677,12.168-11.924,18.008-22.565-10.745-45.542-30.663-63.988-47.527-6.393-5.845-4.63-12.886-4.534-20.891q.152-12.794,1.428-25.541c1.221-12.18,2.189-24.341,4.01-36.514Q379.471,1861.709,393.035,1864.35Z" transform="translate(-360.219 -1603.679)" fill="#f15a29"/>
      <path d="M566.826,889.808a126.543,126.543,0,0,1-10.793-15.717,12.955,12.955,0,0,1-1.677-3.833c-.762-3.744,1.663-7.341,4.133-10.256,9.8-11.567,30.109-30.941,46.588-21.607,8.031,4.548,13.453,12.286,17.32,20.476,2.775,5.875,8.593,15.3,8.546,21.846" transform="translate(-507.004 -829.691)" fill="url(#radial-gradient)"/>
      <path d="M610.259,976.612c.133-1.312.792-2.467.893-3.79.1-1.3-.24-2.447.077-3.752,1.121-4.6,7.5-9.022,11.207-11.568,5.7-3.916,11.29-6.808,18.462-7.453,9.337-.84,16.136,2.857,24.324,6.468,4.392,1.938,6.228,5.618,7.189,10.1.932,4.344.112,9.444,4.253,12.074,1.964,1.248,4.313,2.356,5.112,4.541,1.19,3.251-1.765,6.491-2.263,9.918-.438,3.015,1.06,5.922,1.912,8.846,2.42,8.3-.342,19.371-9,22.494-6.828,2.464-14.246,2.672-21.5,2.519a56.188,56.188,0,0,1-11.844-1.192,32.372,32.372,0,0,1-18.189-12.2c-4.529-6.077-6.442-14.034-8.655-21.161A40.08,40.08,0,0,1,610.259,976.612Z" transform="translate(-549.294 -915.946)" fill="#f15a29"/>
      <path d="M674.657,859.247c3.322-2.936,6.1-6.059,9.272-9.3,4.207-4.292,9.723-7.2,14.042-11.405,4.174-4.068,7.954-8.59,12.19-12.553,7.011-6.561,13.174-13.911,23.02-15.285,5.219-.729,11.17-.945,15.265,3.048a12.7,12.7,0,0,1,3.272,6.622c2.132,10.364-4.123,18.95-11.106,25.842a118.883,118.883,0,0,1-10.9,9.35c-1.9,1.467-3.834,2.882-5.749,4.327-.44.332-4.387,2.636-4.39,2.6-.239-2.976-2.448-5.44-5.031-6.74a20.637,20.637,0,0,0-8.618-1.746,32.147,32.147,0,0,0-8.465.632c-4.4,1.033-8.318,3.443-12.42,5.33-3.408,1.567-9.772,4.154-13.3,1.822C672.612,860.874,673.69,860.1,674.657,859.247Z" transform="translate(-595.93 -810.287)" fill="#2e3192"/>
      <path d="M572.106,1022.037a3.48,3.48,0,0,1,4.537,3.234,17.323,17.323,0,0,1-.235,3.845c-.107.988-.058,2.174.774,2.717a4.386,4.386,0,0,0,1.933.381c2.743.329,4.537,3.31,4.514,6.072s-1.386,5.316-2.755,7.715c-.574,1.006-1.406,2.148-2.561,2.049-.986-.084-1.627-1.042-2.12-1.9l-3.543-6.179c-1.314-2.292-3.108-4.879-5.749-4.887-12.061-.039,2.546,27.6,4.776,31.89,3.045,5.86,3.262,11.4-2.508,15.27-4.752,3.185-11.093,3.868-16.577,2.542a9.872,9.872,0,0,1-4.66-2.231,4.4,4.4,0,0,1-1.208-4.759c.383-.858,1.13-1.565,1.279-2.493.461-2.854-4.435-3.559-5.348-6.3-.743-2.231,1.531-4.264,3.616-5.35s4.6-2.4,4.768-4.745c.238-3.264-4.408-5.62-3.627-8.8.723-2.943,4.409-2.628,6.07-4.578,2.7-3.173-.631-4.068-1.109-7.139-.748-4.807,5.671-8.319,9.173-10.231,1.629-.889,2.936-2.115,4.454-3.136A19.867,19.867,0,0,1,572.106,1022.037Z" transform="translate(-498.149 -970.416)" fill="#1b1464"/>
      <path d="M603.773,946.254c10.135-1.906,22.415-11.9,30.687-19.281,4.333-4.105,11.65-10,13.736-15.626-5.559-1.111-11.961-.566-17.654-.773a26.634,26.634,0,0,0-8.363.58c-5.029,1.45-8.66,5.657-11.481,9.849-2.872,4.267-6.008,9.48-7.427,14.455-.723,2.533-2.073,8.128-.675,10.426C603.108,946.1,603.008,945.712,603.773,946.254Z" transform="translate(-543.152 -886.117)" fill="#f7931e"/>
      <path d="M678,868.5c6.837-1.186,19.512-10.426,24.822-15.088,9.978-8.761,21.659-31.636,29.27-35.245-6.73,2.408-15.289,9.328-20.266,14.56-7.233,7.6-12.383,13.025-19.259,20.924C689.809,856.824,682.314,866.114,678,868.5Z" transform="translate(-600.667 -816.252)" fill="#f15a24"/>
      <path d="M364.947,1828.92c.034-.613,44.2,9.978,44.2,9.978l-.805,6.711L363,1834.517Z" transform="translate(-362.323 -1581.012)" fill="#fff"/>
      <path d="M1088.761,1780.324l30.6-11.812,2.148,6.175-30.988,12.341Z" transform="translate(-911.467 -1535.324)" fill="#fff"/>
      <path d="M624.332,1412.423a84.184,84.184,0,0,0,48.737,8.909s21.224-1.048,34.849-12.315l-4.192-2.621s-14.679,9.2-30.133,9.7c-21.246.678-34.86-3.535-42.454-6.615C630.883,1409.8,624.332,1412.423,624.332,1412.423Z" transform="translate(-560.059 -1261.33)" fill="#fff"/>
      <path d="M1109.133,1891.915a6.155,6.155,0,0,1,1.64,3.142,5.747,5.747,0,0,1-.763,2.781l-6.684,13.676c.743-1.586-2.573-20.674-3.336-24.365q-2.291-11.072-3.927-22.267t-2.61-22.458c-.506-5.859.24-11.679-.9-17.42a53.253,53.253,0,0,0,16.937-6.136,23.744,23.744,0,0,1,1.371,5.552,17.326,17.326,0,0,0-8.937,7.692c-4.689,7.962-4.487,19.146-3.881,28.066C1098.809,1871.5,1102.056,1882.875,1109.133,1891.915Z" transform="translate(-914.334 -1573.424)" fill="#e6360c"/>
      <path d="M380.037,1865.192q17.922,1.353,35.911,1.406l-34.821-9.331" transform="translate(-375.214 -1602.48)" fill="#e6360c"/>
      <path d="M580.057,1695.517c9.932-3.286,19.956,7.593,30.239,5.669,5.95-1.113,10.263-6.225,15.719-8.847a20.159,20.159,0,0,1,15.285-.821c6.409,2.273,12.1,7.877,18.836,6.966,4.175-.565,7.551-3.562,11.374-5.333a20.834,20.834,0,0,1,23.932,5.258l.041,10.017c-6.228-6.458-16.993-6.048-25.083-2.169-3.471,1.663-6.8,3.9-10.618,4.379-8.773,1.11-16.424-7.247-25.262-6.949-10.157.341-17.741,11.892-27.87,11.061-4.713-.387-8.714-3.436-13.051-5.322a27.564,27.564,0,0,0-12.325-2.243" transform="translate(-526.559 -1476.214)" fill="#fff"/>
    </g>
    <path d="M739.976,1227.2c4.456,6.051,12.456,8.409,17.661,13.829a40.737,40.737,0,0,1,5.778,8.524q-1.021-6.354-2.044-12.708c.3,1.885,10.69-2.563,11.475-3.742-5.8.609-10.945,1.954-16.944.94A36.137,36.137,0,0,1,739.976,1227.2Z" transform="translate(99.622 -846.439)" fill="#e6360c"/>
    <path d="M709.938,988.624a49.45,49.45,0,0,0-25.428,19.84,13.919,13.919,0,0,0-4.928-1.535q-.659-4.963-1.318-9.925c6.165.14,11.9-2.825,17.587-5.22s12.182-4.276,17.908-1.987" transform="translate(146.317 -665.925)" fill="#e6360c"/>
  </g>
</svg>
