<svg id="Group_1632" data-name="Group 1632" xmlns="http://www.w3.org/2000/svg" width="156.963" height="282.394"
    viewBox="0 0 156.963 282.394">
    <path d="M3863.651,2629.142c-2.819-2.664-8.741-4.161-12.5-5.492-.233-5.54,1.746-12.027,2.583-17.6.785-5.233.206-9.586-.278-14.788-.521-5.613,3.638-11.829,4.6-17.34a100.79,100.79,0,0,0,.819-25.287c-.938-12.2-3.567-23.752-2.348-36.3.439-4.515.62-10.025,3.123-13.924,3.544-5.522,9.988-9.237,15.222-13,9.22-6.621,19.049-13.463,24.78-23.337l24.109.34c8.335,12.182,20.455,16.5,32.6,24.025,5.238,3.247,9.23,8.3,13.262,12.9,5.537,6.325,11.06,12.583,16.421,19.058,9.529,11.507,18.637,25.6,20.231,40.529,1.4,13.1-9.271,26.111-19.694,33.556-5.553,3.967-10.555-2.1-15.579.281-3.652,1.733-4.252,5.326-8.472,1.753-2.391-2.024-6.312-6.844-7.529-9.862,1.717-2.686,4.332-4.961,6.7-7.216,3.363-3.2,6.894-6.214,10.273-9.4,2.987-2.813,6.867-5.6,9.219-8.865-1.312-1.02-3.785-1.145-5.525-1.681a77.238,77.238,0,0,1-11.512-5.1c-3.334-1.664-7.238-3.934-10.8-4.707-1.309,5.981-1.024,12.427-2,18.557-.778,4.875-1.362,9.6-2.466,14.351-.537,2.312-4.9,11.557-4.75,11.872l-70.969.679"
        transform="translate(-3849.437 -2387.918)" fill="#1d71b8" />
    <path d="M3869.884,2592.888s-10.867,67.864-11.141,77.424c0,0,44.047-1.112,101.9,0l-16.516-77.843Z"
        transform="translate(-3849.437 -2387.918)" fill="blue" />
    <path d="M3860.734,2654.8c-4.9,2.161-8.143-4.08-10.106-7.81-4.863-9.236,6.779-12.256,6.125-20.979l7.351,3.063Z"
        transform="translate(-3849.437 -2387.918)" fill="#fff" />
    <path d="M3899.245,2447.227s-4.249-8.024-5.229-11.3c-2.629-8.767-3.642-19.645-1.49-24.141,2.952-6.175,9.665-14.5,9.665-14.5s20.672,1.343,21.478,1.611,5.1,8.054,5.1,8.054l1.644,23.953-6.477,32.426-11.459,8.3a5.14,5.14,0,0,1-7.141-1.1l-4.758-6.4Z"
        transform="translate(-3849.437 -2387.918)" fill="#fff" />
    <path d="M3891.538,2415.6s.181,7.234.9,9.223,3.256,8.138,3.256,8.138.9,2.713,2.352.9,1.989-6.691,7.232-7.776a54.629,54.629,0,0,1,11.032-.9,5.3,5.3,0,0,1,4.521,2.351c1.628,2.531,3.617,6.691,5.606,2.893s2.894-17.723,2.894-17.723l1.267,1.628s.9,27.669.18,33.275-5.064,14.83-15.01,14.468-18.085-4.521-20.436-9.223-5.064-17-5.064-29.659C3890.272,2423.2,3889.911,2417.951,3891.538,2415.6Z"
        transform="translate(-3849.437 -2387.918)" fill="blue" />
    <path d="M3894.875,2401.05a10.96,10.96,0,0,0-4.79,9.809c.456,6.615.456,7.984.456,7.984l10.95-18.25,21.671,1.369s4.562,6.844,5.931,12.547,2.053,1.14,2.053,1.14,1.444-16.145-11.938-21.751-23.872-7.053-28.393-5.244-1.266,6.872-1.266,6.872a6.931,6.931,0,0,0,3.978,1.808C3895.879,2397.515,3898.751,2398.436,3894.875,2401.05Z"
        transform="translate(-3849.437 -2387.918)" fill="blue" />
    <path d="M3905.256,2431.381s8.216-.421,11.374-.1,1.792,1.369,1.792,1.369-1.476,3.265-3.265,3.475-7.267.211-7.267.211a4.94,4.94,0,0,1-2.529-1.475,13.149,13.149,0,0,1-1.263-2.422A1.34,1.34,0,0,1,3905.256,2431.381Z"
        transform="translate(-3849.437 -2387.918)" fill="#fff" />
    <path d="M3954.968,2584.871c-2.176,1.483-3.988,3.75-6.058,5.444-1.214.993-2.69,1.98-3.352,3.448-1.33,2.949.248,10.053,2.785,12.051,8.517,3.462,12.868,5.732,16.463-2.592.566-3.062-6.719-1.976-7-5.108.97-1.3,2.95-3.143,3.784-4.54"
        transform="translate(-3849.437 -2387.918)" fill="#fff" />
    <path d="M3892.151,2467.192l5.868,20.235s1.029,2.919,2.738.57,7.528-10.721,7.528-10.721l9.408,10.389a1.791,1.791,0,0,0,2.381-.482l11.163-19.137"
        transform="translate(-3849.437 -2387.918)" fill="none" stroke="#fff" stroke-miterlimit="10"
        stroke-width="1.123" />
    <path d="M3902.734,2483.973l4.576,7.845-11.257,81.542a4.782,4.782,0,0,0,.83,3.409l3.632,4.452,5.183,5.08a1.886,1.886,0,0,0,2.641-.024l9.441-9.442a6.41,6.41,0,0,0,1.84-5.218l-8.658-80.361,4.514-7.376-7.323-7.508Z"
        transform="translate(-3849.437 -2387.918)" fill="#f9b233" />
</svg>