<svg xmlns="http://www.w3.org/2000/svg" xmlns:xlink="http://www.w3.org/1999/xlink" width="587.582" height="416.174" viewBox="0 0 587.582 416.174">
  <defs>
    <clipPath id="clip-path">
      <path d="M530.431,946.972c-73.214,6.469-148.171,11.182-214.364-23.71-87.712-46.236-91.18-112.539-79.838-134.954,16.667-32.941,43.834-32.285,69.951-35.172,29.437-3.254,66.651,14.167,95.8,13.386,13.095-.351,23.258-7.93,35.043-11.8,13.452-4.418,29.506-4.019,43.528-5.495,30.626-3.224,61.02-9.46,91.414-12.82s111-49.416,178.456-36.817c108.982,20.355,65.789,153.8,23.754,197.515-16.4,17.061-62.6,47.771-147.119,44.359C612.427,940.873,547.6,945.455,530.431,946.972Z" transform="translate(-231.581 -697.413)" fill="#fff"/>
    </clipPath>
  </defs>
  <g transform="translate(-700 -236.259)">
    <g transform="translate(700 264.486)">
      <path d="M530.431,946.972c-73.214,6.469-148.171,11.182-214.364-23.71-87.712-46.236-91.18-112.539-79.838-134.954,16.667-32.941,43.834-32.285,69.951-35.172,29.437-3.254,66.651,14.167,95.8,13.386,13.095-.351,23.258-7.93,35.043-11.8,13.452-4.418,29.506-4.019,43.528-5.495,30.626-3.224,61.02-9.46,91.414-12.82s111-49.416,178.456-36.817c108.982,20.355,65.789,153.8,23.754,197.515-16.4,17.061-62.6,47.771-147.119,44.359C612.427,940.873,547.6,945.455,530.431,946.972Z" transform="translate(-231.581 -697.413)" fill="#b6ffe8"/>
      <g transform="translate(0 0)" clip-path="url(#clip-path)">
        <path d="M2093.325,740.01a37.675,37.675,0,0,1-6.856,14.227c-5.607,7.027-12.37,7.154-20.932,7.507-13.344.55-26.449-1.285-39.774-2.131-12.159-.772-24.414-1.54-36.484.116-8.879,1.219-17.559,3.739-26.479,4.614-9.479.93-19.028-.015-28.523-.763a691.249,691.249,0,0,0-79.615-1.672c-25.177.922-50.773,1.843-75.791,4.85-35.878,4.313-71.651,9.576-107.084,16.39q-7.128,1.371-14.236,2.826c-2.385.489-10.791,3.487-12.826,2.705-2.806-1.077-2.158-5.243-2.433-8.062l-1.865-19.076c-.01-.108,60.937-6.626,64.368-7L1807.258,743.4c16.916-1.839,34.548-1.848,51.11-4.755,14.329-2.515,27.271-4.446,41.956-4.031,16.555.468,32.812,3.461,49.411,3.381,8.633-.042,17.453-.669,25.411-4.015,8.536-3.59,15.5-10.055,23.431-14.836,16.85-10.158,37.464-7.021,56.092-13.637,4.461-1.584,8.936-3.458,12.459-6.62s5.979-7.848,5.39-12.544c-.947-7.544-9.209-10.947-15.711-12.41-8.864-2-17.884-4.229-26.9-6.242-20.932-4.672-42.566-5.653-63.934-4.5-29.306,1.587-58.234,7.123-87.1,12.413-62.776,11.5-125.89,21.922-189.588,25.9-7.033.439-14.342.757-20.86-1.921,2.624-2.083,6.009-2.89,9.275-3.637q168.672-38.568,340.234-62.594c8.772-1.228,17.786-2.418,26.41-.4,12.905,3.027,22.069,16.324,28.777,26.992,8.762,13.936,14.544,29.7,18.512,45.613,2.363,9.48,3.979,19.32,2.731,29.01A45.69,45.69,0,0,1,2093.325,740.01Z" transform="translate(-1455.531 -640.474)" fill="#b6ffe8"/>
        <path d="M3610.543,1648.927c12.668-.31,22.531-6.085,27.879-14.869s7.839-16.78,16.135-22.857a26.159,26.159,0,0,1,24-3.4c-4.428-13.562.88-29.707,12.492-38,6.524-4.657,15.29-6.846,22.723-3.845,9.388,3.79,14.151,14.839,13.742,24.955s-4.894,19.561-9.293,28.679c4.151-3.9,8.8-8.024,14.491-8.336s11.707,5.689,9.117,10.761a44.643,44.643,0,0,1,16.207-9.468c3.761-1.23,7.866-1.948,11.656-.813s7.111,4.544,7.082,8.5c-.025,3.4-2.352,6.3-3.536,9.484-1.24,3.342-1.13,7.328.94,10.23s6.3,4.286,9.43,2.576" transform="translate(-3272.091 -1509.772)" fill="#fff"/>
        <path d="M3659.2,849.3a232.043,232.043,0,0,1,24.535-14.513c7.04-3.6,16-6.711,22.376-2.03a69.9,69.9,0,0,1,26.841-20.478c5.136-2.212,11.148-3.769,16.2-1.375,8.165,3.867,8.912,15,8.477,24.019a181.73,181.73,0,0,1,18.525-9.43c4.187-1.838,10.44-2.752,12.118,1.5,1.035,2.623-.575,5.825.723,8.329,1.335,2.573,4.827,2.883,7.725,2.858l21.46-.192" transform="translate(-3281.357 -646.967)" fill="#fff"/>
        <path d="M3659.2,849.3a232.043,232.043,0,0,1,24.535-14.513c7.04-3.6,16-6.711,22.376-2.03a69.9,69.9,0,0,1,26.841-20.478c5.136-2.212,11.148-3.769,16.2-1.375,8.165,3.867,8.912,15,8.477,24.019a181.73,181.73,0,0,1,18.525-9.43c4.187-1.838,10.44-2.752,12.118,1.5,1.035,2.623-.575,5.825.723,8.329,1.335,2.573,4.827,2.883,7.725,2.858l21.46-.192" transform="translate(-3247.357 -805.967)" fill="#fff"/>
      </g>
    </g>
    <path d="M232.7,690.974c-8.3,22.342-.121,64.421,10.561,84.979s27.182,34.805,44.231,45.959c33.511,21.923,70.369,33.779,107.267,42.6a737.841,737.841,0,0,0,107.788,17.5c29.568,2.565,41.721,1.929,70.843-5.2,58.97-14.436,81.365-120.909,68.663-192.791-9.694-54.858-49.175-94.361-92.594-95.148-45.216-.82-64.339,24.256-106.832,44.359-25.86,12.234-44.53,20.736-79.468,24.279C342.241,659.63,266.328,600.419,232.7,690.974Z" transform="translate(529.4 -340.611)" fill="#b6ffe8" style="mix-blend-mode: multiply;isolation: isolate"/>
    <path d="M1963.905,482.337l.575.575" transform="translate(-1036.557 -246.078)" fill="#f15a24"/>
    <g transform="translate(785.178 267)">
      <path d="M2558.842,981.8c1.837-8.174,9.449-13.984,17.461-16.434s16.551-2.229,24.922-2.618c12.471-.581,25.315-2.736,35.714-9.645,4.241-2.818,7.97-6.36,12.258-9.1,10.8-6.913,21.887-5.442,33.454-8.818,13.041-3.8,4.861-8.295,5.282-17.924.172-3.932,4.122-6.485,7.689-8.153a113.425,113.425,0,0,1,46.7-10.572c7.373-.077,15.026.314,22.161,2.163,7.3,1.891,14.254,5.068,21.911,5.346-18.151,49.372-96.55,109.185-128.123,159.6" transform="translate(-2402.427 -798.946)" fill="blue"/>
      <path d="M2141.767,1125.523c17.824-7.879,46.9-9.938,69.05-14.919a89.331,89.331,0,0,0,15.676-4.721c13.888-6.078,11.387-16.078,33.53-18.88,16.687-2.111,35.154-.288,51.888.8,10.677.692,27.779,2.073,30.975,7.091,12.524-2.76,26.561,2.136,38.232,4.3,13.872,2.56,27.223,6.058,34.968,11.686,9.24,6.715,13.009,13.768,4.217,20.588-21.616,16.763-10.808,66.058-56.914,72.9C2288.3,1212.91,2130.5,1160.7,2141.767,1125.523Z" transform="translate(-2122.613 -919.803)" fill="blue"/>
      <path d="M2401.5,771.445c-3.317-8.248-10.979-14.086-14.553-22.393-4.763-11.068-9.3-23-10.052-35.141-.453-7.394.137-15.987,3.581-22.573,5.408-10.339,17.069-15.421,27.693-18.313,1.813-.494,2.994-1.124,4.778-1.6,3.363-.889,6.856-.051,10.176.353,7.982.972,15.722.675,23.619,2.8a48.036,48.036,0,0,1,31.009,27.125c1.837,4.2,1.493,8.718.955,13.151-.514,4.247-2.212,8.155-1.582,12.5a8.075,8.075,0,0,0,1.044,3.187,10.716,10.716,0,0,0,2.718,2.618q3.41,2.594,6.743,5.287a7.656,7.656,0,0,1,1.92,1.988c1.027,1.767.5,4.058-.538,5.821-1.815,3.1-4.555,5.493-5.15,9.193a27.135,27.135,0,0,0,.028,6.591q.792,9.149,1.579,18.3c.246,2.848.432,5.943-1.146,8.326a12.176,12.176,0,0,1-3.008,2.868,21.572,21.572,0,0,1-11.479,4.767,76.443,76.443,0,0,1-14.769-.011c-.46,15.3,4.6,28.284,10.454,43.307-21.5-4.715-51.707-4-64.265-6.018q2.238-24.34,2.122-48.82a41.08,41.08,0,0,0-1.1-11.046A22.522,22.522,0,0,0,2401.5,771.445Z" transform="translate(-2285.067 -652.314)" fill="#f7931e"/>
      <path d="M2377,717.059q.442.53.866,1.071a48.556,48.556,0,0,1-3.531-8.414c-.833-2.662-1.415-5.638-.241-8.17,1.281-2.768,4.326-4.261,7.269-5.062a6.651,6.651,0,0,1,3.188-.269c2.458.559,3.682,3.357,3.983,5.86s.091,5.172,1.271,7.4a3.4,3.4,0,0,0,2.066,1.837c3.518.826,5.791-8.18,6.324-10.53a68.535,68.535,0,0,0,1.006-25.745c-1.465-9.266-5.315-16.513-10.533-24.1,1.56-1.147,2.347-.233,3.807.184a22.008,22.008,0,0,0,6.137.683c4.784.035,9.564-.217,14.342-.448,5.045-.244,39.954,1.682,41.165-2.128.459-1.441-5.62-11.662-6.456-13.431a30.224,30.224,0,0,0-40.223-14.676c-3.732,1.734-7.064,4.2-10.625,6.264a54.8,54.8,0,0,1-34.071,6.878c2.26,5.876,8.942,13.158,15.784,13.172-11.565,5.744-18.187,17.333-18.267,30.084a63.086,63.086,0,0,0,2.968,18.232,50.5,50.5,0,0,0,2.83,7.638C2368.583,708.62,2373.257,712.576,2377,717.059Z" transform="translate(-2274.428 -618.366)" fill="#1b1464"/>
      <path d="M2734.086,697.95c10.007,2.107,20.732,2.319,30.9,4.31,24.967,4.891,50.07,7.27,74.759,14.427,18.24,5.287,42.824,12.367,55.079,26.979,10.1,12.045,7.53,28.21-1.2,39.048-13.6,16.879-49.6,2.659-67.238-4.038-9.707-3.685-17.471-10.68-26.744-15.141-8.62-4.147-18.008-2.467-25.91-5.968-7.732-3.427-10.361-13.966-17.579-18.645-6.5-4.213-17.765-.495-22.977-5.391-3.079-2.892-.047-18.978.121-22.993C2733.467,706.277,2733.128,701.924,2734.086,697.95Z" transform="translate(-2513.906 -669.663)" fill="blue"/>
      <path d="M2423.787,1353.221c1.024,6.7,5.948,15.8,8.54,20.266,17.4-2.9,34.841-10.666,44.719-25.919,6.9-10.66,10.106-23.4,10.88-36.077.466-7.646.127-15.535,2.836-22.7,2.329-6.157,6.746-11.3,9.554-17.258,4.449-9.434,4.6-20.246,4.668-30.677.046-6.93.44-13.7.785-20.682a63.345,63.345,0,0,0,4.941-7.659,4.251,4.251,0,0,0,.694-2.118,4.4,4.4,0,0,0-.958-2.214q-5.5-8.132-11.008-16.265c-.165,4.112-2.755,7.749-3.453,11.805a13.245,13.245,0,0,0,2.82,10.552,5.016,5.016,0,0,1,1.39,2.287,4.114,4.114,0,0,1-.331,1.922,123.878,123.878,0,0,1-16.475,31.82c-8.029,10.816-18.3,21.418-20.173,35.355-1.231,9.171,1.394,19.152-2.881,27.359-3.858,7.408-12.158,11.086-19,15.873-6.168,4.313-15.334,12.151-17.456,19.752A11.121,11.121,0,0,0,2423.787,1353.221Z" transform="translate(-2315.255 -988.054)" fill="#fff"/>
      <path d="M2455.844,715.067c8.979,2.957,17.794,6.4,26.847,9.2,8.312,2.566,17.16,6.071,25.922,6.275,4.1.1,9.146.05,11.119,3.649a8.335,8.335,0,0,1,.529,5.41c-.459,2.676-1.436,5.242-1.9,7.918s-.344,5.615,1.2,7.848a57.127,57.127,0,0,0-32.755-15.762,25.841,25.841,0,0,0-10.621.513c-4.993,1.513-7.879,5.6-9.547,10.361-5.114,14.6-.391,31.318,8.989,43.621a80.466,80.466,0,0,0,17.328,16.4c3.32,2.378,6.773,4.565,10.3,6.617,1.663.967,3.367,1.853,5.057,2.754,1,.531,3.479,2.377,4.695,1.924-4.272,1.59-9.014.51-13.568.673a2.87,2.87,0,0,0-1.67.432c-.805.615-.791,1.809-.7,2.819q.6,6.745,1.206,13.489c-5.436-6.761-10.009-14.652-16.306-20.661a85.618,85.618,0,0,0-21.026-14.467,12.039,12.039,0,0,0-5.232-1.617c-7.54,0-4.531,13.394-3.93,17.85a264.313,264.313,0,0,0,8.532,39.788,46.9,46.9,0,0,0-17.744-.24q1.771-20.994,2.182-42.073c.221-11.354-3.143-22.258-1.16-33.612,1.368-7.836,4.472-15.279,5.983-23.089,1.5-7.752,2.283-15.566,1.275-23.4-.667-5.17-2.055-10.107-3.108-15.19-.994-4.8-3.026-7.67-6.214-11.512C2446.385,712.1,2451.136,713.517,2455.844,715.067Z" transform="translate(-2326.813 -678.063)" fill="#f15a24"/>
      <path d="M2520.88,736.347a34.421,34.421,0,0,1,5.433.168c5.357.592,9.8,3.625,15.172,2.413,11.774-2.659,22.12-14.923,35.09-6.13,1.046-6.164,2.075-13.419,1.777-19.9-.07-1.52-20.527-2.1-23.755-2.4-5.361-.51-11.078-1.234-16.426-.86a144.134,144.134,0,0,0-16.954,2.55c-4.869.931-9.966,2.451-14.9,2.852a86.8,86.8,0,0,1-13.918-.412,1.88,1.88,0,0,0-.947.082,1.278,1.278,0,0,0-.447,1.682c.611,1.317,2.977,2.878,4.145,3.7a28.2,28.2,0,0,0,5.516,2.83,143.5,143.5,0,0,0,22.475,7.122A43.8,43.8,0,0,0,2513,733.159c-2,.9-4.051,2.056-5.053,4.007a1.474,1.474,0,0,0-.127,1.406c.417.684,1.449.441,2.191.14A33.257,33.257,0,0,1,2520.88,736.347Z" transform="translate(-2358.614 -677.124)" fill="#f7931e"/>
      <path d="M2638.881,843.157c2.745,7.933-.7,17.032-6.7,22.9s-14.142,9.014-22.249,11.185c-24.918,6.672-52.005,5.63-75.327,16.656-2.6,1.229-5.393,2.925-6.04,5.727,8.922,1.408,18.017-.127,27.049-.2s18.778,1.68,25.032,8.2a5.847,5.847,0,0,1,1.723,2.849c.516,2.787-2.4,4.912-4.974,6.091-23.6,10.793-48.707,6.082-73.5,5.488-25.161-.6-49.36,7.659-74.041,6.623a57.312,57.312,0,0,1,35.606,40.2q-16.348-9.418-32.064-19.88c2.649,14.187-3.586,29.715-8.788,42.777-32.638-9.57-51.653-36.679-85.639-35.375" transform="translate(-2251.668 -763.257)" fill="none" stroke="#a0edfc" stroke-linecap="round" stroke-miterlimit="10" stroke-width="2"/>
    </g>
  </g>
</svg>
