<svg id="Component_134_1" data-name="Component 134 – 1" xmlns="http://www.w3.org/2000/svg" xmlns:xlink="http://www.w3.org/1999/xlink" width="794.644" height="398.366" viewBox="0 0 794.644 398.366">
  <defs>
    <clipPath id="clip-path">
      <path id="Path_945" data-name="Path 945" d="M635.745,1034.915c-99.015,8.748-200.386,15.122-289.9-32.066C227.218,940.32,222.53,850.652,237.868,820.338c22.541-44.549,59.281-43.662,94.6-47.567,39.811-4.4,90.139,19.159,129.566,18.1,17.709-.474,31.454-10.725,47.392-15.959,18.193-5.975,39.9-5.435,58.866-7.431,41.418-4.36,82.523-12.794,123.628-17.338s150.114-66.83,241.343-49.791c147.387,27.528,88.973,208,32.125,267.119-22.186,23.073-84.662,64.606-198.964,59.991C746.636,1026.667,658.964,1032.864,635.745,1034.915Z" transform="translate(-231.581 -697.413)" fill="#fff"/>
    </clipPath>
    <clipPath id="clip-path-2">
      <rect id="Rectangle_509" data-name="Rectangle 509" width="714.755" height="293.365" transform="translate(3580.741 2372.63)" fill="none"/>
    </clipPath>
    <clipPath id="clip-path-3">
      <path id="Path_1089" data-name="Path 1089" d="M4096.236,2611.032c28.873,7.485,90.894,2.851,90.894,2.851,23.467-2.38,35.814-2.539,39.139-19.533,2.336-11.94-2.1-23.71-4.563-35.28-2.558-12-1.457-23.536-2.139-35.743-.488-8.686-2.913-16.876-9.685-22.873a73.545,73.545,0,0,0-10.969-8.04c-4.275-2.534-10.16-7.082-14.991-7.921l-52.4-.357c-5.061.5-12.5,4.9-16.952,7.321-3.628,1.979-7.576,5.39-8.712,9.432" fill="none"/>
    </clipPath>
    <clipPath id="clip-path-4">
      <path id="Path_1090" data-name="Path 1090" d="M3982.6,2462.4s4.281,91.225,4.407,127.549c4.783,3.189,7.573,1.993,10.363,2.392,4.782-57.392,17.259-117.495,19.353-127.6,0,0-12.81,8.82-18.008,10.357Z" fill="none"/>
    </clipPath>
    <clipPath id="clip-path-5">
      <path id="Path_1091" data-name="Path 1091" d="M3809.4,2479.991s3.026-4.676,2.2-8.526-1.926-9.627-1.926-9.627a34.8,34.8,0,0,1-13.571-22.7c-2.262-15.213,8.634-21.792,8.634-21.792l3.084-2.261s5.551,5.756,7.812,6.578,11.513,3.7,13.363,6.374,0,18.708-5.345,27.548c0,0-1.85,3.289-.411,5.139s6.374,11.307,6.374,11.307l4.728,1.645s-1.851,12.13-14.6,12.335S3809.4,2479.991,3809.4,2479.991Z" fill="none"/>
    </clipPath>
  </defs>
  <g id="Group_1624" data-name="Group 1624" transform="translate(-327 -319.446)">
    <g id="Group_1549" data-name="Group 1549" transform="translate(327 341.418)">
      <path id="Path_941" data-name="Path 941" d="M635.745,1034.915c-99.015,8.748-200.386,15.122-289.9-32.066C227.218,940.32,222.53,850.652,237.868,820.338c22.541-44.549,59.281-43.662,94.6-47.567,39.811-4.4,90.139,19.159,129.566,18.1,17.709-.474,31.454-10.725,47.392-15.959,18.193-5.975,39.9-5.435,58.866-7.431,41.418-4.36,82.523-12.794,123.628-17.338s150.114-66.83,241.343-49.791c147.387,27.528,88.973,208,32.125,267.119-22.186,23.073-84.662,64.606-198.964,59.991C746.636,1026.667,658.964,1032.864,635.745,1034.915Z" transform="translate(-231.581 -697.413)" fill="#b6ffe8"/>
      <g id="Group_1548" data-name="Group 1548" transform="translate(0 0)" clip-path="url(#clip-path)">
        <path id="Path_942" data-name="Path 942" d="M2252.925,778.117a50.951,50.951,0,0,1-9.273,19.24c-7.583,9.5-16.729,9.675-28.308,10.152-18.046.744-35.77-1.738-53.79-2.882-16.443-1.044-33.018-2.083-49.341.157-12.009,1.648-23.747,5.057-35.81,6.24-12.82,1.258-25.733-.02-38.574-1.032a934.823,934.823,0,0,0-107.672-2.262c-34.049,1.247-68.665,2.493-102.5,6.56-48.521,5.833-96.9,12.951-144.82,22.165q-9.64,1.854-19.252,3.821c-3.225.661-14.594,4.715-17.346,3.659-3.795-1.456-2.918-7.091-3.291-10.9l-2.523-25.8c-.014-.145,82.411-8.961,87.051-9.466L1866.049,782.7c22.877-2.487,46.723-2.5,69.121-6.43,19.378-3.4,36.882-6.013,56.741-5.451,22.388.633,44.375,4.68,66.823,4.572,11.675-.056,23.6-.9,34.366-5.43,11.545-4.855,20.962-13.6,31.688-20.064,22.787-13.737,50.667-9.5,75.859-18.443,6.033-2.143,12.085-4.677,16.85-8.953s8.086-10.614,7.289-16.965c-1.281-10.2-12.454-14.8-21.248-16.784-11.987-2.7-24.186-5.719-36.384-8.442-28.309-6.319-57.566-7.645-86.464-6.079-39.633,2.147-78.755,9.633-117.8,16.788-84.9,15.558-170.253,29.647-256.4,35.027-9.511.594-19.4,1.023-28.211-2.6,3.549-2.817,8.127-3.908,12.544-4.918q228.111-52.159,460.132-84.651c11.864-1.661,24.054-3.27,35.717-.535,17.453,4.094,29.847,22.076,38.917,36.5,11.85,18.846,19.67,40.161,25.035,61.687,3.2,12.821,5.381,26.128,3.693,39.233A61.778,61.778,0,0,1,2252.925,778.117Z" transform="translate(-1390.375 -643.505)" fill="#b6ffe8"/>
        <path id="Path_943" data-name="Path 943" d="M3610.543,1678.651c17.132-.419,30.471-8.23,37.7-20.108s10.6-22.693,21.821-30.912a35.377,35.377,0,0,1,32.456-4.6c-5.988-18.342,1.19-40.176,16.894-51.386,8.823-6.3,20.678-9.259,30.73-5.2,12.7,5.126,19.137,20.069,18.585,33.75s-6.619,26.454-12.569,38.785c5.614-5.273,11.907-10.851,19.6-11.273s15.833,7.694,12.33,14.553a60.379,60.379,0,0,1,21.918-12.8c5.086-1.663,10.638-2.634,15.764-1.1s9.616,6.145,9.577,11.5c-.033,4.6-3.181,8.514-4.782,12.826-1.677,4.519-1.528,9.91,1.271,13.834s8.525,5.8,12.753,3.484" transform="translate(-3152.822 -1490.459)" fill="#fff"/>
        <path id="Path_944" data-name="Path 944" d="M3659.195,863.259a313.837,313.837,0,0,1,33.181-19.628c9.521-4.868,21.643-9.075,30.261-2.745a94.53,94.53,0,0,1,36.3-27.694c6.946-2.991,15.077-5.1,21.911-1.86,11.042,5.23,12.053,20.28,11.464,32.483a245.8,245.8,0,0,1,25.053-12.754c5.662-2.485,14.12-3.722,16.389,2.03,1.4,3.548-.778,7.877.978,11.263,1.805,3.48,6.528,3.9,10.448,3.865l29.022-.259" transform="translate(-3148.209 -589.619)" fill="#fff"/>
        <path id="Path_1077" data-name="Path 1077" d="M3659.195,863.259a313.837,313.837,0,0,1,33.181-19.628c9.521-4.868,21.643-9.075,30.261-2.745a94.53,94.53,0,0,1,36.3-27.694c6.946-2.991,15.077-5.1,21.911-1.86,11.042,5.23,12.053,20.28,11.464,32.483a245.8,245.8,0,0,1,25.053-12.754c5.662-2.485,14.12-3.722,16.389,2.03,1.4,3.548-.778,7.877.978,11.263,1.805,3.48,6.528,3.9,10.448,3.865l29.022-.259" transform="translate(-3102.227 -804.65)" fill="#fff"/>
      </g>
    </g>
    <path id="Path_946" data-name="Path 946" d="M233.9,726.962c-11.219,30.215-.164,87.122,14.283,114.926S284.947,888.959,308,904.043c45.32,29.649,95.167,45.683,145.068,57.61a997.842,997.842,0,0,0,145.772,23.664c39.987,3.469,56.424,2.609,95.808-7.032,79.75-19.524,110.038-163.517,92.86-260.729-13.11-74.19-66.5-127.613-125.224-128.678-61.15-1.109-87.012,32.8-144.479,59.991-34.973,16.545-60.222,28.043-107.472,32.835C382.041,684.573,279.376,604.5,233.9,726.962Z" transform="translate(213.699 -269.404)" fill="#b6ffe8" style="mix-blend-mode: multiply;isolation: isolate"/>
  </g>
  <g id="Group_1634" data-name="Group 1634" transform="translate(-3540.741 -2267.63)">
    <g id="Group_1633" data-name="Group 1633" clip-path="url(#clip-path-2)">
      <g id="Group_1633-2" data-name="Group 1633">
        <g id="Group_1618" data-name="Group 1618">
          <path id="Path_1089-2" data-name="Path 1089" d="M3624.459,2608.228s-10.079,36.787-3.188,58.937l101.737.866-7.8-56.86Z" fill="#1d71b8"/>
          <g id="Group_1617" data-name="Group 1617">
            <path id="Path_1090-2" data-name="Path 1090" d="M3613.132,2484.953l-1.168-18.69a5.49,5.49,0,0,1,4.967-5.81l45.706-4.3,1.5,26.1Z" fill="#2b51ba"/>
            <g id="Group_1616" data-name="Group 1616">
              <path id="Path_1091-2" data-name="Path 1091" d="M3651.907,2433.207a7,7,0,0,1-4.736-4.886c-.329-1.282-.281-2.634-.563-3.928-.538-2.474-2.215-4.513-3.523-6.68s-2.285-4.865-1.287-7.192c.611-1.426,1.864-2.46,2.793-3.7,1.722-2.3,2.281-5.239,3.138-7.985s2.255-5.6,4.861-6.821c3.5-1.639,7.83.272,11.424-1.147a19.38,19.38,0,0,0,3.5-2.156,13.534,13.534,0,0,1,7.243-2.492,8.263,8.263,0,0,1,6.775,3.156c1.094,1.519,1.547,3.467,2.836,4.825,1.62,1.706,4.163,2.09,6.215,3.24a9.215,9.215,0,0,1,4.593,7.1c.257,2.911-.9,5.852-.386,8.729.614,3.458,3.574,6.6,2.709,10-.645,2.537-3.248,4.171-4.055,6.662-.308.951-.335,1.977-.667,2.92a4.845,4.845,0,0,1-4.282,3.15" fill="#2b51ba"/>
              <path id="Path_1092" data-name="Path 1092" d="M3621.173,2571.87c5.684-18.042-15.952-49.027-12.667-67.705,2.848-16.191,8.083-29.8,24.461-35.551,4.044-1.421,8.095-2.843,12.247-3.909,14.482-3.72,29.941-2.969,44.322,1.13,11.188,3.19,22.342,8.85,28.542,18.7,5.907,9.383,4.243,19.629,7.666,29.5,3.615,10.429,3.572,22.055,3.7,33.061.177,14.758-.084,29.523-.879,44.265a13.646,13.646,0,0,1-.85,4.786c-1.542,3.517-7.369,14.905-11.453,15.2-62.135,4.53-96.762,22.329-99.89-9.571C3616.374,2601.773,3615.651,2589.4,3621.173,2571.87Z" fill="blue"/>
              <path id="Path_1093" data-name="Path 1093" d="M3664.251,2449.119c4.551,4.636,9.595,5.37,15.593-.083,6.678-6.071,8.507-15.583,8.7-24.1.087-3.844,1.158-8.961.337-12.617-1.053-4.694-5.981-8.614-10.257-10.192-5.588-2.062-11.913-1.452-17.469.7a14.65,14.65,0,0,0-6.556,4.411,14.366,14.366,0,0,0-2.477,6.883,33.138,33.138,0,0,0-.192,6.7C3652.382,2427.212,3657.126,2441.858,3664.251,2449.119Z" fill="#e94e1b"/>
              <path id="Path_1094" data-name="Path 1094" d="M3660.007,2437.717a73.968,73.968,0,0,1,.517,15.541c-.733,8.6-5.9,8.907-10.39,10.131,3.678,5.737,13,10.153,19.81,10.487s16.251-2.968,20.473-8.316c-3.338-.306-8.4-3.3-9.07-6.583s-.124-10.684.624-13.952" fill="#e94e1b"/>
              <path id="Path_1095" data-name="Path 1095" d="M3652.089,2411.531c1.258,1.68,3.874,1.349,5.8.514s3.938-2.032,5.976-1.527c2.337.58,3.819,3.249,6.212,3.519,2.58.29,4.665-2.349,7.254-2.511,3.072-.192,5.567,3.124,8.633,2.85a4.776,4.776,0,0,0,3.906-3.472,7.99,7.99,0,0,0-.551-5.407c-2.272-5.211-7.913-8.2-13.48-9.348a33.7,33.7,0,0,0-16.512.741,19.038,19.038,0,0,0-8.262,4.618,10.3,10.3,0,0,0-3.044,8.7" fill="#2b51ba"/>
            </g>
            <path id="Path_1096" data-name="Path 1096" d="M3635.717,2465.621s21.917,73.158-17.971,110.7l.686,10.069s47.573-13.47,25.192-123.4Z" fill="#2b51ba"/>
            <path id="Path_1097" data-name="Path 1097" d="M3635.959,2548.3s9.137-8.306,12.737-4.153,1.661,5.538,1.661,5.538,1.108,6.091-.277,8.583,1.939,4.43-4.707,4.153-15.782.277-15.782.277l-2.769-14.675A17.742,17.742,0,0,0,3635.959,2548.3Z" fill="#e94e1b"/>
            <path id="Path_1098" data-name="Path 1098" d="M3623.425,2474.516c-5.249,2.3-8.315,7.712-11.016,12.773l-21.681,40.625c-4.287,8.034-8.692,16.539-8.445,25.644a18.859,18.859,0,0,0,3.362,10.752c3.257,4.383,8.641,6.543,13.788,8.357a67.843,67.843,0,0,0,17.3,3.208c6.444.483,11,.7,12.141-7.031,1.776-12.015-1.214-24.146-2.538-36.219a132.34,132.34,0,0,1,1.022-36.2" fill="blue"/>
          </g>
        </g>
        <g id="Group_1620" data-name="Group 1620">
          <path id="Path_1099" data-name="Path 1099" d="M4191.911,2592.888s-10.866,67.864-11.141,77.424c0,0,44.048-1.112,101.9,0l-16.516-77.843Z" fill="blue"/>
          <g id="Group_1619" data-name="Group 1619">
            <path id="Path_1100" data-name="Path 1100" d="M4170.271,2582.78c-.389-14.067-1.979-28.071-2.31-42.139-.312-13.242,3.969-26.81,7.332-39.647.82-3.132,1.736-6.353,3.789-8.856,3.1-3.779,8.163-5.214,12.92-6.338,11.083-2.617,22.315-5.705,33.7-6.122,22.963-.839,51.817,5.144,63.819,26.231,7.134,12.532,6.6,25.052,7.268,38.836.571,11.754.991,26.522-1.8,37.979-1.248,5.123-3.564,10.315-2.4,15.459.833,3.7,3.434,7.2,2.651,10.9-.638,3.023-3.475,5.562-3.025,8.618.221,1.5,1.246,2.894,1.043,4.4-.263,1.955-2.384,3.016-4.251,3.656a65.716,65.716,0,0,1-12.637,2.972q-.654-16.124-2.144-32.2c.565,3.232-1.267,14.338-1.55,17.607-28.054,12.338-64.145-19.865-100.142-16.424-3.264.312,3.028-.745.348-2.634S4170.361,2586.057,4170.271,2582.78Z" fill="#f9b233"/>
            <path id="Path_1101" data-name="Path 1101" d="M4252.929,2439.925a35.557,35.557,0,0,0,.431-8.485c-.742-7.786-6.082-14.6-12.942-16.832-7.853-2.559-14.953.739-19.568,7.268-5.68,8.038-6.427,17.867-4.51,27.335a23.7,23.7,0,0,0,2.983,8.086c5.29,8.31,15.335,10.61,23.047,4.172C4248.559,2456.3,4251.8,2447.7,4252.929,2439.925Z" fill="#0060bf"/>
            <path id="Path_1102" data-name="Path 1102" d="M4221.313,2456.862c.018-.568.6.054.621.621.129,3.208,1.6,6.023,1.42,9.184-.265,4.543-1.53,7.923-5.375,10.317a33.65,33.65,0,0,1-14.932,4.97c.457-.038,4.91,5.932,5.653,6.625a40.3,40.3,0,0,0,7.322,5.417c4.834,2.8,11.586,5.657,17.309,5.242,2.34-.17,4.785-1.186,7.095-1.669a33.933,33.933,0,0,0,8.461-2.955,32.407,32.407,0,0,0,13.066-12.007l-12.962-2.681c-3.649-.755-7.8-1.9-9.365-5.279a10.336,10.336,0,0,1-.539-5.42,36.6,36.6,0,0,1,2.835-10.759" fill="#0060bf"/>
            <path id="Path_1103" data-name="Path 1103" d="M4264.64,2400.378a11.623,11.623,0,0,0-2.164-4.905,15.637,15.637,0,0,0-7.433-4.977c-5.013-1.725-10.848-1.632-15.328,1.2-5,3.165-7.943,10.308-6,16.05s8.91,9.188,14.66,9.188,11.486-2.1,14.6-7.2A13.373,13.373,0,0,0,4264.64,2400.378Z" fill="blue"/>
            <path id="Path_1104" data-name="Path 1104" d="M4253.178,2441.716a19,19,0,0,0,2.246-14.838c-1.437-5.377-5.014-8.146-8.792-11.806a20.721,20.721,0,0,0-14.724-5.9c-8.362.054-9.481,5.36-7.082,12.159a26.359,26.359,0,0,0,17.688,16.845,9.376,9.376,0,0,0-2.052-5.978c1.223-.38,2.5.559,3.138,1.666s.9,2.407,1.538,3.515C4246.71,2440.1,4250.116,2441.028,4253.178,2441.716Z" fill="blue"/>
            <path id="Path_1105" data-name="Path 1105" d="M4215.727,2445.3a4.789,4.789,0,0,1-4.263-3.113,11.2,11.2,0,0,1-.49-5.53,5.706,5.706,0,0,1,.728-2.579,3.9,3.9,0,0,1,3.021-1.616,7.6,7.6,0,0,1,3.445.717" fill="#0060bf"/>
            <path id="Path_1106" data-name="Path 1106" d="M4247.907,2452.847a3.256,3.256,0,0,0,4.154-.017,9.479,9.479,0,0,0,2.564-3.692c.534-1.114,1.078-2.387.64-3.542-.556-1.469-2.354-1.953-3.9-2.236" fill="#0060bf"/>
            <path id="Path_1107" data-name="Path 1107" d="M4214.2,2425.617c-.251,3.81.681,8.2,2.981,11.127-.249-.317,3.987-7.4,4.367-8.261,1.762-3.988,3.173-6.886,3.77-11.3a1.931,1.931,0,0,0-.139-1.324,1.711,1.711,0,0,0-1.265-.609,7.974,7.974,0,0,0-6.564,2.493,11.789,11.789,0,0,0-3,6.5C4214.28,2424.689,4214.231,2425.149,4214.2,2425.617Z" fill="blue"/>
            <path id="Path_1108" data-name="Path 1108" d="M4225.562,2450.544a7.876,7.876,0,0,0,13.83,2.043" fill="#fff"/>
            <path id="Path_1109" data-name="Path 1109" d="M4275.567,2614.827l-6.553,1.092L4255.657,2480.9l6.458,1.435Z" fill="#fff"/>
          </g>
          <path id="Path_1110" data-name="Path 1110" d="M4270.793,2616.525s12-4.941,13.763-1.765,10.94,44.466,10.94,44.466-8.469,3.882-14.821,5.293Z" fill="#e94e1b"/>
        </g>
        <g id="Group_1621" data-name="Group 1621">
          <path id="Path_1111" data-name="Path 1111" d="M3721.306,2484.561s-16.186-2.158-18.561-12.085-1.941-20.934-.215-24.6,10.143-7.121,10.143-7.121,6.259-2.374,7.553-6.259,6.69-17.049,9.927-19.423,6.259-6.258,20.286-4.748,17.049,9.5,17.049,9.5a38.444,38.444,0,0,1,1.295,11.654c-.431,5.611-1.079,13.38.216,15.322s9.712,3.453,9.712,3.453,6.69,2.158,8.416,6.475,1.727,27.623-11.222,34.313C3775.258,2491.251,3721.306,2484.561,3721.306,2484.561Z" fill="#f9b233"/>
          <path id="Path_1112" data-name="Path 1112" d="M3712.63,2568.731s-13.469,57.1-11.482,101.581h85.9s-4.509-75.368-8.48-98.8Z" fill="#36a9e1"/>
          <path id="Path_1113" data-name="Path 1113" d="M3723.671,2622.927s-25.763-35.912-26.935-44.89-.78-55.429-.78-61.285-.391-18.736,5.074-23.03,21.079-10.93,21.079-10.93,22.64,4.684,32.4.39l20.688,5.075s8.588,2.732,10.93,16.4,8.588,78.46,8.588,78.46-.781,9.758-15.224,23.03-26.544,19.908-26.544,19.908l-10.929-10.539s5.446-4.837,5.964-7.69a31.475,31.475,0,0,1,4.409-9.854c1.3-1.556,14.263-21.006,14.263-21.006l-44.6-2.074,16.6,39.936-12.188,8.817S3725.811,2626.364,3723.671,2622.927Z" fill="#1d71b8"/>
          <path id="Path_1114" data-name="Path 1114" d="M3732.7,2469.955l.357-7.67a14.5,14.5,0,0,0-1.962-3.745c-1.249-1.6-9.453-6.956-4.281-28.537,0,0,20.155,1.783,32.64,5.172,0,0-.179,12.842-3.211,16.944s-4.815,4.459-4.815,4.459a10.423,10.423,0,0,0-.714,2.854c0,1.07.179,8.026.179,8.026s-7.848,5.172-10.88,4.637A52.125,52.125,0,0,1,3732.7,2469.955Z" fill="#fff"/>
          <path id="Path_1115" data-name="Path 1115" d="M3752.946,2626.05l-9.634-8.663-3.531,3.027-3.027-4.036s-7.9,4.876-9.248,7.23l4.371,8.744a57.957,57.957,0,0,1-1.345,6.054c-.336.5-1.177,2.522.337,2.186s3.363-4.708,3.363-4.708.672,9.08,1.345,10.257.168,3.531,2.522,2.522,4.2-4.372,4.2-4.372,3.363,1.513,5.044-.168,3.2-8.071,2.859-13.452" fill="#fff"/>
          <path id="Path_1116" data-name="Path 1116" d="M3726.671,2467.71s11.815,4.66,14.145,3.994,10.076-4.246,10.076-4.246,2.9-1.578,4.734-.247-.333,16.308-.333,16.308-20.938,5.036-33.184-.727c0,0-.431-10.922.9-12.752A6.767,6.767,0,0,1,3726.671,2467.71Z" fill="#36a9e1"/>
          <path id="Path_1117" data-name="Path 1117" d="M3756.38,2457.791l3.7-3.251s1.009-1.009,1.682-.449a39.383,39.383,0,0,1,3.026,4.6s.337,1.009-.9,2.13-2.578,2.242-2.578,2.242-1.569,1.121-2.354.112-2.466-3.811-2.466-3.811S3755.819,2458.351,3756.38,2457.791Z" fill="none" stroke="#e94e1b" stroke-miterlimit="10" stroke-width="1.123"/>
          <path id="Path_1118" data-name="Path 1118" d="M3723.051,2457.069l-2.192-3.915s-.558-1.165-1.331-.962a33.678,33.678,0,0,0-4.156,2.562s-.624.68.094,2.015,1.535,2.71,1.535,2.71,1.014,1.455,2.032.936,3.408-2.14,3.408-2.14S3723.351,2457.716,3723.051,2457.069Z" fill="none" stroke="#e94e1b" stroke-miterlimit="10" stroke-width="1.123"/>
          <path id="Path_1119" data-name="Path 1119" d="M3779.351,2518.648l-1.2,13.5-43.644.964-26.523.724-.964-13.262s44.366-.964,50.876-.723S3779.351,2518.648,3779.351,2518.648Z" fill="blue"/>
        </g>
        <g id="Group_1624-2" data-name="Group 1624">
          <path id="Path_1120" data-name="Path 1120" d="M4187.651,2609.01l10.936,61.3s-37,.142-77.986,0l-24.107-64.136Z" fill="#1d71b8"/>
          <path id="Path_1121" data-name="Path 1121" d="M4134.178,2439.8c-3.764-.957-7.984-4.42-8.839-8.338-.952-4.364,2.991-7.491,2.674-11.647-.174-2.274-2.486-4.1-3.777-5.9a15.477,15.477,0,0,1-3.15-7.417c-.574-5.524,4.344-4.275,8.33-3.507a33.737,33.737,0,0,0,5.723.741,8.38,8.38,0,0,0,2.5.012c1.3-.552.539-.646,1.248-1.362,1.8-1.813,2.255-2.4,5.188-1.473a43.321,43.321,0,0,1,7.633,3.366c6.711,3.732,15.64,9.639,17.076,17.624,1.143,6.348-1.4,14.417-2.988,19.877" fill="#36a9e1"/>
          <g id="Group_1623" data-name="Group 1623">
            <path id="Path_1122" data-name="Path 1122" d="M4096.236,2611.032c28.873,7.485,90.894,2.851,90.894,2.851,23.467-2.38,35.814-2.539,39.139-19.533,2.336-11.94-2.1-23.71-4.563-35.28-2.558-12-1.457-23.536-2.139-35.743-.488-8.686-2.913-16.876-9.685-22.873a73.545,73.545,0,0,0-10.969-8.04c-4.275-2.534-10.16-7.082-14.991-7.921l-52.4-.357c-5.061.5-12.5,4.9-16.952,7.321-3.628,1.979-7.576,5.39-8.712,9.432" fill="#c6c6c6"/>
            <g id="Group_1628" data-name="Group 1628">
              <g id="Group_1627" data-name="Group 1627" clip-path="url(#clip-path-3)">
                <g id="Group_1622" data-name="Group 1622">
                  <path id="Path_1123" data-name="Path 1123" d="M4172.641,2574.036s-5.829,27.015.231,43.768l59.528,6.773,13.9-58.1-19.96-73.429-22.1,1.783c-9.657.483-14.764,14.334-15.858,22.312a59.336,59.336,0,0,0,.8,20.443c1.655,8.029,7.2,28.916-2.764,33.69-4.1,1.964-13.776,2.761-13.545,3.043" fill="#36a9e1"/>
                </g>
              </g>
            </g>
          </g>
          <path id="Path_1125" data-name="Path 1125" d="M4135.051,2493.426l-5.8-8.992s-2-1.8.4-4.4,16.985-11.989,38.365-9.991,19.183,14.986,19.183,14.986a118.42,118.42,0,0,1-22.58,6.2C4153.039,2493.026,4138.851,2494.825,4135.051,2493.426Z" fill="#e94e1b"/>
          <path id="Path_1126" data-name="Path 1126" d="M4137.407,2492.48s6.443-20.522,6.92-23.147-.238-5.727-3.34-7.158-7.459-3.8-7.875-11.693c-.477-9.068.954-21.238,3.341-28.4a58.079,58.079,0,0,1,17.9-3.1c10.5-.239,9.545,1.432,9.545,1.432l-1.193,17.181s-.477,3.1.716,3.341,3.818-.716,3.818-.716,3.579,1.67,3.1,5.488a17.084,17.084,0,0,1-8.829,12.648v18.374l1.909,2.625S4146.714,2491.526,4137.407,2492.48Z" fill="#1d71b8"/>
          <path id="Path_1127" data-name="Path 1127" d="M4136.751,2499.14s-4.34,16.276-5.154,23.6c0,0-.3,1.169,1.641.953s1.709-1.775,1.709-1.775,3.4-18.923,5.129-23.023c0,0,.326-1.154-1.119-1.1A2.186,2.186,0,0,0,4136.751,2499.14Z" fill="#fff"/>
          <path id="Path_1128" data-name="Path 1128" d="M4145.47,2499.25s-2.294,22.258-2.192,32.168c0,0-.154,1.6,1.753,1.128a2.123,2.123,0,0,0,1.481-2.541s1.03-25.724,2.238-31.39c0,0,.181-1.579-1.251-1.376A2.372,2.372,0,0,0,4145.47,2499.25Z" fill="#fff"/>
        </g>
        <g id="Group_1627-2" data-name="Group 1627">
          <path id="Path_1129" data-name="Path 1129" d="M3944.6,2595.653v75.054h72.125l32.469-7.886-.634-78.606Z" fill="#1d71b8"/>
          <path id="Path_1130" data-name="Path 1130" d="M3942.9,2567.127l-4.554-76.933s-1.188-14.23,6.916-19.363,47.343-21.754,47.343-21.754l18.351,4.12s23.857,8.3,38.379,20.054c3.121,2.527,1.35,119.269,1.35,119.269l-25.557,59.228s-22,.282-23.852-27.511c0,0-3.239-17.886-3.979-32.067a32.315,32.315,0,0,0-7.8,0c-6.028,58.7-21.965,61.972-35.424,55.6l-8.565-9.554Z" fill="#36a9e1"/>
          <path id="Path_1131" data-name="Path 1131" d="M3981.2,2454.216s10.051-3.974,10.751-6.311a17.533,17.533,0,0,0,.468-5.375s-3.272-4.207-5.375-7.012-4.441-7.011-5.844-16.827a135.749,135.749,0,0,1-1.4-17.3l29.681-7.246s7.713,4.441,8.415,9.349.7,23.6-2.1,29.916-4.212,6.787-4.448,10.287-2,6.885-.65,8.351,7.9,4.27,7.9,4.27l-1.868,8.414-14.958,9.349s-3.74.934-6.077-.234-13.088-11.452-13.088-11.452Z" fill="blue"/>
          <path id="Path_1132" data-name="Path 1132" d="M3981.2,2418.691s-5.01-1.764-6.094-6.647a17.4,17.4,0,0,1,1.491-4.747,7.825,7.825,0,0,0,.407-5.968c-.407-1.221-3.12-5.154-.271-8.41s12.886-10.986,21.159-12.071,11.937,4.476,11.937,4.476l9.63,14.92s.678,7.731.136,10.851-1.764,3.8-1.764,3.8-1.085-7.732-1.627-8.952-4.748-6.782-6.782-7.732c0,0-1.221-.407-.407,1.492s1.356,5.426-1.085,5.426-26.042-2.848-27.67-3.391c0,0,.136,8.41.272,11.394A40.138,40.138,0,0,0,3981.2,2418.691Z" fill="#fff"/>
          <path id="Path_1133" data-name="Path 1133" d="M3992.222,2425.252s16.668-2.481,19.054-3.183c0,0,.018.545-2.346,2.752a12.517,12.517,0,0,1-8.255,3.318C3997.726,2428.2,3993.485,2427.217,3992.222,2425.252Z" fill="#36a9e1"/>
          <g id="Group_1626" data-name="Group 1626">
            <path id="Path_1134" data-name="Path 1134" d="M3982.6,2462.4s4.281,91.225,4.407,127.549c4.783,3.189,7.573,1.993,10.363,2.392,4.782-57.392,17.259-117.495,19.353-127.6,0,0-12.81,8.82-18.008,10.357Z" fill="#fff"/>
            <g id="Group_1630" data-name="Group 1630">
              <g id="Group_1629" data-name="Group 1629" clip-path="url(#clip-path-4)">
                <g id="Group_1625" data-name="Group 1625">
                  <path id="Path_1135" data-name="Path 1135" d="M3979.139,2461.821l17.971,14.2s2.663,1.331,6.435-1.109,15.752-10.428,15.752-10.428" fill="none" stroke="#f9b233" stroke-miterlimit="10" stroke-width="3.37"/>
                </g>
              </g>
            </g>
          </g>
        </g>
        <g id="Group_1628-2" data-name="Group 1628">
          <path id="Path_1137" data-name="Path 1137" d="M4024.422,2644.736l-9.506,25.639s74.212.788,105.683-.063c0,0-6.852-30.923-7.308-32.748s-29.2-29.2-29.2-29.2l-39.236,15.968Z" fill="#36a9e1"/>
          <path id="Path_1138" data-name="Path 1138" d="M4014.088,2536.711c-4.342-1.993-9.509-7.545-9.644-12.576-.146-5.478,5.879-8.979,8.345-13.23,2.327-4.013,1.085-7.521,2.427-11.719,1.914-5.986,9.059-7.429,13.959-10.258,6.524-3.766,14.736-9.47,16.513-17.335,1.814-8.029.394-16.808,2.264-24.822,2.228-9.549,3.829-16.07,15.17-22.389,6.2-3.454,20.124-4.616,24.785,2.514,3.387,5.182,3.293,12.3,2.91,18.569-.277,4.553-.93,9.065-1.591,13.528-.445,3-1.36,7.656-.671,10.665.757,3.307,3.618,4.487,6.123,6.61,5.324,4.511,2.545,8.453,2.644,14.376.108,6.558,7.486,6.654,12.483,7.7,12.116,2.541,11.663,20.067,7.138,28.706-3.155,6.027-8.848,11.5-15.5,12.882" fill="blue"/>
          <path id="Path_1139" data-name="Path 1139" d="M4055.624,2513.512l30.945,1.857s-6.189,56.011-13.305,70.865C4073.264,2586.234,4058.718,2537.65,4055.624,2513.512Z" fill="#fff"/>
          <path id="Path_1140" data-name="Path 1140" d="M4028.295,2592.3c-4.117-.335-6.411-2.979-7.73-6.779-4.067-11.711-3.748-25.177-4.824-37.3a123.3,123.3,0,0,1,1.2-29.734c.617-3.825,1.134-7.25,4.835-8.939,9.175-4.185,19.125-6.36,27.623-12.035,3.374-2.252,5.758-5.429,8.887-7.731-.34,4.413-1.934,8.238-1.7,12.781a88.662,88.662,0,0,0,2.266,13.334c2.04,9.616,3.905,22.538,5.773,32.185,2.627,13.574,10.6,33.658,10.6,47.549,0,8.767-3.878,23.043-8.065,31.009-3.853,7.329-12.413,13.167-19.458,17.425-5.509,3.329-22.762,9.84-26.788,9.55.259-1.882,20-54.913,20.291-64.807-1.812.61-3.225,2.008-5.172,2.582A21.671,21.671,0,0,1,4028.295,2592.3Z" fill="#e94e1b"/>
          <path id="Path_1141" data-name="Path 1141" d="M4073.514,2489.3c4.366,7.942,14.391,11.147,22.539,13.594,3.483,1.046,6.68,1.973,7.716,5.87,1.292,4.862,1.089,10.186,2.2,15.1,2.982,13.225,12.077,23.966,13.721,37.669.856,7.132,1.073,21.2-6.281,25.2-5.3,2.884-10.622,1.76-16.056.576,2.147,3.874,3.422,8.069,5.166,12.125a152.2,152.2,0,0,1,6.345,16.061c1.79,5.984,3.85,12.013,5.768,17.978,1.516,4.718,5.188,11.81,3.692,16.8-6.314-1.748-12.865-3.277-18.967-6.056a104.254,104.254,0,0,1-22.643-14.25c-5.107-4.128-7.967-7.969-8.024-15.018-.081-9.657.566-41.362,1.461-44.788,1.031-3.954,6.814-20.045,7.414-24.1,4.089-27.64,1.613-40.054.142-43.745" fill="#e94e1b"/>
          <path id="Path_1142" data-name="Path 1142" d="M4058.516,2513.845s-3.374-13.184-1.851-18.514c1.548-5.418-.01-20.745-.622-23.366-.914-3.92-3.083-19.647-2.964-22.609a49.724,49.724,0,0,0,8.625-1.948,30.5,30.5,0,0,0,4.775-2.216c.566-.3,3.4-2.314,3.982-1.938,1.769,1.135-8.864,9.829-3.48,8.327,12.926-3.6,15.741-8.981,17.027-9.694.512,1.579-1.433,12.932-2.377,16.908-1,4.216-1.855,8.521-3.824,12.418-.608,1.2-2.595,3.608-3,4.853-.218.675,4.65,31.351,4.888,39.285C4079.7,2515.351,4063.464,2514.987,4058.516,2513.845Z" fill="#f9b233"/>
          <path id="Path_1143" data-name="Path 1143" d="M4043.952,2559.86s3.9-7,6.813-6a57.708,57.708,0,0,0,9.553,1.952l19.741,4.556-2.7,13.5-20.585-12.149-14.394.64Z" fill="#f9b233"/>
          <path id="Path_1144" data-name="Path 1144" d="M4073.817,2559.354s12.823-3.354,17.042-6.054,6.217.631,12.524,2.884c2.883.811.6,9.351-1.388,9.075-8.253-1.146-9.665-5.542-15.505-5.323l-8.925,1.116Z" fill="#f9b233"/>
          <circle id="Ellipse_264" data-name="Ellipse 264" cx="3.785" cy="3.785" r="3.785" transform="translate(4080.155 2465.858)" fill="none" stroke="#36a9e1" stroke-miterlimit="10" stroke-width="0.899"/>
          <circle id="Ellipse_265" data-name="Ellipse 265" cx="3.785" cy="3.785" r="3.785" transform="translate(4046.476 2465.858)" fill="none" stroke="#36a9e1" stroke-miterlimit="10" stroke-width="0.899"/>
        </g>
        <g id="Group_1631" data-name="Group 1631">
          <path id="Path_1145" data-name="Path 1145" d="M3790.637,2556.27s1.385,24.1,3.046,34.9l10.8,2.493,7.2-26.035Z" fill="#36a9e1"/>
          <path id="Path_1146" data-name="Path 1146" d="M3788.7,2623.85s-.554,3.6,2.216,5.263,9.695,3.877,9.695,3.877l.277-6.647Z" fill="#36a9e1"/>
          <path id="Path_1147" data-name="Path 1147" d="M3804.334,2592.456l-32.533-7.209-2.733,35.846,31.818,5.25S3803.051,2595.119,3804.334,2592.456Z" fill="#c6c6c6"/>
          <path id="Path_1148" data-name="Path 1148" d="M3810.337,2556.6s-14.059,57.656-12.731,113.708c0,0,31.5-.259,66.5-.112l5.858-55.626-20.217-59.306Z" fill="#f9b233"/>
          <path id="Path_1149" data-name="Path 1149" d="M3811.632,2401.1l23.712,8.015s6.345,2,7.681,13.693,1.67,20.706,1.67,20.706-.668,8.015,9.017,9.351l9.685,1.336s8.35-.668,7.348,9.685a58.841,58.841,0,0,1-9.018,25.048l-65.792,4.676s-1-40.411-2.672-46.756-2-12.357.668-17.033a71.758,71.758,0,0,1,5.01-7.681s-2.338-12.023,2.672-17.367S3811.632,2401.1,3811.632,2401.1Z" fill="#e94e1b"/>
          <path id="Path_1150" data-name="Path 1150" d="M3832,2471.9l29.055,12.023a18.254,18.254,0,0,1,6.679,9.017c1.67,5.677-18.369,63.454-18.369,63.454l-39.407,1.336-2.52,9.719-18.521-11.723a5.894,5.894,0,0,1-3.34-6.345,48.675,48.675,0,0,0-.668-19.37c-2-8.684-6.345-22.376.334-31.394s21.708-20.372,24.046-22.376Z" fill="blue"/>
          <g id="Group_1630-2" data-name="Group 1630">
            <path id="Path_1151" data-name="Path 1151" d="M3809.4,2479.991s3.026-4.676,2.2-8.526-1.926-9.627-1.926-9.627a34.8,34.8,0,0,1-13.571-22.7c-2.262-15.213,8.634-21.792,8.634-21.792l3.084-2.261s5.551,5.756,7.812,6.578,11.513,3.7,13.363,6.374,0,18.708-5.345,27.548c0,0-1.85,3.289-.411,5.139s6.374,11.307,6.374,11.307l4.728,1.645s-1.851,12.13-14.6,12.335S3809.4,2479.991,3809.4,2479.991Z" fill="#36a9e1"/>
            <g id="Group_1632" data-name="Group 1632">
              <g id="Group_1631-2" data-name="Group 1631" clip-path="url(#clip-path-5)">
                <g id="Group_1629-2" data-name="Group 1629">
                  <path id="Path_1152" data-name="Path 1152" d="M3829.321,2435.691a11.032,11.032,0,0,0,1.789-4.937" fill="none" stroke="#fff" stroke-miterlimit="10" stroke-width="1.123"/>
                  <path id="Path_1153" data-name="Path 1153" d="M3829.321,2435.691a7.177,7.177,0,1,1-5.95-11.189l3.452.332" fill="none" stroke="#fff" stroke-miterlimit="10" stroke-width="1.123"/>
                </g>
              </g>
            </g>
          </g>
          <circle id="Ellipse_266" data-name="Ellipse 266" cx="7.176" cy="7.176" r="7.176" transform="translate(3795.959 2425.69)" fill="none" stroke="#fff" stroke-miterlimit="10" stroke-width="1.123"/>
          <path id="Path_1155" data-name="Path 1155" d="M3823.371,2424.5" fill="none" stroke="#fff" stroke-miterlimit="10" stroke-width="1.123"/>
          <path id="Path_1156" data-name="Path 1156" d="M3806.7,2443.686s10.566-1.148,12.4-1.263,1.378,2.182,1.378,2.182-.345,4.249-6.547,4.479-7.465-3.675-7.465-3.675S3805.551,2444.146,3806.7,2443.686Z" fill="#fff"/>
          <path id="Path_1157" data-name="Path 1157" d="M3789.615,2454.956l4.787-5.5a.747.747,0,0,1,1.053-.073.757.757,0,0,1,.187.25l3.158,6.825a.746.746,0,0,1-.8,1.049l-7.945-1.325a.746.746,0,0,1-.44-1.226Z" fill="#f9b233"/>
          <path id="Path_1158" data-name="Path 1158" d="M3830.486,2450.97l2.728-7.174a.716.716,0,0,1,1.239-.195l5.28,6.123a.8.8,0,0,1-.413,1.334l-8.007,1.05a.835.835,0,0,1-.827-1.138Z" fill="#f9b233"/>
          <line id="Line_80" data-name="Line 80" y1="0.444" x2="5.621" transform="translate(3810.615 2430.491)" fill="none" stroke="#fff" stroke-miterlimit="10" stroke-width="1.123"/>
        </g>
        <g id="Group_1632-2" data-name="Group 1632">
          <path id="Path_1159" data-name="Path 1159" d="M3863.651,2629.142c-2.819-2.664-8.741-4.161-12.5-5.492-.233-5.54,1.746-12.027,2.583-17.6.785-5.233.206-9.586-.278-14.788-.521-5.613,3.638-11.829,4.6-17.34a100.79,100.79,0,0,0,.819-25.287c-.938-12.2-3.567-23.752-2.348-36.3.439-4.515.62-10.025,3.123-13.924,3.544-5.522,9.988-9.237,15.222-13,9.22-6.621,19.049-13.463,24.78-23.337l24.109.34c8.335,12.182,20.455,16.5,32.6,24.025,5.238,3.247,9.23,8.3,13.262,12.9,5.537,6.325,11.06,12.583,16.421,19.058,9.529,11.507,18.637,25.6,20.231,40.529,1.4,13.1-9.271,26.111-19.694,33.556-5.553,3.967-10.555-2.1-15.579.281-3.652,1.733-4.252,5.326-8.472,1.753-2.391-2.024-6.312-6.844-7.529-9.862,1.717-2.686,4.332-4.961,6.7-7.216,3.363-3.2,6.894-6.214,10.273-9.4,2.987-2.813,6.867-5.6,9.219-8.865-1.312-1.02-3.785-1.145-5.525-1.681a77.238,77.238,0,0,1-11.512-5.1c-3.334-1.664-7.238-3.934-10.8-4.707-1.309,5.981-1.024,12.427-2,18.557-.778,4.875-1.362,9.6-2.466,14.351-.537,2.312-4.9,11.557-4.75,11.872l-70.969.679" fill="#1d71b8"/>
          <path id="Path_1160" data-name="Path 1160" d="M3869.884,2592.888s-10.867,67.864-11.141,77.424c0,0,44.047-1.112,101.9,0l-16.516-77.843Z" fill="blue"/>
          <path id="Path_1161" data-name="Path 1161" d="M3860.734,2654.8c-4.9,2.161-8.143-4.08-10.106-7.81-4.863-9.236,6.779-12.256,6.125-20.979l7.351,3.063Z" fill="#fff"/>
          <path id="Path_1162" data-name="Path 1162" d="M3899.245,2447.227s-4.249-8.024-5.229-11.3c-2.629-8.767-3.642-19.645-1.49-24.141,2.952-6.175,9.665-14.5,9.665-14.5s20.672,1.343,21.478,1.611,5.1,8.054,5.1,8.054l1.644,23.953-6.477,32.426-11.459,8.3a5.14,5.14,0,0,1-7.141-1.1l-4.758-6.4Z" fill="#fff"/>
          <path id="Path_1163" data-name="Path 1163" d="M3891.538,2415.6s.181,7.234.9,9.223,3.256,8.138,3.256,8.138.9,2.713,2.352.9,1.989-6.691,7.232-7.776a54.629,54.629,0,0,1,11.032-.9,5.3,5.3,0,0,1,4.521,2.351c1.628,2.531,3.617,6.691,5.606,2.893s2.894-17.723,2.894-17.723l1.267,1.628s.9,27.669.18,33.275-5.064,14.83-15.01,14.468-18.085-4.521-20.436-9.223-5.064-17-5.064-29.659C3890.272,2423.2,3889.911,2417.951,3891.538,2415.6Z" fill="blue"/>
          <path id="Path_1164" data-name="Path 1164" d="M3894.875,2401.05a10.96,10.96,0,0,0-4.79,9.809c.456,6.615.456,7.984.456,7.984l10.95-18.25,21.671,1.369s4.562,6.844,5.931,12.547,2.053,1.14,2.053,1.14,1.444-16.145-11.938-21.751-23.872-7.053-28.393-5.244-1.266,6.872-1.266,6.872a6.931,6.931,0,0,0,3.978,1.808C3895.879,2397.515,3898.751,2398.436,3894.875,2401.05Z" fill="blue"/>
          <path id="Path_1165" data-name="Path 1165" d="M3905.256,2431.381s8.216-.421,11.374-.1,1.792,1.369,1.792,1.369-1.476,3.265-3.265,3.475-7.267.211-7.267.211a4.94,4.94,0,0,1-2.529-1.475,13.149,13.149,0,0,1-1.263-2.422A1.34,1.34,0,0,1,3905.256,2431.381Z" fill="#fff"/>
          <path id="Path_1166" data-name="Path 1166" d="M3954.968,2584.871c-2.176,1.483-3.988,3.75-6.058,5.444-1.214.993-2.69,1.98-3.352,3.448-1.33,2.949.248,10.053,2.785,12.051,8.517,3.462,12.868,5.732,16.463-2.592.566-3.062-6.719-1.976-7-5.108.97-1.3,2.95-3.143,3.784-4.54" fill="#fff"/>
          <path id="Path_1167" data-name="Path 1167" d="M3892.151,2467.192l5.868,20.235s1.029,2.919,2.738.57,7.528-10.721,7.528-10.721l9.408,10.389a1.791,1.791,0,0,0,2.381-.482l11.163-19.137" fill="none" stroke="#fff" stroke-miterlimit="10" stroke-width="1.123"/>
          <path id="Path_1168" data-name="Path 1168" d="M3902.734,2483.973l4.576,7.845-11.257,81.542a4.782,4.782,0,0,0,.83,3.409l3.632,4.452,5.183,5.08a1.886,1.886,0,0,0,2.641-.024l9.441-9.442a6.41,6.41,0,0,0,1.84-5.218l-8.658-80.361,4.514-7.376-7.323-7.508Z" fill="#f9b233"/>
        </g>
      </g>
    </g>
  </g>
</svg>
