<svg xmlns="http://www.w3.org/2000/svg" xmlns:xlink="http://www.w3.org/1999/xlink" width="587.582" height="341.068" viewBox="0 0 587.582 341.068">
  <defs>
    <clipPath id="clip-path">
      <path d="M530.431,946.972c-73.214,6.469-148.171,11.182-214.364-23.71-87.712-46.236-91.18-112.539-79.838-134.954,16.667-32.941,43.834-32.285,69.951-35.172,29.437-3.254,66.651,14.167,95.8,13.386,13.095-.351,23.258-7.93,35.043-11.8,13.452-4.418,29.506-4.019,43.528-5.495,30.626-3.224,61.02-9.46,91.414-12.82s111-49.416,178.456-36.817c108.982,20.355,65.789,153.8,23.754,197.515-16.4,17.061-62.6,47.771-147.119,44.359C612.427,940.873,547.6,945.455,530.431,946.972Z" transform="translate(-231.581 -697.413)" fill="#fff"/>
    </clipPath>
  </defs>
  <g transform="translate(0 51.246)">
    <path d="M530.431,946.972c-73.214,6.469-148.171,11.182-214.364-23.71-87.712-46.236-91.18-112.539-79.838-134.954,16.667-32.941,43.834-32.285,69.951-35.172,29.437-3.254,66.651,14.167,95.8,13.386,13.095-.351,23.258-7.93,35.043-11.8,13.452-4.418,29.506-4.019,43.528-5.495,30.626-3.224,61.02-9.46,91.414-12.82s111-49.416,178.456-36.817c108.982,20.355,65.789,153.8,23.754,197.515-16.4,17.061-62.6,47.771-147.119,44.359C612.427,940.873,547.6,945.455,530.431,946.972Z" transform="translate(-231.581 -697.413)" fill="#b6ffe8"/>
    <g transform="translate(0 0)" clip-path="url(#clip-path)">
      <path d="M2093.325,740.01a37.675,37.675,0,0,1-6.856,14.227c-5.607,7.027-12.37,7.154-20.932,7.507-13.344.55-26.449-1.285-39.774-2.131-12.159-.772-24.414-1.54-36.484.116-8.879,1.219-17.559,3.739-26.479,4.614-9.479.93-19.028-.015-28.523-.763a691.249,691.249,0,0,0-79.615-1.672c-25.177.922-50.773,1.843-75.791,4.85-35.878,4.313-71.651,9.576-107.084,16.39q-7.128,1.371-14.236,2.826c-2.385.489-10.791,3.487-12.826,2.705-2.806-1.077-2.158-5.243-2.433-8.062l-1.865-19.076c-.01-.108,60.937-6.626,64.368-7L1807.258,743.4c16.916-1.839,34.548-1.848,51.11-4.755,14.329-2.515,27.271-4.446,41.956-4.031,16.555.468,32.812,3.461,49.411,3.381,8.633-.042,17.453-.669,25.411-4.015,8.536-3.59,15.5-10.055,23.431-14.836,16.85-10.158,37.464-7.021,56.092-13.637,4.461-1.584,8.936-3.458,12.459-6.62s5.979-7.848,5.39-12.544c-.947-7.544-9.209-10.947-15.711-12.41-8.864-2-17.884-4.229-26.9-6.242-20.932-4.672-42.566-5.653-63.934-4.5-29.306,1.587-58.234,7.123-87.1,12.413-62.776,11.5-125.89,21.922-189.588,25.9-7.033.439-14.342.757-20.86-1.921,2.624-2.083,6.009-2.89,9.275-3.637q168.672-38.568,340.234-62.594c8.772-1.228,17.786-2.418,26.41-.4,12.905,3.027,22.069,16.324,28.777,26.992,8.762,13.936,14.544,29.7,18.512,45.613,2.363,9.48,3.979,19.32,2.731,29.01A45.69,45.69,0,0,1,2093.325,740.01Z" transform="translate(-1455.531 -640.474)" fill="#b6ffe8"/>
      <path d="M3610.543,1648.927c12.668-.31,22.531-6.085,27.879-14.869s7.839-16.78,16.135-22.857a26.159,26.159,0,0,1,24-3.4c-4.428-13.562.88-29.707,12.492-38,6.524-4.657,15.29-6.846,22.723-3.845,9.388,3.79,14.151,14.839,13.742,24.955s-4.894,19.561-9.293,28.679c4.151-3.9,8.8-8.024,14.491-8.336s11.707,5.689,9.117,10.761a44.643,44.643,0,0,1,16.207-9.468c3.761-1.23,7.866-1.948,11.656-.813s7.111,4.544,7.082,8.5c-.025,3.4-2.352,6.3-3.536,9.484-1.24,3.342-1.13,7.328.94,10.23s6.3,4.286,9.43,2.576" transform="translate(-3272.091 -1509.772)" fill="#fff"/>
      <path d="M3659.2,849.3a232.043,232.043,0,0,1,24.535-14.513c7.04-3.6,16-6.711,22.376-2.03a69.9,69.9,0,0,1,26.841-20.478c5.136-2.212,11.148-3.769,16.2-1.375,8.165,3.867,8.912,15,8.477,24.019a181.73,181.73,0,0,1,18.525-9.43c4.187-1.838,10.44-2.752,12.118,1.5,1.035,2.623-.575,5.825.723,8.329,1.335,2.573,4.827,2.883,7.725,2.858l21.46-.192" transform="translate(-3281.357 -646.967)" fill="#fff"/>
      <path d="M3659.2,849.3a232.043,232.043,0,0,1,24.535-14.513c7.04-3.6,16-6.711,22.376-2.03a69.9,69.9,0,0,1,26.841-20.478c5.136-2.212,11.148-3.769,16.2-1.375,8.165,3.867,8.912,15,8.477,24.019a181.73,181.73,0,0,1,18.525-9.43c4.187-1.838,10.44-2.752,12.118,1.5,1.035,2.623-.575,5.825.723,8.329,1.335,2.573,4.827,2.883,7.725,2.858l21.46-.192" transform="translate(-3247.357 -805.967)" fill="#fff"/>
    </g>
  </g>
  <path d="M232.7,690.974c-8.3,22.342-.121,64.421,10.561,84.979s27.182,34.805,44.231,45.959c33.511,21.923,70.369,33.779,107.267,42.6a737.841,737.841,0,0,0,107.788,17.5c29.568,2.565,41.721,1.929,70.843-5.2,58.97-14.436,81.365-120.909,68.663-192.791-9.694-54.858-49.175-94.361-92.594-95.148-45.216-.82-64.339,24.256-106.832,44.359-25.86,12.234-44.53,20.736-79.468,24.279C342.241,659.63,266.328,600.419,232.7,690.974Z" transform="translate(-170.6 -553.852)" fill="#b6ffe8" style="mix-blend-mode: multiply;isolation: isolate"/>
  <g transform="translate(0 51.246)">
    <g transform="translate(376 10)">
      <path d="M3783.606,1648.927c-12.668-.31-22.531-6.085-27.879-14.869s-7.839-16.78-16.135-22.857a26.159,26.159,0,0,0-24-3.4c4.428-13.562-.88-29.707-12.492-38-6.524-4.657-15.29-6.846-22.723-3.845-9.388,3.79-14.151,14.839-13.742,24.955s4.894,19.561,9.293,28.679c-4.151-3.9-8.8-8.024-14.491-8.336s-11.707,5.689-9.117,10.761a44.643,44.643,0,0,0-16.207-9.468c-3.761-1.23-7.866-1.948-11.656-.813s-7.111,4.544-7.082,8.5c.025,3.4,2.352,6.3,3.536,9.484,1.24,3.342,1.13,7.328-.94,10.23s-6.3,4.286-9.43,2.576" transform="translate(-3593.477 -1509.772)" fill="#fff"/>
      <path d="M3818.177,849.3a232.043,232.043,0,0,0-24.535-14.513c-7.04-3.6-16-6.711-22.376-2.03a69.9,69.9,0,0,0-26.841-20.478c-5.136-2.212-11.148-3.769-16.2-1.375-8.165,3.867-8.912,15-8.477,24.019a181.73,181.73,0,0,0-18.525-9.43c-4.187-1.838-10.44-2.752-12.118,1.5-1.035,2.623.575,5.825-.723,8.329-1.335,2.573-4.827,2.883-7.725,2.858l-21.46-.192" transform="translate(-3608.433 -646.967)" fill="#fff"/>
      <path d="M3818.177,849.3a232.043,232.043,0,0,0-24.535-14.513c-7.04-3.6-16-6.711-22.376-2.03a69.9,69.9,0,0,0-26.841-20.478c-5.136-2.212-11.148-3.769-16.2-1.375-8.165,3.867-8.912,15-8.477,24.019a181.73,181.73,0,0,0-18.525-9.43c-4.187-1.838-10.44-2.752-12.118,1.5-1.035,2.623.575,5.825-.723,8.329-1.335,2.573-4.827,2.883-7.725,2.858l-21.46-.192" transform="translate(-3642.433 -805.967)" fill="#fff"/>
    </g>
  </g>
  <path d="M1963.905,482.337l.575.575" transform="translate(-1736.557 -459.318)" fill="#f15a24"/>
  <g transform="translate(180.735)">
    <path d="M2734.471,962.8c-1.417-6.309-7.293-10.793-13.477-12.684s-12.775-1.72-19.235-2.021c-9.626-.448-19.539-2.111-27.566-7.444-3.273-2.175-6.152-4.909-9.461-7.027-8.339-5.336-16.893-4.2-25.821-6.806-10.066-2.937-3.752-6.4-4.077-13.834-.133-3.035-3.182-5.005-5.935-6.293a87.541,87.541,0,0,0-36.042-8.16,66.038,66.038,0,0,0-17.1,1.669c-5.634,1.46-11,3.912-16.911,4.126,14.01,38.107,74.52,84.272,98.889,123.185" transform="translate(-2555.595 -821.667)" fill="blue"/>
    <path d="M2277.193,1293.643c11.333-5.552-20.451-92.634-17.956-99.8,9.184-40.112,68.907-17.023,56.715-44.512-11.932-12.629-31.393-15.931-46.222-23.913a41.329,41.329,0,0,1-10.493-7.568c-9.3-9.742-7.623-25.772-22.445-30.262-11.17-3.384-23.531-.462-34.734,1.276-7.147,1.109-18.6,3.323-20.734,11.366-8.384-4.424-17.78,3.424-25.593,6.9-9.286,4.1-18.223,9.71-23.408,18.732-6.185,10.765-8.708,22.07-2.823,33,14.469,26.87,19.4,72.031,44.1,108.681C2185.59,1283.016,2259.055,1310.175,2277.193,1293.643Z" transform="translate(-2029.724 -957.731)" fill="blue"/>
    <path d="M2445.148,748.535c2.56-6.366,8.474-10.872,11.233-17.284,3.677-8.543,7.182-17.751,7.759-27.123.349-5.707-.106-12.339-2.764-17.423-4.174-7.98-13.174-11.9-21.374-14.135-1.4-.381-2.311-.867-3.688-1.231-2.6-.686-5.291-.04-7.854.273-6.161.75-12.135.521-18.23,2.161a37.076,37.076,0,0,0-23.933,20.936c-1.418,3.244-1.153,6.729-.737,10.151.4,3.278,1.707,6.294,1.221,9.647a6.225,6.225,0,0,1-.806,2.46,8.258,8.258,0,0,1-2.1,2.021q-2.632,2-5.2,4.08a5.9,5.9,0,0,0-1.482,1.535,4.581,4.581,0,0,0,.415,4.493c1.4,2.393,3.516,4.24,3.975,7.1a20.924,20.924,0,0,1-.022,5.087q-.611,7.062-1.219,14.123c-.189,2.2-.333,4.587.885,6.426a9.4,9.4,0,0,0,2.321,2.214,16.653,16.653,0,0,0,8.86,3.679,59.011,59.011,0,0,0,11.4-.009c.354,11.812-3.55,21.831-8.069,33.426,16.59-3.64,39.909-3.091,49.6-4.645q-1.727-18.787-1.637-37.681a31.714,31.714,0,0,1,.847-8.526A17.468,17.468,0,0,1,2445.148,748.535Z" transform="translate(-2235.414 -656.586)" fill="#f7931e"/>
    <path d="M2419.8,694.54q-.342.409-.668.827a37.507,37.507,0,0,0,2.725-6.494c.643-2.055,1.092-4.352.187-6.306-.989-2.137-3.339-3.289-5.611-3.907a5.134,5.134,0,0,0-2.46-.207c-1.9.431-2.842,2.591-3.074,4.523s-.07,3.992-.981,5.711a2.62,2.62,0,0,1-1.595,1.418c-2.715.637-4.469-6.313-4.881-8.127a52.9,52.9,0,0,1-.777-19.871c1.131-7.152,4.1-12.745,8.13-18.6-1.2-.885-1.811-.18-2.939.142a16.986,16.986,0,0,1-4.737.527c-3.692.027-7.382-.168-11.07-.346-3.894-.188-30.839,1.3-31.773-1.642-.354-1.112,4.338-9,4.983-10.367A23.328,23.328,0,0,1,2396.3,620.5c2.881,1.338,5.453,3.244,8.2,4.835a42.293,42.293,0,0,0,26.3,5.308c-1.744,4.535-6.9,10.156-12.182,10.167a25.636,25.636,0,0,1,14.1,23.22,48.677,48.677,0,0,1-2.291,14.072,38.922,38.922,0,0,1-2.184,5.9C2426.295,688.027,2422.687,691.08,2419.8,694.54Z" transform="translate(-2199.364 -618.366)" fill="#1b1464"/>
    <path d="M2860.894,697.95c-7.723,1.626-16,1.79-23.846,3.326-19.27,3.775-38.646,5.611-57.7,11.135-14.078,4.081-33.052,9.545-42.511,20.823-7.8,9.3-5.812,21.773.928,30.139,10.5,13.028,38.282,2.052,51.9-3.117,7.492-2.844,13.485-8.243,20.642-11.686,6.654-3.2,13.9-1.9,20-4.606,5.968-2.645,8-10.78,13.568-14.391,5.017-3.252,13.711-.382,17.735-4.161,2.376-2.232.036-14.648-.094-17.747C2861.372,704.378,2861.633,701.018,2860.894,697.95Z" transform="translate(-2731.234 -676.117)" fill="blue"/>
    <path d="M2491.224,1316.417c-.79,5.173-4.591,12.193-6.591,15.642-13.427-2.238-26.892-8.233-34.516-20.005-5.329-8.228-7.8-18.061-8.4-27.845-.36-5.9-.1-11.99-2.189-17.521-1.8-4.753-5.207-8.724-7.374-13.321-3.434-7.281-3.551-15.627-3.6-23.677-.036-5.349-.34-10.572-.606-15.963a48.952,48.952,0,0,1-3.814-5.912,3.285,3.285,0,0,1-.536-1.635,3.4,3.4,0,0,1,.74-1.709l8.5-12.553c.127,3.174,2.126,5.981,2.665,9.112a10.223,10.223,0,0,1-2.176,8.144,3.874,3.874,0,0,0-1.073,1.765,3.175,3.175,0,0,0,.256,1.483,95.593,95.593,0,0,0,12.716,24.559c6.2,8.348,14.126,16.531,15.57,27.289.95,7.079-1.076,14.782,2.224,21.117,2.978,5.718,9.384,8.557,14.667,12.251,4.761,3.329,11.835,9.378,13.473,15.245A8.587,8.587,0,0,1,2491.224,1316.417Z" transform="translate(-2275.39 -1034.569)" fill="#fff"/>
    <path d="M2491.407,714.135c-6.93,2.282-13.735,4.94-20.722,7.1-6.415,1.981-13.244,4.686-20.007,4.843-3.167.074-7.059.039-8.581,2.816a6.43,6.43,0,0,0-.408,4.176c.354,2.065,1.108,4.046,1.464,6.111a8.2,8.2,0,0,1-.926,6.057,44.092,44.092,0,0,1,25.281-12.166,19.948,19.948,0,0,1,8.2.4c3.854,1.168,6.081,4.322,7.369,8,3.947,11.269.3,24.172-6.938,33.668a62.117,62.117,0,0,1-13.375,12.659c-2.562,1.835-5.228,3.524-7.953,5.108-1.284.746-2.6,1.43-3.9,2.126-.769.41-2.685,1.834-3.623,1.485,3.3,1.227,6.957.393,10.472.519a2.216,2.216,0,0,1,1.289.333,2.386,2.386,0,0,1,.541,2.175q-.465,5.206-.93,10.412c4.2-5.219,7.726-11.309,12.586-15.947a66.069,66.069,0,0,1,16.229-11.166,9.291,9.291,0,0,1,4.038-1.248c5.82,0,3.5,10.338,3.034,13.777a203.97,203.97,0,0,1-6.585,30.71,36.2,36.2,0,0,1,13.7-.185q-1.367-16.2-1.684-32.473c-.17-8.763,2.426-17.18.9-25.943-1.056-6.048-3.451-11.793-4.618-17.821a56.652,56.652,0,0,1-.984-18.059c.515-3.991,1.586-7.8,2.4-11.724.767-3.7,2.335-5.92,4.8-8.885C2498.708,711.846,2495.041,712.939,2491.407,714.135Z" transform="translate(-2291.394 -685.574)" fill="#f15a24"/>
    <path d="M2535.266,730.227a26.591,26.591,0,0,0-4.194.13c-4.135.457-7.567,2.8-11.711,1.862-9.087-2.052-17.072-11.518-27.083-4.731a75.354,75.354,0,0,1-1.372-15.363c.054-1.173,15.844-1.619,18.335-1.856a79.106,79.106,0,0,1,12.678-.664,111.248,111.248,0,0,1,13.085,1.968c3.759.719,7.692,1.892,11.5,2.2a67,67,0,0,0,10.742-.318,1.449,1.449,0,0,1,.731.063.987.987,0,0,1,.345,1.3c-.472,1.016-2.3,2.221-3.2,2.852a21.752,21.752,0,0,1-4.257,2.184,110.747,110.747,0,0,1-17.346,5.5,33.825,33.825,0,0,1,7.823,2.415,7.607,7.607,0,0,1,3.9,3.093,1.136,1.136,0,0,1,.1,1.085c-.321.528-1.118.34-1.691.108A25.67,25.67,0,0,0,2535.266,730.227Z" transform="translate(-2360.906 -684.517)" fill="#f7931e"/>
    <path d="M2322.432,843.157c-2.119,6.123.537,13.146,5.171,17.672s10.915,6.958,17.172,8.633c19.233,5.149,40.14,4.346,58.14,12.856,2.006.948,4.163,2.258,4.662,4.42-6.886,1.087-13.906-.1-20.877-.155s-14.494,1.3-19.32,6.327a4.515,4.515,0,0,0-1.331,2.2c-.4,2.151,1.85,3.791,3.839,4.7,18.212,8.33,37.594,4.694,56.73,4.236,19.42-.465,38.1,5.911,57.147,5.112a44.237,44.237,0,0,0-27.482,31.025q12.618-7.269,24.749-15.344c-2.044,10.95,2.768,22.935,6.783,33.017a243.917,243.917,0,0,1,77.815-9.655" transform="translate(-2321.693 -781.488)" fill="none" stroke="#a0edfc" stroke-linecap="round" stroke-miterlimit="10" stroke-width="2"/>
  </g>
</svg>
