<?xml version="1.0" standalone="no"?>
<!DOCTYPE svg PUBLIC "-//W3C//DTD SVG 20010904//EN"
 "http://www.w3.org/TR/2001/REC-SVG-20010904/DTD/svg10.dtd">
<svg version="1.0" xmlns="http://www.w3.org/2000/svg"
 width="1024.000000pt" height="1024.000000pt" viewBox="0 0 1024.000000 1024.000000"
 preserveAspectRatio="xMidYMid meet">
<metadata>
Created by potrace 1.11, written by Peter Selinger 2001-2013
</metadata>
<g transform="translate(0.000000,1024.000000) scale(0.100000,-0.100000)"
fill="#000000" stroke="none">
<path d="M5025 10164 c-49 -42 -101 -86 -115 -98 -14 -11 -79 -66 -145 -120
-66 -55 -122 -102 -125 -106 -3 -3 -36 -31 -75 -62 -38 -31 -83 -69 -100 -83
-39 -34 -59 -51 -125 -105 -30 -25 -57 -47 -60 -50 -4 -4 -78 -66 -145 -122
-20 -16 -92 -76 -350 -292 -71 -60 -152 -128 -180 -152 -47 -39 -143 -119
-244 -203 -25 -20 -63 -52 -85 -72 -23 -19 -162 -136 -311 -260 -148 -123
-272 -226 -275 -229 -3 -3 -102 -86 -220 -185 -118 -99 -255 -213 -305 -254
-49 -42 -92 -78 -95 -81 -3 -3 -30 -25 -60 -50 -30 -25 -57 -47 -60 -50 -3 -3
-57 -48 -120 -100 -63 -52 -117 -97 -120 -100 -3 -3 -126 -107 -275 -230 -226
-189 -402 -335 -500 -418 -11 -10 -186 -156 -390 -327 -203 -170 -409 -342
-457 -383 l-88 -73 0 -2980 0 -2979 5120 0 5120 0 0 2979 0 2980 -117 98 c-65
54 -120 100 -123 103 -3 3 -86 73 -185 156 -99 82 -189 157 -200 166 -11 9
-112 94 -225 188 -113 94 -214 179 -225 188 -11 10 -171 143 -355 297 -184
154 -337 282 -340 285 -4 4 -116 98 -205 171 -43 36 -181 152 -205 172 -14 12
-133 112 -265 222 -132 109 -242 202 -245 205 -3 3 -43 37 -90 75 -47 38 -87
72 -90 75 -3 3 -34 30 -70 59 -36 30 -87 73 -115 96 -27 24 -120 101 -205 171
-85 71 -160 133 -166 139 -6 5 -32 28 -59 50 -101 84 -502 419 -545 455 -25
21 -146 123 -270 226 -124 104 -346 290 -495 414 -148 124 -281 235 -295 247
-14 13 -27 23 -30 23 -3 0 -45 -34 -95 -76z m-4101 -4871 c149 -107 280 -201
291 -209 69 -49 205 -146 233 -166 18 -13 39 -27 45 -33 7 -5 28 -21 47 -35
56 -39 758 -541 840 -600 41 -30 138 -99 215 -155 77 -55 150 -107 162 -115
27 -19 563 -403 681 -488 48 -35 103 -74 122 -88 19 -14 87 -63 151 -109 64
-46 141 -100 171 -122 29 -21 163 -117 297 -213 134 -96 266 -191 294 -210 29
-19 57 -39 64 -45 6 -5 45 -34 86 -64 l76 -54 -77 -54 c-42 -30 -315 -222
-607 -428 -291 -205 -543 -383 -560 -395 -58 -42 -241 -171 -305 -216 -36 -24
-105 -74 -155 -109 -49 -35 -121 -85 -160 -112 -38 -26 -72 -50 -75 -53 -3 -3
-31 -23 -62 -44 -58 -39 -69 -49 -46 -41 7 2 141 41 298 85 157 45 299 85 315
91 63 20 701 201 724 205 14 3 28 7 32 10 7 4 363 108 564 164 55 15 179 51
275 78 96 28 288 83 425 122 138 39 270 77 295 85 60 18 947 273 1030 295 36
10 182 52 325 93 143 42 426 123 629 182 204 58 372 108 375 110 2 3 -212 221
-478 484 l-482 479 242 174 c132 95 257 185 277 199 21 14 231 164 467 334
237 169 579 414 760 544 182 129 335 239 340 244 11 8 288 207 370 265 28 20
74 53 103 75 30 21 56 36 59 33 4 -3 6 -1112 6 -2463 l0 -2458 -4484 -1 -4484
-1 0 2468 c0 1496 4 2465 9 2461 5 -3 131 -93 280 -199z"/>
</g>
</svg>
