<svg version="1.0" xmlns="http://www.w3.org/2000/svg" width="1365.333" height="1365.333" viewBox="0 0 1024 1024"><path d="M502.5 7.6c-4.9 4.2-10.1 8.6-11.5 9.8-1.4 1.1-7.9 6.6-14.5 12-6.6 5.5-12.2 10.2-12.5 10.6-.3.3-3.6 3.1-7.5 6.2-3.8 3.1-8.3 6.9-10 8.3-3.9 3.4-5.9 5.1-12.5 10.5-3 2.5-5.7 4.7-6 5-.4.4-7.8 6.6-14.5 12.2-2 1.6-9.2 7.6-35 29.2-7.1 6-15.2 12.8-18 15.2-4.7 3.9-14.3 11.9-24.4 20.3-2.5 2-6.3 5.2-8.5 7.2-2.3 1.9-16.2 13.6-31.1 26-14.8 12.3-27.2 22.6-27.5 22.9-.3.3-10.2 8.6-22 18.5s-25.5 21.3-30.5 25.4c-4.9 4.2-9.2 7.8-9.5 8.1-.3.3-3 2.5-6 5s-5.7 4.7-6 5c-.3.3-5.7 4.8-12 10s-11.7 9.7-12 10c-.3.3-12.6 10.7-27.5 23-22.6 18.9-40.2 33.5-50 41.8-1.1 1-18.6 15.6-39 32.7-20.3 17-40.9 34.2-45.7 38.3L0 428.1V1024h1024V428.1l-11.7-9.8c-6.5-5.4-12-10-12.3-10.3-.3-.3-8.6-7.3-18.5-15.6-9.9-8.2-18.9-15.7-20-16.6-1.1-.9-11.2-9.4-22.5-18.8s-21.4-17.9-22.5-18.8c-1.1-1-17.1-14.3-35.5-29.7-18.4-15.4-33.7-28.2-34-28.5-.4-.4-11.6-9.8-20.5-17.1-4.3-3.6-18.1-15.2-20.5-17.2-1.4-1.2-13.3-11.2-26.5-22.2-13.2-10.9-24.2-20.2-24.5-20.5-.3-.3-4.3-3.7-9-7.5s-8.7-7.2-9-7.5c-.3-.3-3.4-3-7-5.9-3.6-3-8.7-7.3-11.5-9.6-2.7-2.4-12-10.1-20.5-17.1-8.5-7.1-16-13.3-16.6-13.9-.6-.5-3.2-2.8-5.9-5-10.1-8.4-50.2-41.9-54.5-45.5-2.5-2.1-14.6-12.3-27-22.6-12.4-10.4-34.6-29-49.5-41.4C529.7 14.6 516.4 3.5 515 2.3 513.6 1 512.3 0 512 0c-.3 0-4.5 3.4-9.5 7.6zM92.4 494.7c14.9 10.7 28 20.1 29.1 20.9 6.9 4.9 20.5 14.6 23.3 16.6 1.8 1.3 3.9 2.7 4.5 3.3.7.5 2.8 2.1 4.7 3.5 5.6 3.9 75.8 54.1 84 60 4.1 3 13.8 9.9 21.5 15.5 7.7 5.5 15 10.7 16.2 11.5 2.7 1.9 56.3 40.3 68.1 48.8 4.8 3.5 10.3 7.4 12.2 8.8 1.9 1.4 8.7 6.3 15.1 10.9 6.4 4.6 14.1 10 17.1 12.2 2.9 2.1 16.3 11.7 29.7 21.3 13.4 9.6 26.6 19.1 29.4 21 2.9 1.9 5.7 3.9 6.4 4.5.6.5 4.5 3.4 8.6 6.4l7.6 5.4-7.7 5.4c-4.2 3-31.5 22.2-60.7 42.8-29.1 20.5-54.3 38.3-56 39.5-5.8 4.2-24.1 17.1-30.5 21.6-3.6 2.4-10.5 7.4-15.5 10.9-4.9 3.5-12.1 8.5-16 11.2-3.8 2.6-7.2 5-7.5 5.3-.3.3-3.1 2.3-6.2 4.4-5.8 3.9-6.9 4.9-4.6 4.1.7-.2 14.1-4.1 29.8-8.5 15.7-4.5 29.9-8.5 31.5-9.1 6.3-2 70.1-20.1 72.4-20.5 1.4-.3 2.8-.7 3.2-1 .7-.4 36.3-10.8 56.4-16.4 5.5-1.5 17.9-5.1 27.5-7.8 9.6-2.8 28.8-8.3 42.5-12.2 13.8-3.9 27-7.7 29.5-8.5 6-1.8 94.7-27.3 103-29.5 3.6-1 18.2-5.2 32.5-9.3 14.3-4.2 42.6-12.3 62.9-18.2 20.4-5.8 37.2-10.8 37.5-11 .2-.3-21.2-22.1-47.8-48.4l-48.2-47.9 24.2-17.4c13.2-9.5 25.7-18.5 27.7-19.9 2.1-1.4 23.1-16.4 46.7-33.4 23.7-16.9 57.9-41.4 76-54.4 18.2-12.9 33.5-23.9 34-24.4 1.1-.8 28.8-20.7 37-26.5 2.8-2 7.4-5.3 10.3-7.5 3-2.1 5.6-3.6 5.9-3.3.4.3.6 111.2.6 246.3v245.8l-448.4.1-448.4.1V720.9c0-149.6.4-246.5.9-246.1.5.3 13.1 9.3 28 19.9z"/></svg>