<svg xmlns="http://www.w3.org/2000/svg" width="306.542" height="149.405" viewBox="0 0 306.542 149.405">
  <path id="Path_943" data-name="Path 943" d="M3610.543,1713.983c22.438-.549,39.908-10.779,49.381-26.337s13.885-29.723,28.58-40.486a46.334,46.334,0,0,1,42.508-6.031c-7.843-24.023,1.559-52.62,22.126-67.3,11.556-8.249,27.083-12.127,40.248-6.811,16.629,6.714,25.065,26.285,24.341,44.2s-8.668,34.648-16.461,50.8c7.353-6.907,15.594-14.212,25.667-14.766s20.737,10.077,16.15,19.061a79.07,79.07,0,0,1,28.706-16.77c6.661-2.178,13.933-3.45,20.647-1.441s12.595,8.048,12.543,15.056c-.043,6.025-4.167,11.151-6.263,16.8-2.2,5.919-2,12.979,1.665,18.12s11.166,7.593,16.7,4.563" transform="translate(-3610.543 -1564.578)" fill="#fff" opacity="0.6"/>
</svg>
