<svg xmlns="http://www.w3.org/2000/svg" width="281.601" height="70.143" viewBox="0 0 281.601 70.143">
  <path id="Path_1077" data-name="Path 1077" d="M3659.195,879.847a411.023,411.023,0,0,1,43.458-25.708c12.47-6.376,28.347-11.886,39.634-3.6a123.809,123.809,0,0,1,47.542-36.272c9.1-3.917,19.746-6.676,28.7-2.436,14.462,6.849,15.786,26.561,15.015,42.544a321.858,321.858,0,0,1,32.813-16.7c7.416-3.255,18.492-4.875,21.465,2.658,1.833,4.647-1.019,10.317,1.28,14.752,2.364,4.558,8.55,5.108,13.684,5.062l38.012-.34" transform="translate(-3659.195 -809.704)" fill="#fff" opacity="0.6"/>
</svg>
