<svg xmlns="http://www.w3.org/2000/svg" width="192.874" height="48.042" viewBox="0 0 192.874 48.042">
  <path id="Path_1088" data-name="Path 1088" d="M3659.195,857.746a281.542,281.542,0,0,1,29.765-17.608c8.541-4.367,19.415-8.141,27.146-2.463a84.8,84.8,0,0,1,32.563-24.843c6.231-2.683,13.525-4.572,19.655-1.669,9.906,4.691,10.812,18.192,10.284,29.139a220.432,220.432,0,0,1,22.475-11.441c5.079-2.23,12.666-3.339,14.7,1.821,1.256,3.183-.7,7.067.877,10.1,1.619,3.122,5.856,3.5,9.372,3.467l26.035-.233" transform="translate(-3659.195 -809.704)" fill="#fff" opacity="0.6"/>
</svg>
