<svg xmlns="http://www.w3.org/2000/svg" xmlns:xlink="http://www.w3.org/1999/xlink" width="588.909" height="308.514" viewBox="0 0 588.909 308.514">
  <defs>
    <clipPath id="clip-path">
      <path d="M530.431,946.972c-73.214,6.469-148.171,11.182-214.364-23.71-87.712-46.236-91.18-112.539-79.838-134.954,16.667-32.941,43.834-32.285,69.951-35.172,29.437-3.254,66.651,14.167,95.8,13.386,13.095-.351,23.258-7.93,35.043-11.8,13.452-4.418,29.506-4.019,43.528-5.495,30.626-3.224,61.02-9.46,91.414-12.82s111-49.416,178.456-36.817c108.982,20.355,65.789,153.8,23.754,197.515-16.4,17.061-62.6,47.771-147.119,44.359C612.427,940.873,547.6,945.455,530.431,946.972Z" transform="translate(-231.581 -697.413)" fill="#fff"/>
    </clipPath>
    <linearGradient id="linear-gradient" x1="0.392" y1="0.387" x2="1.219" y2="0.771" gradientUnits="objectBoundingBox">
      <stop offset="0" stop-color="#2e3192"/>
      <stop offset="1" stop-color="#1b1464"/>
    </linearGradient>
    <radialGradient id="radial-gradient" cx="0.734" cy="0.314" r="0.783" gradientTransform="matrix(-0.95, 0, 0, 1.066, 0.941, -0.021)" gradientUnits="objectBoundingBox">
      <stop offset="0.656" stop-color="#2e3192"/>
      <stop offset="0.967" stop-color="#1b1464"/>
      <stop offset="1" stop-color="#2b3378"/>
    </radialGradient>
    <radialGradient id="radial-gradient-2" cx="0.885" cy="0.027" r="0.641" gradientTransform="matrix(-1.922, 0, 0, 1.066, 10.729, -0.002)" gradientUnits="objectBoundingBox">
      <stop offset="0.656" stop-color="#2e3192"/>
      <stop offset="1" stop-color="#1b1464"/>
    </radialGradient>
    <radialGradient id="radial-gradient-3" cx="0.668" cy="-0.027" r="0.606" gradientTransform="translate(0.149) scale(0.702 1)" gradientUnits="objectBoundingBox">
      <stop offset="0" stop-color="#fff"/>
      <stop offset="1" stop-color="#f7931e"/>
    </radialGradient>
    <clipPath id="clip-path-2">
      <path d="M328.017,786.126c-6.6,23.914-6.466,49.934,7.418,70.493s28.947,42.981,51.106,54.134c43.555,21.923,87.93,29.923,145.019,37.009,46.728,5.8,93.892,11.776,140.874,14.912,38.43,2.565,77.546,3.258,114.893-6.155s73.157-30.014,94-62.4c25.481-39.6,24.679-93.5,1.22-134.328s-67.5-68.134-114.094-74.928c-58.159-8.479-115.931,12.583-172.965,26.774a754.239,754.239,0,0,1-97.758,17.574c-27.1,3.049-55.07,2.021-81.776,7.755C400.233,740.34,337.589,751.429,328.017,786.126Z" transform="translate(-323.78 -682.91)" fill="none"/>
    </clipPath>
    <clipPath id="clip-path-3">
      <path d="M1703.124,2283.967c1.76-12.031.4-25.66-.4-37.777-1.4-21.317-3.17-41.335-1-62.725,2.223-21.919,7.275-31.066,10.926-58.316,0,0,27.316-2.259,30.276-1.3,8.01,2.6,12.216,4.992,18.28,10.568,8.079,7.428,13.668,18.059,16.739,28.279,3.7,12.323,12.44,14.083,24.075,18.24,16.713,5.971,13.446,21.952,25.838,31.766,12.457,9.865,27.343,8.495,40.727,2.077.221,10.709-.74,23.617-7.518,32.644,3.356-4.469-1.163-12.022-5.96-11.744-9.56,9.494-27.05,23.873-39.249,29.958-16.159,8.061-35.5,5.6-52.769,9.184-8.4,1.742-16.817,2.985-24.926,5.911C1722.943,2286.224,1703.124,2283.967,1703.124,2283.967Z" transform="translate(-1700.705 -2123.613)" fill="blue"/>
    </clipPath>
    <clipPath id="clip-path-4">
      <path d="M2387.473,1196.985c-1.905-3.734-6.121-5.669-10.166-5.851a17.337,17.337,0,0,0-13.009,5.208c-1.808,1.849-3.343,4.188-5.715,5.11-1.882.732-3.969.433-5.967.655a11.953,11.953,0,0,0-8.473,5.232c-2.446,3.661-3.079,8.761-6.57,11.335-5.994,4.418-14.379-3.794-19.165,2.861-3.152,4.383-1.874,11.063-3.718,16.022-5.393,14.508-22.961-1.458-32.368-1.407-12.658.068-15.234,13.62-14.61,24.5.7,12.1,4.6,21.9,13.466,29.876,15.989,14.373,42.6,15.907,62.19,10.972,10.875-2.74,22.47-7.612,29.864-16.831,10.339-12.892,15.09-33.465,14.892-49.73" transform="translate(-2267.627 -1191.119)" fill="#2e3192"/>
    </clipPath>
    <clipPath id="clip-path-5">
      <path d="M2444.622,1942.272c1.925-2.069,4.109-3.938,6.176-5.871a21.326,21.326,0,0,0,4.491-5.223c1.949-3.611,1.752-8.008,2.485-12.082,1.3-7.224,6.552-12.424,9.668-18.881,3.2-6.626,7.546-14.342,7.781-21.936.408-13.2-15.132-2-19.511,2.311-3.584,3.532-6.566,7.679-10.054,11.314-7.219,7.523-16.374,12.635-24.425,19.17-12.89,10.463-19.3,25.87-17.725,42.871,1.447,15.64,11,27.836,25.712,31.681,19.718,5.153,37.032-3.308,37.856-28.524.158-4.845,2.038-12.529-3.282-14.76C2458.984,1940.324,2445.2,1942.344,2444.622,1942.272Z" transform="translate(-2403.273 -1872.045)" fill="#f7931e"/>
    </clipPath>
    <clipPath id="clip-path-6">
      <path d="M2787.923,1913.8c5.943-19.656,8.652-47.151-.22-66.255-3.96-8.529-10.091-16.413-11.794-25.945-1.476-8.256,2.265-15.635,7.121-21.912,6.484-8.381,12.166-14.74,22.189-17.812a118.9,118.9,0,0,1,36.986-5.6c9,.109,18.271.251,24.667,7.831,5.243,6.212,5.569,14.663,3.007,22.208-8.389,24.706-40.068,50-26.654,78.232a88.094,88.094,0,0,0,17.208,24.3c2.433,2.362,5.592,4.437,6.723,7.708" transform="translate(-2775.583 -1776.268)" fill="#2e3192"/>
    </clipPath>
    <clipPath id="clip-path-7">
      <path d="M3297.491,1333.558c5.925-6.4,11.88-12.774,18.345-18.679,11.733-10.715,23.491-22.025,30.869-36.97,5.638-11.422,10.16-24.668,8.21-37.852-2.606-17.623-13.773-37.345-32.315-33.256-3.767.831-8.034,2.308-11.086,5.067a28.456,28.456,0,0,0-8.6,15.842c-.308,1.884-1.883,17.185.834,17.1a82.368,82.368,0,0,1,18.423,1.5c1.128.221,2.5.736,2.609,1.929a2.457,2.457,0,0,1-.68,1.706c-1.605,1.969-4.063,2.872-6.256,4.071s-4.39,3.1-4.571,5.678c-.083,1.18.267,2.434-.2,3.514a4.369,4.369,0,0,1-1.471,1.642c-5.491,4.211-12.3,6.052-18.267,9.479-16.907,9.706-15.4,39.3-13.217,56.49.7,5.523,1.223,12.428,4.064,16.824C3288.732,1343.055,3293.1,1338.3,3297.491,1333.558Z" transform="translate(-3278.812 -1206.257)" fill="#f7931e"/>
    </clipPath>
  </defs>
  <g transform="translate(-229.3 -482.337)">
    <g transform="translate(229.6 510.563)">
      <path d="M530.431,946.972c-73.214,6.469-148.171,11.182-214.364-23.71-87.712-46.236-91.18-112.539-79.838-134.954,16.667-32.941,43.834-32.285,69.951-35.172,29.437-3.254,66.651,14.167,95.8,13.386,13.095-.351,23.258-7.93,35.043-11.8,13.452-4.418,29.506-4.019,43.528-5.495,30.626-3.224,61.02-9.46,91.414-12.82s111-49.416,178.456-36.817c108.982,20.355,65.789,153.8,23.754,197.515-16.4,17.061-62.6,47.771-147.119,44.359C612.427,940.873,547.6,945.455,530.431,946.972Z" transform="translate(-231.581 -697.413)" fill="#b6ffe8"/>
      <g transform="translate(0 0)" clip-path="url(#clip-path)">
        <path d="M2093.325,740.01a37.675,37.675,0,0,1-6.856,14.227c-5.607,7.027-12.37,7.154-20.932,7.507-13.344.55-26.449-1.285-39.774-2.131-12.159-.772-24.414-1.54-36.484.116-8.879,1.219-17.559,3.739-26.479,4.614-9.479.93-19.028-.015-28.523-.763a691.249,691.249,0,0,0-79.615-1.672c-25.177.922-50.773,1.843-75.791,4.85-35.878,4.313-71.651,9.576-107.084,16.39q-7.128,1.371-14.236,2.826c-2.385.489-10.791,3.487-12.826,2.705-2.806-1.077-2.158-5.243-2.433-8.062l-1.865-19.076c-.01-.108,60.937-6.626,64.368-7L1807.258,743.4c16.916-1.839,34.548-1.848,51.11-4.755,14.329-2.515,27.271-4.446,41.956-4.031,16.555.468,32.812,3.461,49.411,3.381,8.633-.042,17.453-.669,25.411-4.015,8.536-3.59,15.5-10.055,23.431-14.836,16.85-10.158,37.464-7.021,56.092-13.637,4.461-1.584,8.936-3.458,12.459-6.62s5.979-7.848,5.39-12.544c-.947-7.544-9.209-10.947-15.711-12.41-8.864-2-17.884-4.229-26.9-6.242-20.932-4.672-42.566-5.653-63.934-4.5-29.306,1.587-58.234,7.123-87.1,12.413-62.776,11.5-125.89,21.922-189.588,25.9-7.033.439-14.342.757-20.86-1.921,2.624-2.083,6.009-2.89,9.275-3.637q168.672-38.568,340.234-62.594c8.772-1.228,17.786-2.418,26.41-.4,12.905,3.027,22.069,16.324,28.777,26.992,8.762,13.936,14.544,29.7,18.512,45.613,2.363,9.48,3.979,19.32,2.731,29.01A45.69,45.69,0,0,1,2093.325,740.01Z" transform="translate(-1455.531 -640.474)" fill="#b6ffe8"/>
        <path d="M3610.543,1648.927c12.668-.31,22.531-6.085,27.879-14.869s7.839-16.78,16.135-22.857a26.159,26.159,0,0,1,24-3.4c-4.428-13.562.88-29.707,12.492-38,6.524-4.657,15.29-6.846,22.723-3.845,9.388,3.79,14.151,14.839,13.742,24.955s-4.894,19.561-9.293,28.679c4.151-3.9,8.8-8.024,14.491-8.336s11.707,5.689,9.117,10.761a44.643,44.643,0,0,1,16.207-9.468c3.761-1.23,7.866-1.948,11.656-.813s7.111,4.544,7.082,8.5c-.025,3.4-2.352,6.3-3.536,9.484-1.24,3.342-1.13,7.328.94,10.23s6.3,4.286,9.43,2.576" transform="translate(-3167.091 -1450.772)" fill="#fff"/>
        <path d="M3659.2,849.3a232.043,232.043,0,0,1,24.535-14.513c7.04-3.6,16-6.711,22.376-2.03a69.9,69.9,0,0,1,26.841-20.478c5.136-2.212,11.148-3.769,16.2-1.375,8.165,3.867,8.912,15,8.477,24.019a181.73,181.73,0,0,1,18.525-9.43c4.187-1.838,10.44-2.752,12.118,1.5,1.035,2.623-.575,5.825.723,8.329,1.335,2.573,4.827,2.883,7.725,2.858l21.46-.192" transform="translate(-3209.357 -794.967)" fill="#fff"/>
      </g>
    </g>
    <path d="M233.723,690.974c-10.782,22.342-.157,64.421,13.727,84.979s35.33,34.805,57.488,45.959c43.555,21.923,91.46,33.779,139.417,42.6a1226.216,1226.216,0,0,0,140.094,17.5c38.43,2.565,54.226,1.929,92.076-5.2,76.644-14.436,105.751-120.909,89.243-192.791-12.6-54.858-63.914-94.361-120.346-95.148-58.768-.82-83.622,24.256-138.851,44.359-33.611,12.234-57.876,20.736-103.285,24.279C376.092,659.63,277.426,600.419,233.723,690.974Z" transform="translate(0 -92.535)" fill="#b6ffe8" style="mix-blend-mode: multiply;isolation: isolate"/>
    <g transform="translate(313.517 507.42)">
      <path d="M1221.633,1858.319c-7.481,0-55.777-8.531-79.662-13.649-7.008-1.5-2.615-20.087-2.114-26.127.7-8.374,1.563-16.735,2.015-25.128.266-4.936-.277-8.842,1.141-13.859,1.565-5.535,4.077-11.255,4.364-17.048.25-5.047.823-9.3,3.3-13.751,2.536-4.562,6.006-3.7,10.836-4.483l59.418-9.63" transform="translate(-1102.993 -1595.376)" fill="url(#linear-gradient)"/>
      <path d="M1682.916,787.495c15.129-5.845,21.071-10.69,31.092-19.38s14.94-16.468,23.167-26.872c3.763-4.758,9.106-13.07,12.824-17.864l-3.448-8.529c-8.659,8.146-17.557,16-26.286,24.068a89.484,89.484,0,0,1-40.787,23.362" transform="translate(-1573.373 -709.418)" fill="#fff1e0"/>
      <path d="M1499.939,1077.808c-7.391,1.934-19.258.589-23.483-6.889-4.374-7.743,4.008-14.35,10.238-17,2.228-.947,26.914-11.262,27.492-9.8a203.608,203.608,0,0,1,7.139,21.4C1514.754,1070.556,1507.95,1075.712,1499.939,1077.808Z" transform="translate(-1395.942 -995.35)" fill="#1b1464"/>
      <path d="M2147.782,637.855a58.934,58.934,0,0,1,8.984-8.078c1.379-.934,2.834-1.748,4.287-2.561l13.323-7.458a6.928,6.928,0,0,1-2.649,4.465c-1.348,1.157-2.914,2.032-4.291,3.154a2.47,2.47,0,0,0-.836,1.009,2.247,2.247,0,0,0-.022,1.177c.228,1.2.772,2.317,1.046,3.507a3.9,3.9,0,0,1-.591,3.472,4.819,4.819,0,0,1-1.781,1.1,50.108,50.108,0,0,1-6.2,2.153,9.787,9.787,0,0,0-3.272,1.3,8.386,8.386,0,0,0-1.864,2.13,72.094,72.094,0,0,0-3.978,6.548" transform="translate(-1980.218 -626.805)" fill="#fff1e0"/>
      <g id="Group_1555" data-name="Group 1555">
        <path d="M1698.87,1451.443c.963.2,1.847.626,2.8.855,1.053.253,2.152.243,3.211.5.234.057.385.184.657.133.582-.11,1.154-.338,1.741-.49,1.5-.388,2.982-.437,4.452-.936.55-.186,1.361-.3,1.676-.871a1.122,1.122,0,0,0-.1-1.061c-.08-.191-.12-.466-.2-.68a12.442,12.442,0,0,0-.874-1.771,15.169,15.169,0,0,0-.846-1.259q-.542-.944-.995-1.934c-.955-1.8-2.049-3.581-3.131-5.311-1.037-1.658-1.906-3.411-2.954-5.059a51.049,51.049,0,0,0-3.465-4.87c-.681-.839-1.283-1.738-1.978-2.56-.318-.377-.712-1.129-1.179-1.329-.381-.163-.359-.072-.8.143-1.487.732-3.115,1.016-4.575,1.859-1.818,1.049-3.629,2.077-5.452,3.112a7.472,7.472,0,0,0-1.72,1.182,15.537,15.537,0,0,1-1.188,1.292c-.631.525-1.274,1-1.848,1.568a6.2,6.2,0,0,0-1.107,1.207c-.3.643.182,1.168.412,1.694.335.763.469,1.563.866,2.308.453.849,1.093,1.589,1.577,2.42a11.035,11.035,0,0,0,2.9,3.482,17.828,17.828,0,0,0,3,2.274,12.126,12.126,0,0,1,1.58,1.037,22.906,22.906,0,0,0,2.659,1.328c.512.26.985.514,1.515.729a14.487,14.487,0,0,0,1.319.676C1697.491,1451.3,1698.2,1451.3,1698.87,1451.443Z" transform="translate(-1574.611 -1326.121)" fill="#ffc3c1"/>
        <path d="M1112.06,1196.866c-2.35-8.317-5.939-16.079-9.236-24.537-3.79-9.721-7.141-24.113,1.491-32.329,3.343-3.182,8.137-3.907,12.543-4.513,6.771-.931,13.53-1.964,20.271-2.871,6.6-.888,13.327-2.814,19.948-.94,7.891,2.234,13.674,9.306,16.5,17,3.968,10.792,2.254,20.876,2.442,31.869.2,11.663,3.353,23.017,4.23,34.616.195,2.574.244,5.307-1.015,7.56-2.52,4.509-10.722,2.775-15.03,2.9-7.211.2-14.429.269-21.637-.082a123.729,123.729,0,0,1-15.727-1.817c-4.263-.757-8.856-1.384-11.031-5.733-1.066-2.133-1.128-4.605-1.274-6.985A66.409,66.409,0,0,0,1112.06,1196.866Z" transform="translate(-1068.978 -1070.851)" fill="#f15a29"/>
        <path d="M1143.5,1309.379a77.206,77.206,0,0,0-5.6,34.094,56.562,56.562,0,0,0-3.517-8.822l-6.517-14.01a116.026,116.026,0,0,0,10.651-9.084c3.351-3.227,6.293-6.712,7.731-11.2C1147.281,1302.452,1144.324,1307.381,1143.5,1309.379Z" transform="translate(-1094.155 -1218.082)" fill="#e6360c"/>
        <path d="M1183.652,1155.638c-5.415-.751-10.772-1.571-16.095-2.85l21.021-3.743a1.037,1.037,0,0,1,.525,0c.641.227,1.1,1.269,1.715,1.672.786.519,1.754.942,2.588,1.4a38.84,38.84,0,0,0,6.348,2.713c1.752.584,3.536,1.068,5.33,1.5,1.565.378,3.853.463,5.189,1.271-.737,2.628-10.685.907-12.742.585C1192.883,1157.458,1188.314,1156.285,1183.652,1155.638Z" transform="translate(-1128.637 -1086.599)" fill="#e6360c"/>
        <path d="M1307.4,728.316c-.387-3.915-.617-7.8-1.929-11.529-1.745-4.959-4.6-5.669-8.761-7.685-.782-.379-1.563-.837-2.372-1.148a4.655,4.655,0,0,0-1.231-.293c-1.911-.261-3.608-1.537-5.5-1.7a22,22,0,0,0-5.684.329,6.047,6.047,0,0,0-1.8.514c-.524.28-1.022.6-1.555.872a7.41,7.41,0,0,0-1.894,1.127,11.272,11.272,0,0,0-1.26,1.021,8.676,8.676,0,0,0-.966,1.078,12.17,12.17,0,0,0-1.028,2.189c-.271.775-.366,1.577-.586,2.362-.144.515-.415.976-.558,1.492-.236.856-.336,1.752-.554,2.615-.664,2.63-.194,5.341-.458,8.043a15.933,15.933,0,0,0,.853,6.7c1.277,3.715,3.521,7.079,4.919,10.779,2.287,6.055,3.725,13.628,1.786,19.969a36.122,36.122,0,0,0,21.775,8.031,1.793,1.793,0,0,0,1.08-.21c.556-.388.511-1.21.406-1.88-.7-4.478-1.892-9-2.372-13.482-.373-3.484.981-5.8,4.664-6.177l-5.417-2.064a14.73,14.73,0,0,0,2.229-.957,12.749,12.749,0,0,0,3.565-2.795,15.641,15.641,0,0,0,3.286-5.171C1309.345,736.574,1307.777,732.139,1307.4,728.316Z" transform="translate(-1218.68 -701.637)" fill="#fff1e0"/>
        <path d="M1324.962,681.28c-1.616-7.1-8.186-9.151-15.586-7.02-4.053,1.167-9.969,4.464-10.207,9.014,8.49-4.764,17.12.085,26.06-.42A14.569,14.569,0,0,0,1324.962,681.28Z" transform="translate(-1242.975 -673.459)" fill="#1b1464"/>
        <path d="M1324.857,847.874a2.879,2.879,0,0,1,2.007,1.874c.271,1-.188,2.056-.168,3.1a5.214,5.214,0,0,0,2,3.613c1.062.94,2.3,1.667,3.32,2.654,3.835,3.717,3.258,12.045-.948,15.33-4.181,3.265-10.848,2.771-15.726,1.773-6.215-1.272-12.469-3.74-16.547-9.013a16.843,16.843,0,0,1-3.5-8.626c-.207-2.926,1.417-4.889,2.081-7.561.907-3.646-3.326-12.643-7.114-7.141.134-1.981,1.206-2.735,2.408-4.107,1.486-1.7,3.408-3.055,4.715-4.887-1.092,1.531.818,4.643,1.811,5.737a36.914,36.914,0,0,1,5.216,6.549,19.454,19.454,0,0,0,3.092,4.729c1.37,1.3,3.553,2.008,5.177,1.039,1.589-.948,2.059-3.065,3.432-4.3,1.623-1.465,4.071-1.386,6.251-1.221A9.752,9.752,0,0,1,1324.857,847.874Z" transform="translate(-1235.245 -813.694)" fill="url(#radial-gradient)"/>
        <path d="M881.175,1195.274c-2.661,2.3-7.514,5.622-10.175,7.92,6.21,6.576,15.094,11.67,22.2,17.271,1.019.793,14.666-10.818,16.36-12.017,5.405-3.823,10.678-8.352,13.025-14.388s.8-13.869-5.008-17.029c-3.9-2.124-8.879-1.734-13.024-.028-5.819,2.394-10.194,6.9-14.86,10.922Z" transform="translate(-871 -1109.68)" fill="#1b1464"/>
        <path d="M1261.96,757.2c-.354.438-.7.886-1.028,1.348-1.654,2.323-2.77,5.32-1.866,8.025-1.887-3.337-2.576-7.005-3.51-10.666-.97-3.8-1.431-7.967-.149-11.751,1.186-3.5,4.461-5.142,8.019-4.932,2.1.124,3.983.185,4.841,2.3a9.513,9.513,0,0,1,.163,6.16C1267.288,751.6,1264.407,754.17,1261.96,757.2Z" transform="translate(-1204.275 -730.576)" fill="url(#radial-gradient-2)"/>
        <g transform="translate(54.284 18.342)">
          <g transform="translate(31.84 0.639)">
            <path d="M1531.68,830.528c2.209-.148,3.819-3.058,3.589-6.487s-2.214-6.1-4.422-5.95-3.819,3.058-3.589,6.487S1529.471,830.676,1531.68,830.528Zm-.755-11.27c1.642-.11,3.131,2.066,3.317,4.852s-1,5.141-2.64,5.251-3.13-2.066-3.317-4.852S1529.282,819.368,1530.925,819.258Z" transform="translate(-1527.236 -818.084)" fill="#f7931e"/>
          </g>
          <g transform="translate(21.102)">
            <path d="M1450.579,826.944c2.582-.173,4.476-3.391,4.222-7.173s-2.56-6.718-5.141-6.545-4.475,3.391-4.222,7.173S1448,827.117,1450.579,826.944Zm-.841-12.551c2.016-.135,3.826,2.308,4.036,5.447s-1.258,5.8-3.274,5.936-3.826-2.308-4.036-5.447S1447.723,814.528,1449.738,814.393Z" transform="translate(-1445.415 -813.219)" fill="#f7931e"/>
          </g>
          <g transform="translate(0 2.198)">
            <path d="M1285.793,838.222a7.48,7.48,0,0,1,1.859-3.648l18.848-3.218.488-1.389-19.927,3.52-.135.144c-.088.094-2.156,2.321-2.3,4.513Z" transform="translate(-1284.625 -829.967)" fill="#f7931e"/>
          </g>
          <g transform="translate(29.767 4.7)">
            <path d="M1514.436,850.425l.029-1.252-3-.143-.029,1.252Z" transform="translate(-1511.437 -849.03)" fill="#f7931e"/>
          </g>
        </g>
      </g>
      <path d="M1495.74,963.342l-2.045.108a6.126,6.126,0,0,0-2.123.367,2.076,2.076,0,0,0-1.314,1.591c.544.742,1.647.7,2.56.578.992-.13,3.553.013,4.279-.727C1498.13,964.207,1496.722,963.342,1495.74,963.342Z" transform="translate(-1408.987 -925.298)" fill="#fff"/>
      <path d="M1170.314,1857.408c-2.3,9.438-3.023,17.215-4.612,27.166-3.153,19.749-9.386,44.377-11.85,64.317l3.957,3.51c1.072-8.995,3.335-24.579,5.164-33.238,1.911-9.05,4.216-17.8,5.844-27.042,2.055-11.668,3.49-22.3,5.922-33.716" transform="translate(-1116.731 -1702.027)" fill="#fff"/>
      <path d="M1234.883,1872c-2.3,9.438-2.592,18.187-4.181,28.138-3.153,19.749-9.386,44.377-11.85,64.317l3.957,3.51c1.072-8.995,3.335-24.579,5.164-33.238,1.912-9.05,4.216-17.8,5.844-27.042,2.055-11.669,2.247-23.873,5.528-34.635" transform="translate(-1173.2 -1714.704)" fill="#fff"/>
    </g>
    <g transform="translate(477.777 500.189)">
      <path d="M2558.841,929.275c.678-3.018,3.489-5.163,6.447-6.068s6.111-.823,9.2-.967c4.6-.214,9.347-1.01,13.187-3.561,1.566-1.041,2.943-2.348,4.526-3.362,3.989-2.553,8.082-2.009,12.352-3.256,4.815-1.4,1.8-3.063,1.95-6.618.063-1.452,1.522-2.394,2.839-3.01a41.879,41.879,0,0,1,17.242-3.9,31.591,31.591,0,0,1,8.182.8c2.7.7,5.263,1.871,8.09,1.974-6.7,18.23-35.649,40.314-47.307,58.929" transform="translate(-2501.591 -861.759)" fill="blue"/>
      <path d="M2155.931,1182.284a18.666,18.666,0,0,1-4.775.65c-6.127-.253-15.807-4.586-20.3-8.739a22.363,22.363,0,0,1-5.537-9.245c-3.1-8.894-3.1-18.292-2.159-27.552.778-7.66-.419-14.983,5.346-21.085,5.708-6.041,15.018-7.621,22.112-11.44a19.773,19.773,0,0,0,5.02-3.62c4.447-4.66,3.647-12.329,10.737-14.477,5.344-1.619,11.257-.221,16.616.61,3.419.53,8.9,1.59,9.919,5.437,4.01-2.116,8.505,1.638,12.243,3.3,4.442,1.963,8.718,4.645,11.2,8.961,2.959,5.15,4.166,10.558,1.35,15.787-6.922,12.854-2.062,47.936-4.2,60.2-.671,3.84-13.067,1.708-17.358,1.512-7.184-.327-14.191-.843-21.4-.525-1.768.078-3.462.115-5.133.234-3.806.262-7.351-1.015-11.25-.474C2157.547,1181.929,2156.74,1182.1,2155.931,1182.284Z" transform="translate(-2122.613 -1024.654)" fill="blue"/>
      <path d="M2385.9,708.109c-1.225-3.045-4.054-5.2-5.374-8.268-1.758-4.087-3.436-8.492-3.711-12.975a16.444,16.444,0,0,1,1.322-8.335c2-3.818,6.3-5.694,10.225-6.762.669-.182,1.105-.415,1.764-.589a9.947,9.947,0,0,1,3.757.13c2.947.359,5.805.249,8.721,1.034a17.737,17.737,0,0,1,11.449,10.016,9.138,9.138,0,0,1,.353,4.856c-.19,1.568-.817,3.011-.584,4.615a2.979,2.979,0,0,0,.385,1.177,3.951,3.951,0,0,0,1,.967q1.259.958,2.49,1.952a2.827,2.827,0,0,1,.709.734,2.192,2.192,0,0,1-.2,2.149c-.67,1.145-1.682,2.028-1.9,3.394a9.984,9.984,0,0,0,.01,2.433q.292,3.378.583,6.756a4.777,4.777,0,0,1-.423,3.074,4.5,4.5,0,0,1-1.111,1.059,7.965,7.965,0,0,1-4.238,1.76,28.231,28.231,0,0,1-5.453,0c-.17,5.651,1.7,10.443,3.86,15.99-7.937-1.741-19.092-1.479-23.729-2.222q.826-8.987.783-18.026a15.181,15.181,0,0,0-.405-4.079A8.384,8.384,0,0,0,2385.9,708.109Z" transform="translate(-2343.409 -664.123)" fill="#f7931e"/>
      <path d="M2366.438,654.806q.163.2.32.4a17.92,17.92,0,0,1-1.3-3.107,4.246,4.246,0,0,1-.089-3.017,3.942,3.942,0,0,1,2.684-1.869,2.455,2.455,0,0,1,1.177-.1c.908.206,1.36,1.239,1.471,2.164a7.658,7.658,0,0,0,.469,2.732,1.253,1.253,0,0,0,.763.678c1.3.3,2.138-3.02,2.335-3.888a25.3,25.3,0,0,0,.372-9.506,20.988,20.988,0,0,0-3.889-8.9c.576-.423.866-.086,1.406.068a8.126,8.126,0,0,0,2.266.252c1.766.013,3.531-.08,5.3-.165,1.863-.09,14.752.621,15.2-.786.169-.532-2.075-4.306-2.384-4.959a11.16,11.16,0,0,0-14.852-5.419c-1.378.64-2.608,1.552-3.923,2.313a20.232,20.232,0,0,1-12.58,2.539c.834,2.169,3.3,4.859,5.828,4.864a12.264,12.264,0,0,0-6.745,11.108,23.293,23.293,0,0,0,1.1,6.732,18.634,18.634,0,0,0,1.045,2.82C2363.331,651.69,2365.057,653.151,2366.438,654.806Z" transform="translate(-2329.069 -618.365)" fill="#1b1464"/>
      <path d="M2287.4,1755.622c2.47,3.293,5.946,3.294,9.152,4.683,2.5,1.084,4.52,4.154,7.506,4,0-2.011-2.853-3.749-3.657-5.573,2.817.371,6.319,6.834,9.6,5.408-.013-1.7-2.574-3.869-3.2-5.533,2.67,1.621,5.626,3.947,8.84,3-.393-1.875-2.351-4.01-3.243-5.79-.7-1.393-1.2-2.857-1.884-4.255-1.993-4.058-5.257-3.561-9.047-2.91-2.209.38-8.576,2.517-10.31.206" transform="translate(-2265.777 -1599.93)" fill="#01cfd7"/>
      <path d="M2732.639,697.95c3.7.778,7.655.856,11.407,1.591,9.219,1.806,18.488,2.684,27.6,5.327,6.735,1.952,15.812,4.566,20.337,9.961,3.73,4.448,2.78,10.416-.444,14.418-5.021,6.232-18.313.982-24.826-1.491-3.584-1.361-6.45-3.943-9.875-5.59-3.183-1.531-6.649-.911-9.567-2.2-2.855-1.265-3.826-5.157-6.491-6.884-2.4-1.556-6.559-.183-8.484-1.99-1.137-1.068-.017-7.007.045-8.49A24.664,24.664,0,0,1,2732.639,697.95Z" transform="translate(-2651.845 -687.505)" fill="blue"/>
      <path d="M2423.667,1251.475c.378,2.474,2.2,5.833,3.153,7.483,6.424-1.071,12.865-3.938,16.512-9.57a27.535,27.535,0,0,0,4.017-13.321c.172-2.823.047-5.736,1.047-8.382.86-2.274,2.491-4.173,3.528-6.372,1.642-3.483,1.7-7.476,1.724-11.327.017-2.559.163-5.057.29-7.636a23.4,23.4,0,0,0,1.824-2.828,1.57,1.57,0,0,0,.256-.782,1.625,1.625,0,0,0-.354-.818l-4.064-6.005c-.061,1.518-1.017,2.861-1.275,4.359a4.89,4.89,0,0,0,1.041,3.9,1.854,1.854,0,0,1,.513.844,1.519,1.519,0,0,1-.122.709,45.737,45.737,0,0,1-6.083,11.749c-2.964,3.994-6.758,7.908-7.448,13.054-.455,3.386.515,7.072-1.064,10.1-1.425,2.735-4.489,4.093-7.016,5.861-2.278,1.593-5.662,4.486-6.446,7.293A4.109,4.109,0,0,0,2423.667,1251.475Z" transform="translate(-2384.096 -1116.645)" fill="#fff"/>
      <path d="M2446.815,712.49c3.315,1.092,6.57,2.363,9.913,3.4,3.069.948,6.336,2.242,9.571,2.317,1.515.035,3.377.018,4.105,1.347a3.078,3.078,0,0,1,.2,2c-.169.988-.53,1.935-.7,2.923a3.925,3.925,0,0,0,.443,2.9,21.093,21.093,0,0,0-12.094-5.82,9.543,9.543,0,0,0-3.922.189,5.58,5.58,0,0,0-3.525,3.826c-1.888,5.391-.144,11.563,3.319,16.106a29.718,29.718,0,0,0,6.4,6.056c1.226.878,2.5,1.686,3.8,2.443.614.357,1.243.684,1.867,1.017.368.2,1.285.878,1.734.71-1.577.587-3.328.188-5.01.248a1.059,1.059,0,0,0-.616.159,1.142,1.142,0,0,0-.259,1.041l.445,4.981c-2.007-2.5-3.7-5.41-6.021-7.629a31.606,31.606,0,0,0-7.763-5.342,4.446,4.446,0,0,0-1.932-.6c-2.784,0-1.673,4.945-1.451,6.591a97.612,97.612,0,0,0,3.15,14.691,17.315,17.315,0,0,0-6.552-.089q.654-7.751.806-15.535c.082-4.192-1.16-8.219-.429-12.41.505-2.893,1.651-5.641,2.209-8.525a27.09,27.09,0,0,0,.471-8.639c-.246-1.909-.759-3.732-1.148-5.609a9,9,0,0,0-2.294-4.251C2443.322,711.4,2445.077,711.918,2446.815,712.49Z" transform="translate(-2399.676 -698.827)" fill="#f15a24"/>
      <path d="M2501.948,719.429a12.716,12.716,0,0,1,2.006.062c1.978.219,3.62,1.338,5.6.891,4.347-.982,8.167-5.51,12.956-2.263a36.05,36.05,0,0,0,.656-7.349c-.026-.561-7.579-.775-8.771-.888a37.85,37.85,0,0,0-6.065-.318,53.212,53.212,0,0,0-6.26.942,53.033,53.033,0,0,1-5.5,1.053,32.053,32.053,0,0,1-5.139-.152.694.694,0,0,0-.35.03.472.472,0,0,0-.165.621,5.157,5.157,0,0,0,1.53,1.365,10.41,10.41,0,0,0,2.037,1.045,52.984,52.984,0,0,0,8.3,2.63,16.178,16.178,0,0,0-3.742,1.155,3.637,3.637,0,0,0-1.866,1.48.544.544,0,0,0-.047.519c.154.252.535.163.809.052A12.278,12.278,0,0,1,2501.948,719.429Z" transform="translate(-2442.537 -697.562)" fill="#f7931e"/>
      <path d="M2438.033,843.157c1.013,2.929-.257,6.289-2.474,8.454a18.273,18.273,0,0,1-8.215,4.13c-9.2,2.463-19.2,2.079-27.813,6.15-.96.454-1.991,1.08-2.23,2.115,3.294.52,6.652-.047,9.987-.074s6.933.62,9.242,3.027a2.161,2.161,0,0,1,.636,1.052c.19,1.029-.885,1.814-1.836,2.249-8.713,3.985-17.984,2.245-27.139,2.026-9.29-.222-18.225,2.828-27.338,2.445A21.161,21.161,0,0,1,2374,889.573q-6.036-3.478-11.839-7.34c.978,5.238-1.324,10.972-3.245,15.795a116.684,116.684,0,0,0-37.225-4.619" transform="translate(-2295.565 -813.656)" fill="none" stroke="#a0edfc" stroke-linecap="round" stroke-miterlimit="10" stroke-width="2"/>
      <path d="M2158.326,1354.428a25.537,25.537,0,0,0,3.789-14.825,18.8,18.8,0,0,0-6.91-13.418A16.473,16.473,0,0,0,2146,1322.8c-3.843-.184-8.088,1.338-9.793,4.786" transform="translate(-2134.422 -1230.336)" fill="none" stroke="#a0edfc" stroke-linecap="round" stroke-miterlimit="10" stroke-width="2"/>
    </g>
    <path d="M1147.14,1721.081a7.614,7.614,0,0,0,4.108,1.146,5.241,5.241,0,0,0,1.3-.164c3.755-1.014,5.764-5.423,9.26-6.925a8.956,8.956,0,0,1,7.168.4,23.215,23.215,0,0,1,5.93,4.362c-.947.975-2.591.775-3.795.146a31.34,31.34,0,0,0-3.5-2.069,33.509,33.509,0,0,0,4.084,7.221,3.119,3.119,0,0,1,1,2.089c-.077.79-1.325,1.307-1.655.585a1.248,1.248,0,0,1-1.011,1.532,3.373,3.373,0,0,1-2.019-.409,33.11,33.11,0,0,1-4.959-2.74,21.629,21.629,0,0,0,1.448,4.6c-.364,1.585-3.5-.651-4.377-.666a18.5,18.5,0,0,0-2.838.355c-2.986.416-10.337-.981-13.282-1.628" transform="translate(-794.655 -1080.509)" fill="#fff1e0"/>
    <g transform="translate(246.482 525.377)">
      <path d="M1077.01,1796.576c-.15,1.12.486,2.6.728,3.658.7,3.05.947,6.2,1.69,9.217.6,2.447.576,4.849.992,7.254.511,2.957,1.928,5.948,2.792,8.829,1.774,5.916,2.734,8.889,3.3,15.064.394,4.331-1.05,14.043-10.1,29.013-.856-4.491-1.195-9-1.925-13.53-.365-2.261-.463-4.568-.9-6.818-.728-3.7-2.012-7.325-2.832-11.012-.729-3.277-1.035-6.613-1.765-9.874-.739-3.3-1.172-6.775-1.639-10.127-.339-2.43-1.006-4.865-1.163-7.318a33.951,33.951,0,0,0-.747-5.946c-.156-.621-.218-1.273-.363-1.883a5,5,0,0,1-.384-1.668" transform="translate(-972.226 -1667.136)" fill="#f15a29"/>
      <path d="M630.145,2279.457s4.725,28.873,4.987,31.628c0,0-68.376-16.667-84.124-32.81,0,0-2.86-8.879,9.055-8.4C581.52,2270.74,624.4,2281.01,630.145,2279.457Z" transform="translate(-525.707 -2078.304)" fill="#f7931e"/>
      <g>
        <g>
          <path d="M470.866,1431.537c-3.057-7.049-5.393-14.446-7.949-21.709a37.952,37.952,0,0,0-2.9-6.73c-4.786-8.133-14.111-10.2-22.488-12.644a33.84,33.84,0,0,0-6.559-1.367,12.439,12.439,0,0,1-1.72-.5,7.343,7.343,0,0,1-2.165-.435l-18.71,1.841c-2.8.276-5.348,2.052-7.839,3.13-2.681,1.16-5.648,1.375-8.482,2.085-5.9,1.478-11.741,3.926-15.976,8.437-4.893,5.213-6.769,12.524-8.22,19.369-1.512,7.134-2.288,14.4-3.537,21.576a17.018,17.018,0,0,1-1.221,4.451c3.337-.164,6.32.837,9.534,1.437,3.3.615,6.556,1.43,9.778,2.357a6.527,6.527,0,0,1,2.9,1.389,6.446,6.446,0,0,1,1.417,3.936c1.867,15.579,1.57,31.424.377,47.039,8.4,1.05,17.061,4.725,25.067,6.824,20.384,5.347,44.49,11.287,55.121,2.362-.263,2.756-1.165-18.175-1.391-19.205q-1.9-8.629-3.344-17.348c-1.538-9.267-1.415-18.953-3.024-28.052-.1-.586-.178-1.14-.245-1.723-.031-.273.058-.424-.177-.624.6.155,1.571-.493,2.139-.743,1.448-.635,3-.911,4.5-1.446.933-.332,9.565-4.785,9.963-4.116A84.39,84.39,0,0,1,470.866,1431.537Z" transform="translate(-362.725 -1312.313)" fill="blue"/>
          <path d="M651.713,1225.6a98.81,98.81,0,0,0,10.605.772c1.46.012,2.885-.279,4.356-.269a16.234,16.234,0,0,0,3.193-.2c1.52-.284,3.067.048,4.577-.28.668-.145,1.24-.46,1.909-.617a13.642,13.642,0,0,0,4.052-1.442c.59-.345,3.3-2.38,3.8-2.321-4.751-.554-10.088-2.863-12.524-7.226a15.115,15.115,0,0,1-1.275-3.492q-.559-2.081-1.039-4.182c-.255-1.115-.187-2.345-.439-3.409-.038-.157-.167-.194-.206-.354a2.653,2.653,0,0,1,.01-.57,5.583,5.583,0,0,0,.013-1.125c-.1-.43-.579-.432-.952-.562a16.654,16.654,0,0,0-1.685-.63c-.8-.188-1.613-.307-2.4-.528-1.779-.5-3.6-.774-5.321-1.443-2.236-.866-4.567-1.381-6.745-2.386-.5-.23-.915-.468-1.44-.654a16.023,16.023,0,0,1-1.83-.7c-.832-.419-1.591-.9-2.374-1.361.6.637.541,1.507.853,2.265.26.63.685,1.151.966,1.772a44.8,44.8,0,0,1,1.959,6.452q1.809,6.524,3,13.2a4.078,4.078,0,0,1,0,2.094,3.944,3.944,0,0,1-1.831,1.824,38.313,38.313,0,0,1-6.115,3.015,35.558,35.558,0,0,1,3.517,1.532A13.386,13.386,0,0,0,651.713,1225.6Z" transform="translate(-607.482 -1142.441)" fill="#f15a29"/>
          <path d="M377.917,1861.818l1.052.2c1.831.354,3.358,1.068,5.116,1.506-.206,5.112-1.518,10.424-2.29,15.5a39.99,39.99,0,0,0-.681,8.853c.388,5.4,3.51,11.793,6.52,16.224,3.487,5.134,7.47,7.42,11.01,12.514.1.141,5.062,2.953,5.118,2.887-.389.457,1.444,6.562-6.431,9.712-12.169-5.795-24.56-16.537-34.508-25.631-3.448-3.152-2.5-6.949-2.445-11.266q.082-6.9.77-13.774c.658-6.569,1.18-13.127,2.163-19.692Q370.6,1860.394,377.917,1861.818Z" transform="translate(-360.219 -1721.24)" fill="#f15a29"/>
          <path d="M561.016,864.987a68.247,68.247,0,0,1-5.821-8.476,6.987,6.987,0,0,1-.9-2.067c-.411-2.019.9-3.959,2.229-5.531,5.287-6.238,16.238-16.686,25.124-11.653,4.331,2.453,7.255,6.626,9.341,11.043,1.5,3.168,4.634,8.251,4.609,11.781" transform="translate(-528.754 -832.566)" fill="url(#radial-gradient-3)"/>
          <path d="M610.188,964.319c.071-.708.427-1.33.482-2.044a11.572,11.572,0,0,1,.042-2.023c.6-2.482,4.045-4.866,6.044-6.238a20.247,20.247,0,0,1,9.956-4.019c5.036-.453,8.7,1.541,13.118,3.488,2.369,1.045,3.359,3.03,3.877,5.445.5,2.343.06,5.093,2.293,6.512,1.059.673,2.326,1.271,2.757,2.449.642,1.753-.952,3.5-1.22,5.349-.236,1.626.571,3.194,1.031,4.771,1.305,4.479-.184,10.447-4.852,12.131-3.682,1.329-7.683,1.441-11.6,1.359a30.3,30.3,0,0,1-6.387-.643,17.458,17.458,0,0,1-9.809-6.578c-2.442-3.277-3.474-7.568-4.667-11.412A21.614,21.614,0,0,1,610.188,964.319Z" transform="translate(-577.31 -931.602)" fill="#f15a29"/>
          <path d="M673.313,836.691c1.792-1.583,3.29-3.268,5-5.013,2.269-2.315,5.243-3.88,7.573-6.151,2.251-2.194,4.29-4.633,6.574-6.77,3.781-3.538,7.1-7.5,12.414-8.243,2.815-.393,6.024-.509,8.232,1.644a6.847,6.847,0,0,1,1.765,3.571c1.15,5.589-2.224,10.22-5.989,13.937a64.116,64.116,0,0,1-5.877,5.042c-1.023.791-2.068,1.554-3.1,2.333-.237.179-2.366,1.422-2.368,1.4a4.7,4.7,0,0,0-2.713-3.635,11.128,11.128,0,0,0-4.648-.942,17.334,17.334,0,0,0-4.565.341c-2.37.557-4.486,1.857-6.7,2.874-1.838.845-5.27,2.24-7.174.982C672.211,837.568,672.792,837.152,673.313,836.691Z" transform="translate(-630.856 -810.287)" fill="#2e3192"/>
          <path d="M558.471,1021.982a1.877,1.877,0,0,1,2.447,1.744,9.344,9.344,0,0,1-.127,2.073,1.5,1.5,0,0,0,.417,1.465,2.366,2.366,0,0,0,1.042.205,3.172,3.172,0,0,1,2.434,3.275,8.825,8.825,0,0,1-1.486,4.161c-.31.543-.759,1.158-1.381,1.105-.531-.045-.878-.562-1.143-1.025l-1.911-3.333c-.709-1.236-1.676-2.631-3.1-2.635-6.5-.021,1.373,14.884,2.576,17.2,1.642,3.16,1.759,6.149-1.353,8.235a11.526,11.526,0,0,1-8.94,1.371,5.325,5.325,0,0,1-2.513-1.2,2.374,2.374,0,0,1-.652-2.566c.207-.463.609-.844.69-1.344.248-1.539-2.392-1.92-2.884-3.4-.4-1.2.825-2.3,1.95-2.885s2.479-1.294,2.571-2.559c.128-1.76-2.377-3.031-1.956-4.745.39-1.587,2.378-1.417,3.273-2.469,1.457-1.711-.34-2.194-.6-3.85-.4-2.592,3.059-4.486,4.947-5.517.879-.479,1.583-1.141,2.4-1.691A10.714,10.714,0,0,1,558.471,1021.982Z" transform="translate(-518.587 -994.143)" fill="#1b1464"/>
        </g>
        <path d="M602.951,929.784c5.466-1.028,12.088-6.419,16.549-10.4,2.337-2.214,6.283-5.394,7.408-8.427-3-.6-6.451-.305-9.521-.417a14.36,14.36,0,0,0-4.51.313c-2.712.782-4.67,3.051-6.192,5.312a29.549,29.549,0,0,0-4.005,7.8c-.39,1.366-1.118,4.383-.364,5.623C602.592,929.7,602.538,929.492,602.951,929.784Z" transform="translate(-570.258 -897.353)" fill="#f7931e"/>
        <path d="M678,845.315c3.687-.64,10.523-5.622,13.386-8.137,5.381-4.725,11.68-17.061,15.785-19.007-3.63,1.3-8.245,5.03-10.929,7.852-3.9,4.1-6.678,7.024-10.386,11.284C684.368,839.016,680.326,844.026,678,845.315Z" transform="translate(-636.295 -817.136)" fill="#f15a24"/>
      </g>
      <path d="M364.05,1828.908c.018-.331,23.836,5.381,23.836,5.381l-.434,3.619L363,1831.927Z" transform="translate(-362.635 -1695.213)" fill="#fff"/>
      <path d="M1088.761,1774.883l16.5-6.37,1.158,3.33-16.712,6.656Z" transform="translate(-993.148 -1642.756)" fill="#fff"/>
      <path d="M624.332,1409.646a45.4,45.4,0,0,0,26.283,4.8s11.446-.565,18.794-6.641l-2.261-1.413s-7.916,4.962-16.251,5.229c-11.458.366-18.8-1.907-22.895-3.568C627.865,1408.233,624.332,1409.646,624.332,1409.646Z" transform="translate(-589.67 -1328.163)" fill="#fff"/>
      <path d="M1101.493,1858.261a3.32,3.32,0,0,1,.885,1.695,3.1,3.1,0,0,1-.412,1.5l-2.682,5.73c.4-.856-1.16-4.538-1.4-5.542q-.705-2.966-1.323-5.952-1.235-5.971-2.117-12.008t-1.408-12.112c-.273-3.16.13-6.3-.487-9.395a28.714,28.714,0,0,0,9.134-3.309,12.805,12.805,0,0,1,.74,2.994,9.343,9.343,0,0,0-4.82,4.148c-2.529,4.294-2.42,10.325-2.093,15.136C1095.925,1847.25,1097.676,1853.386,1101.493,1858.261Z" transform="translate(-996.439 -1686.502)" fill="#e6360c"/>
      <path d="M380.037,1861.542q9.665.73,19.366.758l-18.779-5.032" transform="translate(-377.436 -1719.863)" fill="#e6360c"/>
      <path d="M580.057,1693.155c5.356-1.772,10.762,4.095,16.308,3.057,3.209-.6,5.535-3.357,8.477-4.771a10.872,10.872,0,0,1,8.243-.443c3.456,1.226,6.524,4.248,10.158,3.756,2.252-.3,4.072-1.921,6.134-2.876a11.236,11.236,0,0,1,12.906,2.836l.022,5.4c-3.359-3.483-9.164-3.261-13.527-1.17-1.872.9-3.667,2.1-5.726,2.361-4.731.6-8.857-3.908-13.624-3.748-5.478.184-9.568,6.413-15.03,5.965-2.542-.208-4.7-1.853-7.038-2.87a14.863,14.863,0,0,0-6.647-1.209" transform="translate(-551.206 -1574.887)" fill="#fff"/>
    </g>
    <g transform="translate(241.7 508.66)">
      <g transform="translate(0)" clip-path="url(#clip-path-2)">
        <g transform="translate(141.76 50.774)">
          <path d="M1648.22,3313.253c1.605,20.568,3.095,48.468-1.76,68.428-1.886,7.754-10.643,6.807-13.419,14.975,4.793-.038,13.021.523,16.426-2.723,3.184-3.035,5.107.093,8.792-2.269,5.478-3.512,3.744-6.441,3.352-13.245-1.487-25.848,5.14-42.66,9.264-61.992" transform="translate(-1602.974 -3018.823)" fill="#ffc3c1"/>
          <path d="M2262.831,3199.7c16.575,13.693,53.3,49.306,64.583,67.415,4.384,7.035,7.2,14.74,10.338,21.885,3.56-3.631,3.09-9.037,3.213-13.949.115-4.593.707-6.13,1.7-10.612,1.475-6.662-.964-8.988-7.391-12.115-7.806-3.8-11.106-9.257-16.105-16.646-6.223-9.2-14.694-29.342-24.064-41.594" transform="translate(-2150.111 -2915.298)" fill="#ffc3c1"/>
          <path d="M1740.576,1958.834c1.31-6.361,1-12.941,1.385-19.415.1-1.743.207-4.9,2.087-5.77,6.572-3.035,11.03,11.949,11.142,15.772.273,9.252-3.856,13.754-8.714,20.3" transform="translate(-1696.396 -1819.927)" fill="#fff"/>
          <path d="M1646.2,1680.8c-3.553,0-6.643,2.646-8.5,5.726s-2.787,6.628-4.208,9.938c-1.85,4.308-4.763,8-7.161,11.965a1.376,1.376,0,0,0,.252,2.021,48.035,48.035,0,0,0,16.462,12.241" transform="translate(-1596.857 -1600.61)" fill="#e6360c"/>
          <path d="M1643,2085.424c-.1,7.931-5.024,15.3-7.847,22.671a91.351,91.351,0,0,0-4.774,20.5c-.713,5.165-2.633,9.985-2.919,14.913,2.173.415,4.427.756,6.614,1.385,1.831-12.109,12.635-23.085,16.475-34.88C1654.4,2098.168,1650.822,2090.859,1643,2085.424Z" transform="translate(-1598.122 -1952.134)" fill="#fff"/>
          <g>
            <g transform="translate(39.893 3.95)">
              <path d="M1981.007,1134.163c-.005-2.268.7-4.283,1.016-6.491.207-1.442-.147-2.869-.047-4.32.328-4.773-.684-8.615-2.433-13.063-1.113-2.831-4.527-7.609-.583-9.879,2.8-1.61,8.452.906,10.758,2.464,4.7,3.177,5.694,9.587,6.043,15.25.2,3.316.644,6.74.621,10.05-.024,3.5-.767,6.86-.4,10.393a16.735,16.735,0,0,0,4.077,9.819c1.4,1.479,3.127,2.591,4.661,3.926,5.958,5.186,4.733,15.7,1.161,21.954-2.737,4.791-8.2,9.095-14.06,8.137-4.553-.745-10.57-6.442-10.882-11.266-.114-1.771.511-3.582.447-5.4-.106-2.986-.719-5.935-.708-8.928.019-5.2-.316-10.5.256-15.665A62.762,62.762,0,0,0,1981.007,1134.163Z" transform="translate(-1941.779 -1099.891)" fill="#f79223"/>
              <g transform="translate(0 1.158)">
                <path d="M1847.788,1125a62.477,62.477,0,0,1,3.587-12.4c1.345-3.371,4.925-4.123,8.377-3.818,7.327.649,13.861,5.828,16.972,12.494,3.637,7.793,2.369,15.865,0,23.781a17.854,17.854,0,0,1-3.1,6.515,7.279,7.279,0,0,1-6.369,2.8c-.607-.09-1.293-.264-1.786.1a1.849,1.849,0,0,0-.572,1.137c-.93,4.232.282,7.276,1.505,11.148,1.142,3.618,2.7,7,6.132,9-.9-.522-20.941,31.666-23.264,34.416a172.356,172.356,0,0,1-5.116-19.6c-.834-3.874-1.909-8.635-.028-12.279,2.157-4.18,5.324-7.187,6.171-12.068a31.847,31.847,0,0,0,.127-7.343c-.4-6.659-.405-13.519-1.153-20.109C1848.771,1134.352,1846.957,1129.481,1847.788,1125Z" transform="translate(-1825.344 -1108.715)" fill="#fff"/>
                <path d="M1719.362,1660.681c-1.348-3.71.415-9.2-.338-13.444-.911-5.138-4.761-8.922-7.357-13.553-1.677-2.991-3.593-6.521-3.739-10.049-.216-5.225,2.047-10.043,3.418-14.917,1.361-4.84,1.363-8.75,3.675-13.217a11.856,11.856,0,0,1,3.553-3.576c.847-.585,13.683-9.283,13.809-8.96,1.908,4.882-1.112,9.809-1.647,14.637a57.423,57.423,0,0,0-.284,9.054c.125,2.621,1.326,5.1.922,7.753,1.422-2.847,4.313-5.557,6.827-7.495,1.988-1.533,4.485-3.524,3.809-5.942-.176-.63-.567-1.189-.7-1.829-.312-1.448.736-2.841,1.9-3.764s2.532-1.661,3.316-2.918c1.509-2.42,1.089-5.786,2.959-7.982,1.792-2.1,5.689-2.722,8.345-2.891a1.1,1.1,0,0,1,.824.176,1.084,1.084,0,0,1,.271.585,13.5,13.5,0,0,1,.305,3.876,2.671,2.671,0,0,0,.2,1.628,2.3,2.3,0,0,0,.864.7c4.909,2.749,11.4,3.614,13.882,9.259,2.344,5.327,1.424,12.875-.628,18.16-3.114,8.022-6.12,13.313-13.447,17.6-7.553,4.424-12.443,22.7-11.105,24.165" transform="translate(-1707.913 -1519.521)" fill="#1b1464"/>
              </g>
            </g>
            <path d="M1491.487,1071c4.2,1.312,12.861,6.3,6.435,23.62a2.381,2.381,0,0,1-.372.9,1.753,1.753,0,0,1-1.021.4,76.646,76.646,0,0,1-12.455.905,1.278,1.278,0,0,1-.806-.192c-.749-.6.44-1.964-.141-2.73-3.138,2.346-6.759,4.819-10.626,4.184l1.066-5.778a2.171,2.171,0,0,0-.329-2.087c-1.72-1.549-3.476,10.962-3.513,11.354a90.8,90.8,0,0,0-.171,15.061c.558,7.758,2.086,15.756-.285,23.163-3.561,11.122-15.823,18.1-27.483,17.452s-22.291-7.823-29.183-17.25l8.725-3.537a20.915,20.915,0,0,1-11.5-2.439c-2.857-1.7-5.912-5.218-5.888-8.766.031-4.417,4.645-2.891,7.787-2.669,13.064.926,26.249-2.064,34.614-13.094a65.279,65.279,0,0,0,6.072-9.655,20.677,20.677,0,0,1,2.928-4.774c.826-.893,1.878-1.687,2.188-2.863a6.355,6.355,0,0,0,.033-2.071c-.442-6.19,3.023-12.285,8.1-15.859a25.422,25.422,0,0,1,11.948-4.287C1481.522,1069.567,1487.645,1069.8,1491.487,1071Z" transform="translate(-1403.943 -1069.794)" fill="#f7931e"/>
          </g>
          <g transform="translate(38.947 138.302)">
            <path d="M1703.124,2283.967c1.76-12.031.4-25.66-.4-37.777-1.4-21.317-3.17-41.335-1-62.725,2.223-21.919,7.275-31.066,10.926-58.316,0,0,27.316-2.259,30.276-1.3,8.01,2.6,12.216,4.992,18.28,10.568,8.079,7.428,13.668,18.059,16.739,28.279,3.7,12.323,12.44,14.083,24.075,18.24,16.713,5.971,13.446,21.952,25.838,31.766,12.457,9.865,27.343,8.495,40.727,2.077.221,10.709-.74,23.617-7.518,32.644,3.356-4.469-1.163-12.022-5.96-11.744-9.56,9.494-27.05,23.873-39.249,29.958-16.159,8.061-35.5,5.6-52.769,9.184-8.4,1.742-16.817,2.985-24.926,5.911C1722.943,2286.224,1703.124,2283.967,1703.124,2283.967Z" transform="translate(-1700.705 -2123.613)" fill="blue"/>
            <g clip-path="url(#clip-path-3)">
              <path d="M2111.173,2473.786c2.467-2.087,4.132-5.3,3.626-8.459s-3.623-5.908-6.844-5.433a7.965,7.965,0,0,0-4.367,2.507,3.8,3.8,0,0,0-1.294,2.359,2.613,2.613,0,0,0,2.636,2.473,3.7,3.7,0,0,0,3.178-2.15,6.126,6.126,0,0,0,.322-3.913,5.48,5.48,0,0,0-1.991-3.43,4.846,4.846,0,0,0-4.879-.163,8.19,8.19,0,0,0-3.413,3.656c-1.5,2.913-1.767,6.646.136,9.326a9.565,9.565,0,0,0,3.2,2.718,10.859,10.859,0,0,0,7.627,1.331,6.888,6.888,0,0,0,5.3-5.184" transform="translate(-2044.936 -2413.246)" fill="blue" stroke="#f7931e" stroke-linecap="round" stroke-miterlimit="10" stroke-width="3"/>
              <path d="M2216.476,2915.967a7.327,7.327,0,0,1,1.617,7.853c-2.311,6.069-9.333,6.363-14.568,4.236a11.541,11.541,0,0,1-4-2.47c-2.494-2.561-2.7-6.758-1.035-9.9a14.155,14.155,0,0,1,8.3-6.411c2.733-.89,6.234-.977,7.977,1.272a5.25,5.25,0,0,1,.352,5.328,11.31,11.31,0,0,1-3.737,4.162c-1.757,1.3-4.275,2.369-6.036,1.076a3.384,3.384,0,0,1-.991-3.838,5.641,5.641,0,0,1,2.94-2.965A7.9,7.9,0,0,1,2216.476,2915.967Z" transform="translate(-2132.225 -2805.656)" fill="blue" stroke="#2b3378" stroke-linecap="round" stroke-miterlimit="10" stroke-width="2"/>
              <path d="M1852.506,2596.283a14.706,14.706,0,0,1,3.247,15.762c-4.638,12.182-18.735,12.772-29.242,8.5a23.168,23.168,0,0,1-8.034-4.957c-5.006-5.14-5.412-13.565-2.077-19.877s9.779-10.629,16.658-12.869c5.486-1.786,12.513-1.96,16.01,2.554,2.314,2.986,2.277,7.275.706,10.695s-4.447,6.1-7.5,8.355c-3.526,2.607-8.582,4.756-12.115,2.159a6.792,6.792,0,0,1-1.989-7.7,11.322,11.322,0,0,1,5.9-5.951A15.853,15.853,0,0,1,1852.506,2596.283Z" transform="translate(-1799.34 -2521.558)" fill="blue" stroke="#f7931e" stroke-linecap="round" stroke-miterlimit="10" stroke-width="3"/>
              <path d="M1883.539,2237.914a8.206,8.206,0,0,1-3.357.767c-3.542.086-8.64-1.761-8.44-5.881.128-2.638,3.019-4.995,5.553-4.1a2.437,2.437,0,0,1,1.7,1.827,2.675,2.675,0,0,1-.651,1.89,6.029,6.029,0,0,1-8.035,1.128,5.758,5.758,0,0,1-1.107-7.886c1.792-2.305,5.118-2.906,8.055-2.574a12.494,12.494,0,0,1,8.161,3.955C1888.729,2230.931,1887.535,2236.006,1883.539,2237.914Z" transform="translate(-1846.142 -2209.956)" fill="blue" stroke="#f7931e" stroke-linecap="round" stroke-miterlimit="10" stroke-width="3"/>
              <path d="M1727.624,2452.358a6.825,6.825,0,0,1-4.957,3.743,10.192,10.192,0,0,1-6.314-.968,8.541,8.541,0,0,1-3.543-2.923,4.938,4.938,0,0,1-.59-4.4,5.008,5.008,0,0,1,4.128-2.925,3.256,3.256,0,0,1,2.47.584,2.4,2.4,0,0,1-.318,3.645c-4.543,3.091-6.929-8.054.519-7.974C1724.087,2441.2,1729.765,2447.449,1727.624,2452.358Z" transform="translate(-1710.463 -2399.47)" fill="blue" stroke="#f7931e" stroke-linecap="round" stroke-miterlimit="10" stroke-width="3"/>
              <path d="M1827.215,3034.986a3.852,3.852,0,0,0,1.891-1.82,4.266,4.266,0,0,0-3.444-6.16,4.22,4.22,0,0,0-4.477,3.694c-.077,1.159.637,2.512,1.82,2.565a2.331,2.331,0,0,0,1.478-.553,3.789,3.789,0,0,0,1.452-3.732,3.215,3.215,0,0,0-3.071-2.462,3.708,3.708,0,0,0-3,1.977,7.479,7.479,0,0,0-.793,3.594,4.068,4.068,0,0,0,.3,1.845,3.514,3.514,0,0,0,2.488,1.686A8.821,8.821,0,0,0,1827.215,3034.986Z" transform="translate(-1803.531 -2908.021)" fill="blue" stroke="#2b3378" stroke-linecap="round" stroke-miterlimit="10" stroke-width="2"/>
              <path d="M2658.663,3028.614a8.775,8.775,0,0,0-2.978-5.362,7.014,7.014,0,0,0-5.886-1.06,9.2,9.2,0,0,0-4.967,3.436c-1.2,1.6-1.928,3.806-.97,5.552a3.592,3.592,0,0,0,5.95.474,2.5,2.5,0,0,0,.445-2.494c-.651-1.457-2.806-1.555-4.258-.844a8.577,8.577,0,0,0-4.1,5.218,6.105,6.105,0,0,0-.079,4.227,6.36,6.36,0,0,0,3.619,3.072,10.617,10.617,0,0,0,6.528.656C2657.672,3040.064,2659.708,3033.712,2658.663,3028.614Z" transform="translate(-2518.007 -2904.063)" fill="blue" stroke="#2b3378" stroke-linecap="round" stroke-miterlimit="10" stroke-width="2"/>
            </g>
          </g>
          <path d="M2155.973,2136.515s-4.162-27.325-4.833-40.472-4.014-19.836-4.891-20.485-6.883-6.671-10.912-.162,1.007,19.721,6.461,37.459,6.24,26.226,6.24,26.226" transform="translate(-2038.083 -1940.818)" fill="#fff"/>
          <path d="M2105.71,1771.736c-2.545-8.622-4.305-15.191-4.355-23.124-.05-7.949.684-16.3,1.241-24.234.365-5.191,1.217-13.908-4.564-16.647-5.384-2.55-9.816,2.469-12.029,6.771-4.808,9.344-2.382,22.175-.692,32.076,1.794,10.507,3.846,19.461,11.544,27.5" transform="translate(-1994.036 -1623.409)" fill="#fff"/>
          <path d="M2085.8,1675.278c8.164-1.3,8.839,15.045,12.334,19.4,1.133,1.411,3.674,2.312,3.566,4.417-.1,1.9-3.463,3.947-4.962,4.94-1.2.793-2.521,1.539-3.682,2.3A6.379,6.379,0,0,0,2091.2,1708c.071-1.568-.549-3.512-.172-4.957-2.612,2.039-6.167,3.421-9.005,5.255-1.111.719-9.093,5.351-8.71,6.8-1.992-7.541-3.688-14.428-2.436-22.659a24.764,24.764,0,0,1,3.843-9.6,17.788,17.788,0,0,1,5.187-5.6,17.045,17.045,0,0,1,2.761-1.6C2084.819,1674.681,2086.884,1675.075,2085.8,1675.278Z" transform="translate(-1982.971 -1595.593)" fill="#f15a24"/>
          <path d="M2240.531,2523.891c3.241,3.512,6.771,5.019,10.7,7.5a109.051,109.051,0,0,0,10.781,6.264c-4.96,3.3-12.062.211-16.436-1.645,2.721,2.158,3.375,3.618,3.967,6.955-3.5-2.822-8.7-4.442-11.983-7.545-4.012-3.791-4.631-8.949-5.584-14.713" transform="translate(-2123.306 -2330.289)" fill="#fff"/>
          <path d="M1518.721,2494.273c-.658,3.74-3.5,4.613-8.213,6.413a54.7,54.7,0,0,0-9.19,4.456c2.166.809,10.608-.456,13.443-.571,4.305-.176,9.542-3.045,9.512-7.067" transform="translate(-1488.539 -2307.325)" fill="#fff"/>
          <path d="M1578.6,2526.578c-1.953,4.233-3.33,5.016-8.066,6.238-1.446.373-5.392,2.594-6.821,2.846.592-2.223,2.289-3.418,3.043-4.629.708-1.136-.136-1.917.658-2.973C1569.089,2525.834,1578.99,2521.661,1578.6,2526.578Z" transform="translate(-1542.746 -2333.396)" fill="#fff"/>
          <path d="M2752.706,2819.275c5.2,11.868-1.543,33.056-13.938,40-6.072,3.4-13.954-.889-20.187-1.07C2728.746,2848.589,2755.72,2828.171,2752.706,2819.275Z" transform="translate(-2546.049 -2589.674)" fill="#2b3378"/>
          <path d="M2805.623,3639.408s6.016,3.857,6.709,5.9l-.925,6.126-2.009-1.459a111.215,111.215,0,0,0-1.461,13.031c-.231,6.126-.694,10.891-3.471,14.975l-4.4-13.387s3.239,4.084,4.4-2.5-2.458-24.238-2.458-24.238Z" transform="translate(-2616.844 -3300.829)" fill="#0066cb"/>
          <path d="M1607.949,3857.844s-1.276,8.8-2.974,10.163H1598.5l.727-2.941a117.316,117.316,0,0,0-12.937,3.3c-5.92,1.969-11.83.96-16.71-.13l13.187-7.488s-3.53,5.4,3.152,4.114,22.221-10.881,22.221-10.881Z" transform="translate(-1547.839 -3488.585)" fill="#0066cb"/>
          <path d="M1486.355,1595.776a63.781,63.781,0,0,0,35.033-6.606c-.149-1.011-1.594-1.045-2.582-.78a69.488,69.488,0,0,0-25.875,13.261" transform="translate(-1475.539 -1520.208)" fill="none" stroke="#f15a24" stroke-linecap="round" stroke-miterlimit="10" stroke-width="2"/>
          <path d="M1618.933,1114.35a27.908,27.908,0,0,0,1.835-2.541c.22-.347.425-.83.145-1.131-.332-.355-.912-.04-1.286.27a28.776,28.776,0,0,1-4.249,2.92.828.828,0,0,1-.516.152c-.42-.067-.476-.648-.4-1.065a14.9,14.9,0,0,1,2.447-5.013c1.671-2.682,3.744-4.28,4.519-7.536.522-2.194.695-4.467,1.327-6.632a20.374,20.374,0,0,1,3.643-6.79c1.212-1.546,3.449-4.822,5.29-5.474-5.114,1.848-10.1,5.163-12.043,10.241a40.91,40.91,0,0,0-1.123,4.389,16.106,16.106,0,0,0-.656,4.337,6.656,6.656,0,0,1-.136,2.01,5.393,5.393,0,0,1-.76,1.411c-2.2,3.267-4.293,6.576-6.382,9.92a44.229,44.229,0,0,1-6.629,8.7c-2,1.916-5.25,5.118-14.961,8.662a50.488,50.488,0,0,0,18.636-6.956,48.227,48.227,0,0,0,8.681-6.881C1617.223,1116.359,1618.105,1115.38,1618.933,1114.35Z" transform="translate(-1564.713 -1079.974)" fill="#f15a24"/>
          <path d="M1819.977,1225.145l-16.206.484a.989.989,0,0,1-.947-1.358l.188-.465a1.482,1.482,0,0,1,1.457-1.284L1820.5,1222Z" transform="translate(-1750.412 -1202.025)" fill="#2e3192"/>
          <path id="Path_1080" data-name="Path 1080" d="M2225.236,1870.789a16.506,16.506,0,0,1,10.171-2.877c-2.824,3.194-6.807,5.088-10.122,7.768" transform="translate(-2117.449 -1763.148)" fill="#e6360c"/>
          <path d="M1930.528,1953.852c-4.718-5.041-1.3-22.359,6.126-24.122,3.386,6.433,4.137,16.215-.783,22.038-.467.552-1.8,2.286-2.472,2.478C1932.423,1954.527,1929.539,1953.081,1930.528,1953.852Z" transform="translate(-1859.537 -1816.873)" fill="#2e3192"/>
          <path d="M2006.628,1220.164a5.7,5.7,0,0,0-.216,1.806l-.233,1.945a22.406,22.406,0,0,0-.294,3.487,28.485,28.485,0,0,1-3.38.083,5.465,5.465,0,0,1,.642-2.958C2004.155,1223,2005.583,1221.7,2006.628,1220.164Z" transform="translate(-1923.949 -1200.43)" fill="#f15a24"/>
        </g>
        <g transform="translate(218.099 67.848)">
          <g transform="translate(42.586)">
            <path d="M2387.473,1196.985c-1.905-3.734-6.121-5.669-10.166-5.851a17.337,17.337,0,0,0-13.009,5.208c-1.808,1.849-3.343,4.188-5.715,5.11-1.882.732-3.969.433-5.967.655a11.953,11.953,0,0,0-8.473,5.232c-2.446,3.661-3.079,8.761-6.57,11.335-5.994,4.418-14.379-3.794-19.165,2.861-3.152,4.383-1.874,11.063-3.718,16.022-5.393,14.508-22.961-1.458-32.368-1.407-12.658.068-15.234,13.62-14.61,24.5.7,12.1,4.6,21.9,13.466,29.876,15.989,14.373,42.6,15.907,62.19,10.972,10.875-2.74,22.47-7.612,29.864-16.831,10.339-12.892,15.09-33.465,14.892-49.73" transform="translate(-2267.627 -1191.119)" fill="#000d92"/>
            <g clip-path="url(#clip-path-4)">
              <path d="M2239.635,1457.012c-3.039,6.563,1.93,16.089,5.507,20.83a32.633,32.633,0,0,0,11.1,9.2c4.955,2.656,9.545,3,14.88,2.962,9.952-.065,19.863-3.84,29.906-3.593,5.771.142,16.617,4.924,20.851-1.478,5.372-8.123-11.523-21.026,2.808-26.461,6.086-2.308,15.648,7.917,18.416-1.127,1.234-4.036-.535-8.373-.364-11.933,5.851,10.6,9.527,21.561,7.634,34.527-4.068,27.864-37.257,45.475-59.226,48.905-19.14,2.989-41.168-4.348-50.258-24.71-4.761-10.665-7.921-19.17-4.857-31.307" transform="translate(-2239.084 -1412.364)" fill="#2e3192" style="mix-blend-mode: multiply;isolation: isolate"/>
            </g>
          </g>
          <g transform="translate(0 67.158)">
            <path d="M2054.7,1725.789c.963-2.649,3.21-5.242,4.565-7.766,3.739-6.965,16.184-.807,17.788,1.222-22.38-23.131-38.63-4.612-41.172,1.419-2.659,6.31-2.722,12.518-3.794,19.116-1.607,9.89-8,21.3-18.773,19.935-6.882-.871-11.528-5.711-17.919-7.8-9.094-2.966-16.225,1.748-24.376,5.289-7.621,3.312-23.584,9.155-31.113,2.293a29.863,29.863,0,0,0,17.615,19.843c7.087,2.654,14.707-.194,20.689-4.459,3.538-2.522,7.753-7.092,12.191-7.5,4.121-.379,7.607,3.017,10.567,5.58,5.109,4.425,9.694,8.3,15.817,11.146s14.589,7.891,21.02,4.115C2059.5,1775.49,2047.651,1745.193,2054.7,1725.789Z" transform="translate(-1939.91 -1707.93)" fill="#f15a24"/>
          </g>
          <g transform="translate(60.213 88.485)">
            <path d="M2444.622,1942.272c1.925-2.069,4.109-3.938,6.176-5.871a21.326,21.326,0,0,0,4.491-5.223c1.949-3.611,1.752-8.008,2.485-12.082,1.3-7.224,6.552-12.424,9.668-18.881,3.2-6.626,7.546-14.342,7.781-21.936.408-13.2-15.132-2-19.511,2.311-3.584,3.532-6.566,7.679-10.054,11.314-7.219,7.523-16.374,12.635-24.425,19.17-12.89,10.463-19.3,25.87-17.725,42.871,1.447,15.64,11,27.836,25.712,31.681,19.718,5.153,37.032-3.308,37.856-28.524.158-4.845,2.038-12.529-3.282-14.76C2458.984,1940.324,2445.2,1942.344,2444.622,1942.272Z" transform="translate(-2403.273 -1872.045)" fill="#f7931e"/>
            <g clip-path="url(#clip-path-5)">
              <path d="M2650.764,2113.035q2.159,10.835,4.319,21.67c.341,1.716.675,3.544.035,5.172-1.3,3.309-5.571,3.934-9.025,4.779a26.306,26.306,0,0,0-13.706,8.474c.692-.816,5.772-.7,6.937-.842,3.812-.462,7.545-1.522,11.359-1.771a2.15,2.15,0,0,1,1.7.4,2.266,2.266,0,0,1,.294,1.987,30.26,30.26,0,0,0-.54,7.088c.132,1.791.523,4.187,1.725,5.611.865,1.027,2.26,1.652,3.271,2.568,3.228,2.929,6.514,5.782,9.932,8.488.316-7.644.617-15.429-1.388-22.812a137.074,137.074,0,0,0-9.613-26.115" transform="translate(-2602.614 -2081.719)" fill="#f15a24"/>
            </g>
          </g>
          <path d="M2780.395,2406.24s-2.494,6.441-.147,12.115,16.727,1.534,16.727,1.534l-.733-13.036S2784.5,2405.626,2780.395,2406.24Z" transform="translate(-2670.172 -2248.188)" fill="#fff1e0"/>
          <g transform="translate(108.594 76.039)">
            <path d="M2787.923,1913.8c5.943-19.656,8.652-47.151-.22-66.255-3.96-8.529-10.091-16.413-11.794-25.945-1.476-8.256,2.265-15.635,7.121-21.912,6.484-8.381,12.166-14.74,22.189-17.812a118.9,118.9,0,0,1,36.986-5.6c9,.109,18.271.251,24.667,7.831,5.243,6.212,5.569,14.663,3.007,22.208-8.389,24.706-40.068,50-26.654,78.232a88.094,88.094,0,0,0,17.208,24.3c2.433,2.362,5.592,4.437,6.723,7.708" transform="translate(-2775.583 -1776.268)" fill="blue"/>
            <g clip-path="url(#clip-path-6)">
              <path d="M3181.976,2095.273q.369-.612.75-1.232a57.154,57.154,0,0,1,7.533-10.343c2.816-2.847,9.259-7.619,11.557-1.729.7,1.795-.454,5.013-.469,6.918-.031,4.083.525,7.991.11,12.107-1.183,11.733-5.579,21.383-3.527,33.518,1.23,7.274,4.655,14.121,7.434,20.875,2.44,5.929,7.279,12.44,7.9,18.963.952,10.034-12.024,19.233-21.045,14.876-4.9-2.367-3.385-11.22-4.488-16.18-1.593-7.16-4.261-13.985-6.246-21.025a165.531,165.531,0,0,1-5.853-35.847C3175.137,2108.138,3177.905,2102.033,3181.976,2095.273Z" transform="translate(-3123.596 -2039.803)" fill="#1b1464"/>
            </g>
          </g>
          <path d="M3031.749,1299.238c.5-2.205,2.9-4.047,4.228-5.8,2.758-3.646,5.51-7.944,6.627-12.489,2.021-8.217-.706-15.773-3.835-23.177-3.687-8.724-10.8-16.407-7.9-26.47,3.712-12.9,18.748-14.154,27-5.481,2.319,2.438,1.92,4.715,3.627,7.633.953,1.628,3.316,2.9,5.884,5,.249,1.954,2.252,11.531,2.553,15.131a5.18,5.18,0,0,1-.739,3.566,5.639,5.639,0,0,1-1.813,1.427,24.98,24.98,0,0,1-5.226,2.2,6.2,6.2,0,0,0-2.213.934c-2.337,1.878-.669,5.27-.256,7.58a60.578,60.578,0,0,0,2.762,10.58c.4,1.058,6.792,13.184,6.831,13.163-8.364,4.538-17.25,6.22-26.518,7.437C3040.49,1300.77,3033.042,1299.73,3031.749,1299.238Z" transform="translate(-2888.512 -1216.485)" fill="#fff1e0"/>
          <path d="M3018.816,1204.992c-2.124-1.489-6.663-.658-8.072,1.824-3.312,5.837,5.894,14.639,2.446,21.616-2.958,5.984-11.542,3.743-14.37,9.2-5.295-10.629-7.132-23.9,3.365-31.449C3005.865,1203.541,3019.33,1205.341,3018.816,1204.992Z" transform="translate(-2858.258 -1200.952)" fill="#000d92"/>
          <path d="M2999.55,1677.56a3.094,3.094,0,0,1,.136-1.535c1.012-3.1,3.157-4.894,3.62-8.271.438-3.2.106-7.206,1.865-10.012,2.375-3.79,7.533-.9,10.851-.458a54.7,54.7,0,0,0,13.992,0c1.554-.21,3.807-.264,4.993-1.177a13.115,13.115,0,0,1-.781-2.218c1.383-.089,2.464-.946,3.741-.3,2.612,1.33,3.8,6.139,4.841,8.658,1.071,2.595,2.289,6.456,4.666,8.011-1.426,1.63-4.2,2.6-6.049,3.68a69.8,69.8,0,0,1-7.854,4.2,49.654,49.654,0,0,1-15.348,3.925C3015.775,1682.28,3000.472,1682.579,2999.55,1677.56Z" transform="translate(-2861.814 -1593.281)" fill="#f15a24"/>
          <g transform="translate(173.987 1.967)">
            <path d="M3297.491,1333.558c5.925-6.4,11.88-12.774,18.345-18.679,11.733-10.715,23.491-22.025,30.869-36.97,5.638-11.422,10.16-24.668,8.21-37.852-2.606-17.623-13.773-37.345-32.315-33.256-3.767.831-8.034,2.308-11.086,5.067a28.456,28.456,0,0,0-8.6,15.842c-.308,1.884-1.883,17.185.834,17.1a82.368,82.368,0,0,1,18.423,1.5c1.128.221,2.5.736,2.609,1.929a2.457,2.457,0,0,1-.68,1.706c-1.605,1.969-4.063,2.872-6.256,4.071s-4.39,3.1-4.571,5.678c-.083,1.18.267,2.434-.2,3.514a4.369,4.369,0,0,1-1.471,1.642c-5.491,4.211-12.3,6.052-18.267,9.479-16.907,9.706-15.4,39.3-13.217,56.49.7,5.523,1.223,12.428,4.064,16.824C3288.732,1343.055,3293.1,1338.3,3297.491,1333.558Z" transform="translate(-3278.812 -1206.257)" fill="#f7931e"/>
            <g clip-path="url(#clip-path-7)">
              <path d="M3254.25,1903.2c1.75-5.011,8.283-8.817,12.372-11.5q26.45-17.341,51.137-37.188c-3.9,7.14-9.552,11.231-14.274,17.547-5.418,7.247-10.78,14.557-16.847,21.284a220.652,220.652,0,0,1-24.025,23.255c-3.372-3.22-10.021-7.658-8.508-12.942Q3254.17,1903.43,3254.25,1903.2Z" transform="translate(-3257.124 -1770.276)" fill="#f15a24"/>
              <path d="M3354.311,1285.476a36.585,36.585,0,0,1,3.49-11.925,23.991,23.991,0,0,1,12.185-12.1,18.365,18.365,0,0,1,8.48-1.22c5.5.4,3.954,3.971.8,6.8-6.079,5.457-12.958,11.173-15.42,19.292a6.9,6.9,0,0,0-.37,3.141,2.894,2.894,0,0,0,1.9,2.354,4.578,4.578,0,0,0,2.448-.254,58.308,58.308,0,0,1,26.213-1.336c4.975.89,10.26,2.753,12.884,7.073-8.9.615-17.993,1.338-26.142,4.958a25.661,25.661,0,0,1-5.415,2.083,15.214,15.214,0,0,1-6.336-.384,22.707,22.707,0,0,1-7.354-2.993,16.857,16.857,0,0,1-6.98-9.838A17.258,17.258,0,0,1,3354.311,1285.476Z" transform="translate(-3344.435 -1253.162)" fill="#f15a24"/>
            </g>
          </g>
          <path d="M3166.417,1260.529c-.693,1.347,3.837,5.5,6.443,6.707,1.676.779,4.311.935,5.749,2.286-1.615.956,5.947,4.259,6.54,4.285,4.81.119-1.263-1.925-2.928-4.717s-.348-4.28-4.865-7.445" transform="translate(-3008.656 -1251.686)" fill="#f7dcbb"/>
          <path d="M3214.569,1216.181c-10.173,1.04-20.025,1.206-30.214,1.523a50.964,50.964,0,0,0-17.281,3.438c-.764,3.707,6.028,4.56,8.19,4.924,2.507.423,5.04.664,7.568.9,1.717.163,5.6-.147,6.807,1.156-1.354,1.345-3.663.854-5.366.9-1.105.028-4.364.114-4.882,1.546-.846,2.338,5.809,1.294,6.886,1.255,5.451-.2,7.667-1.535,12.417-4.155,4.725-2.606,10.715-1.274,15.567-.122,2.985.709,3.284.5,5.173-2.482,1.848-2.919,4.342-5.751,3.939-9.5" transform="translate(-3007.555 -1212.39)" fill="#fff1e0"/>
          <path d="M2899.149,2410.931s34.139,1.022,47.051,2.556c0,0-2.543,9.917.685,17.279,0,0-31.132-3.333-45.805-2.413C2901.079,2428.353,2900.127,2419.008,2899.149,2410.931Z" transform="translate(-2774.498 -2252.419)" fill="#f15a24"/>
          <path d="M2341.59,2107.175c5.422-1.133,10.947-1.766,16.325-3.09-6.805,3.99-15.041,5.526-21.047,10.641.361-.308-3.962-2.274-4.336-2.363-1.019-.244-3.466-.2-2.566-1.415.836-1.132,4.281-1.808,5.6-2.225A61.687,61.687,0,0,1,2341.59,2107.175Z" transform="translate(-2279.109 -1985.447)" fill="#e6360c"/>
          <path d="M3009.885,1725c2.029,1.3,3.987,3.259,3.956,5.668l-3.955-1.559a12.651,12.651,0,0,0-5.227-1.236,4.32,4.32,0,0,0-4.086,2.958,4.519,4.519,0,0,0,.305,2.617,7.923,7.923,0,0,0,5.141,4.67,22.726,22.726,0,0,1-5.9-1.475c-1.785-.807-3.528-2.528-3.11-4.442a8.15,8.15,0,0,1,1.736-2.781,12.841,12.841,0,0,0,1.957-5.591c.133-.829.24-5.542,1.107-5.71.793-.154,2.218,2.682,2.717,3.214C3006.023,1722.926,3008.07,1723.837,3009.885,1725Z" transform="translate(-2859.589 -1649.629)" fill="#e6360c"/>
        </g>
      </g>
      <path d="M2857.89,1517.6a28.405,28.405,0,0,1-5.257-6.546,12.52,12.52,0,0,1-2-6.154,6,6,0,0,1,3.013-5.432,6.535,6.535,0,0,1,2.739-.582c2.821-.061,5.535.964,8.2,1.888s5.48,1.772,8.268,1.343,5.521-2.51,5.775-5.319" transform="translate(-2519.01 -1389.979)" fill="none" stroke="#0020ff" stroke-linecap="round" stroke-miterlimit="10" stroke-width="2"/>
    </g>
    <path d="M1963.905,482.337l.575.575" transform="translate(-1506.956 0)" fill="#f15a24"/>
    <path d="M739.976,1227.2c2.4,3.263,6.718,4.535,9.524,7.458a21.969,21.969,0,0,1,3.116,4.6l-1.1-6.854c.164,1.016,5.765-1.382,6.188-2.018-3.13.328-5.9,1.054-9.138.507A19.491,19.491,0,0,1,739.976,1227.2Z" transform="translate(-443.655 -647.104)" fill="#e6360c"/>
    <path d="M695.345,988.624a26.668,26.668,0,0,0-13.713,10.7,7.506,7.506,0,0,0-2.657-.828l-.711-5.352c3.325.076,6.42-1.523,9.484-2.815s6.57-2.306,9.658-1.072" transform="translate(-390.042 -439.842)" fill="#e6360c"/>
    <path d="M2302.281,1576c-2.756,7.481,8.937,22.282,17.682,24.928,14.341,4.339,21.427-1.3,36.126-1.173" transform="translate(-1800.567 -950.132)" fill="none" stroke="#0020ff" stroke-linecap="round" stroke-miterlimit="10" stroke-width="2"/>
  </g>
</svg>
