<svg width="0" height="0" class="hidden">
  <symbol xmlns="http://www.w3.org/2000/svg" viewBox="0 0 14 14" id="activity-cross">
    <path d="M374.5,409.078l-1.41-1.41-5.59,5.59-5.59-5.59-1.41,1.41,5.59,5.59-5.59,5.59,1.41,1.41,5.59-5.59,5.59,5.59,1.41-1.41-5.59-5.59Z"
          transform="translate(-360.5 -407.668)" fill="#ed1c24"/>
  </symbol>
  <symbol xmlns="http://www.w3.org/2000/svg" viewBox="0 0 18 18" id="activity-edit">
    <path d="M358.5,540.918v3.75h3.75l11.06-11.06-3.75-3.75Zm17.71-10.21a1,1,0,0,0,0-1.41l-2.34-2.34a1,1,0,0,0-1.41,0l-1.83,1.83,3.75,3.75Z" transform="translate(-358.5 -526.668)" fill="#c3d8e5"/>
  </symbol>
  <symbol xmlns="http://www.w3.org/2000/svg" viewBox="0 0 20 10" id="activity-link">
    <path d="M359.4,774.668a3.1,3.1,0,0,1,3.1-3.1h4v-1.9h-4a5,5,0,0,0,0,10h4v-1.9h-4a3.1,3.1,0,0,1-3.1-3.1Zm4.1,1h8v-2h-8Zm9-6h-4v1.9h4a3.1,3.1,0,0,1,0,6.2h-4v1.9h4a5,5,0,0,0,0-10Z"
          transform="translate(-357.5 -769.668)" fill="#00eba8"/>
  </symbol>
  <symbol xmlns="http://www.w3.org/2000/svg" viewBox="0 0 18 18" id="activity-sent">
    <path d="M374.5,646.668H360.49a1.983,1.983,0,0,0-1.98,1.984v.016l-.01,14a1.991,1.991,0,0,0,1.982,2H374.5a2.005,2.005,0,0,0,2-2v-14A2.006,2.006,0,0,0,374.5,646.668Zm0,12h-4a3,3,0,0,1-6,0h-4.01v-10H374.5Zm-3-5h-2v-3h-4v3h-2l4,4Z" transform="translate(-358.5 -646.668)" fill="#c3d8e5"/>
  </symbol>
  <symbol xmlns="http://www.w3.org/2000/svg" viewBox="0 0 22 16" id="activity-user">
    <path d="M370.5,1013.668a4,4,0,1,0-4-4A4,4,0,0,0,370.5,1013.668Zm-9-2v-3h-2v3h-3v2h3v3h2v-3h3v-2Zm9,4c-2.67,0-8,1.34-8,4v2h16v-2C378.5,1017.008,373.17,1015.668,370.5,1015.668Z" transform="translate(-356.5 -1005.668)" fill="#c3d8e5"/>
  </symbol>
  <symbol xmlns="http://www.w3.org/2000/svg" viewBox="0 0 22 15.003" id="activity-view">
    <path d="M367.5,827.167a11.828,11.828,0,0,0-11,7.5,11.817,11.817,0,0,0,22,0A11.828,11.828,0,0,0,367.5,827.167Zm0,12.5a5,5,0,1,1,5-5A5,5,0,0,1,367.5,839.667Zm0-8a3,3,0,1,0,3,3A3,3,0,0,0,367.5,831.667Z" transform="translate(-356.5 -827.167)" fill="#00eba8"/>
  </symbol>
  <symbol xmlns="http://www.w3.org/2000/svg" viewBox="0 0 18 10.41" id="activity-arrow">
    <path d="M375.09,590.463l-7.59,7.59-5.59-5.59h4.59v-2h-8v8h2v-4.59l7,7,9-9Z" transform="translate(-358.5 -590.463)" fill="#ed1c24"/>
  </symbol>
  <symbol xmlns="http://www.w3.org/2000/svg" viewBox="0 0 19.5 17.805" id="add-to-bookmarks">
    <g transform="translate(0.75 0.75)">
      <path class="add-to-fav-icon__bg" d="M1985.3,1105.5l-6.4-5.2-6.4,5.2v-16h13" transform="translate(-1972.5 -1089.5)" fill="none" stroke="blue" stroke-linecap="round" stroke-linejoin="round" stroke-width="1.5"/>
      <path class="add-to-fav-icon__plus" d="M1986.5,1093.5v8m4-4h-8" transform="translate(-1972.5 -1089.5)" fill="none" stroke="#00eba8" stroke-linecap="round" stroke-linejoin="round" stroke-width="1.5"/>
    </g>
  </symbol>
  <symbol xmlns="http://www.w3.org/2000/svg" fill="currentColor" viewBox="0 0 8 8" id="back-arrow">
    <path d="M12,7.5H5.915l2.8-2.8L8,4,4,8l4,4,.705-.7L5.915,8.5H12Z" transform="translate(-4 -4)"/>
  </symbol>
  <symbol xmlns="http://www.w3.org/2000/svg" viewBox="0 0 21.073 21.264" id="bell">
    <g transform="translate(-2973.442 -1086.868)">
      <path d="M2986.709,1105.274a2.108,2.108,0,0,1-2.108,2.108h0a2.106,2.106,0,0,1-2.1-2.1v.34m9-6h-14m-1-4.63v3.565a4.139,4.139,0,0,1-.71,2.318l-1.4,2.068a1.059,1.059,0,0,0,.261,1.485,1.079,1.079,0,0,0,.586.194h17.474a1.063,1.063,0,0,0,1.053-1.073,1.051,1.051,0,0,0-.2-.606l-1.348-2.056a4.24,4.24,0,0,1-.713-2.351v-3.551a7.363,7.363,0,0,0-7.367-7.363h-.267A7.37,7.37,0,0,0,2976.5,1094.988Z" fill="none" stroke="currentColor" stroke-linecap="round" stroke-linejoin="round" stroke-width="1.5"/>
    </g>
  </symbol>
  <symbol xmlns="http://www.w3.org/2000/svg" viewBox="0 0 15.29 20" fill="#00eba8" id="bookmarks-i">
    <g transform="translate(-1776.855 -1590.399)">
      <path d="M1790.381,1590.4h-11.755a1.763,1.763,0,0,0-1.764,1.763v2.939h15.282v-2.939A1.763,1.763,0,0,0,1790.381,1590.4Zm.588,3.526h-12.931v-1.763a.588.588,0,0,1,.588-.588h11.755a.589.589,0,0,1,.588.588Z"></path>
      <rect width="1.176" height="4.702" transform="translate(1790.969 1596.276)"></rect>
      <path d="M1792.144,1604.505v4a1.873,1.873,0,0,1-1.105,1.763,1.663,1.663,0,0,1-1.834-.358l-4.343-4.115a.529.529,0,0,0-.729,0l-4.344,4.115a1.7,1.7,0,0,1-1.163.476,1.675,1.675,0,0,1-.665-.141,1.878,1.878,0,0,1-1.105-1.764v-12.2h1.176V1608.5a.692.692,0,0,0,.394.664.505.505,0,0,0,.587-.111l4.344-4.115a1.7,1.7,0,0,1,2.351,0l4.344,4.115a.506.506,0,0,0,.587.111.7.7,0,0,0,.33-.664v-4Z"></path>
      <rect width="2.351" height="1.763" transform="translate(1783.328 1597.452)"></rect>
      <rect width="1.176" height="1.176" transform="translate(1790.969 1602.154)"></rect>
    </g>
  </symbol>
  <symbol xmlns="http://www.w3.org/2000/svg" viewBox="0 0 18.261 30" id="bulb">
    <path d="M3136.528,1079.773h9.13v1.305h-1.3s.062,10.3.062,11.058a9.13,9.13,0,1,1-6.613-.013c0-1.721.029-11.045.029-11.045h-1.3Z" transform="translate(-3131.963 -1079.773)" fill="currentColor" fill-rule="evenodd"/>
    <path d="M3139.137,1082.382h3.913s-.034,9.983-.034,10.673a7.824,7.824,0,1,1-3.9.013C3139.116,1090.9,3139.137,1082.382,3139.137,1082.382Z" transform="translate(-3131.963 -1079.773)" fill="#fff" fill-rule="evenodd"/>
    <path d="M3147.55,1100.82a6.457,6.457,0,0,1-12.913,0C3139.834,1100.82,3147.55,1093.472,3147.55,1100.82Z" transform="translate(-3131.963 -1079.773)" fill="currentColor" fill-rule="evenodd"/>
    <path d="M3145.984,1099.99a.979.979,0,1,1-.978.979A.978.978,0,0,1,3145.984,1099.99Z" transform="translate(-3131.963 -1079.773)" fill="#fff" fill-rule="evenodd"/>
    <path d="M3144.68,1102.6a.979.979,0,1,1-.978.979A.978.978,0,0,1,3144.68,1102.6Z" transform="translate(-3131.963 -1079.773)" fill="#fff" fill-rule="evenodd"/>
  </symbol>
  <symbol xmlns="http://www.w3.org/2000/svg" viewBox="0 0 19.143 20" id="calendar">
    <g transform="translate(-2823.928 -1687.5)">
      <rect width="17.143" height="17.143" rx="1.905" transform="translate(2824.928 1689.357)" stroke-width="2" stroke="currentColor" stroke-linecap="round" stroke-linejoin="round" fill="none"/>
      <line y2="3.429" transform="translate(2836.928 1688.5)" fill="none" stroke="currentColor" stroke-linecap="round" stroke-linejoin="round" stroke-width="2"/>
      <line y2="3.429" transform="translate(2830.072 1688.5)" fill="none" stroke="currentColor" stroke-linecap="round" stroke-linejoin="round" stroke-width="2"/>
      <line x2="15.429" transform="translate(2825.786 1695.357)" fill="none" stroke="currentColor" stroke-linecap="round" stroke-linejoin="round" stroke-width="2"/>
    </g>
  </symbol>
  <symbol xmlns="http://www.w3.org/2000/svg" viewBox="0 0 29.507 22" fill="#00eba8" id="campaigns-i">
    <g transform="translate(-1769.531 -1370.503)">
      <path d="M1772.412,1381.5a.576.576,0,0,0-.576-.577h-1.729a.576.576,0,0,0,0,1.153h1.729a.576.576,0,0,0,.576-.576Zm0,0"></path>
      <path d="M1775.87,1384.961a.577.577,0,0,0-.576-.577h-3.458a.576.576,0,0,0,0,1.153h3.458a.576.576,0,0,0,.576-.576Zm0,0"></path>
      <path d="M1775.294,1378.621a.576.576,0,0,0,0-1.153h-3.458a.576.576,0,0,0,0,1.153Zm0,0"></path>
      <path d="M1788.319,1381.5a.576.576,0,1,1-.577-.577.576.576,0,0,1,.577.577Zm0,0"></path>
      <path d="M1798.713,1380.984l-21.439-10.374a.576.576,0,0,0-.8.7l2.376,7.127-3.878,2.585a.577.577,0,0,0,0,.959l3.878,2.585-2.376,7.127a.576.576,0,0,0,.8.7l21.439-10.373a.578.578,0,0,0,0-1.038Zm-22.38.519,2.9-1.931.643,1.931-.643,1.931Zm4.563.576h4.253a.576.576,0,0,0,0-1.153H1780.9l-2.894-8.683,17.946,8.683h-5.612a.576.576,0,0,0,0,1.153h5.612L1778,1390.763Zm0,0"></path>
    </g>
  </symbol>
  <symbol xmlns="http://www.w3.org/2000/svg" viewBox="0 0 8 4.94" id="check-col">
    <path d="M4237.768,4437.5l-3.06,3.053-3.06-3.053-.94.94,4,4,4-4Z" transform="translate(-4230.708 -4437.499)"/>
  </symbol>
  <symbol xmlns="http://www.w3.org/2000/svg" viewBox="0 0 12.351 20" id="contacts-arrow">
    <path d="M10981.179,1226l10,10,2.351-2.35-7.634-7.65,7.634-7.65-2.351-2.35Z" transform="translate(-10981.179 -1216)" fill="currentColor"/>
  </symbol>
  <symbol xmlns="http://www.w3.org/2000/svg" viewBox="0 0 17.719 15.328" fill="#00eba8" id="contacts-i">
    <g transform="translate(-1775.641 -1232.35)">
      <path d="M1782.635,1246.455h-5.2a.6.6,0,0,1-.569-.782,4.611,4.611,0,0,1,4.38-3.119,4.471,4.471,0,0,1,2.57.806.6.6,0,1,0,.684-.98,5.7,5.7,0,0,0-1.192-.637,3.04,3.04,0,0,0,.989-2.007,4.5,4.5,0,0,1,5.705-.466.6.6,0,1,0,.683-.98,5.708,5.708,0,0,0-1.192-.637,3.047,3.047,0,1,0-4.1-.006c-.083.032-.166.066-.248.1a5.73,5.73,0,0,0-1.053.6,3.048,3.048,0,1,0-4.89,3.379,5.745,5.745,0,0,0-3.47,3.576,1.793,1.793,0,0,0,1.707,2.342h5.2a.6.6,0,1,0,0-1.2Zm4.811-12.909a1.852,1.852,0,1,1-1.853,1.852A1.854,1.854,0,0,1,1787.446,1233.546Zm-6.186,4.09a1.852,1.852,0,1,1-1.852,1.852A1.855,1.855,0,0,1,1781.26,1237.636Z"></path>
      <path d="M1793.11,1242.112a.6.6,0,0,0-.834.138l-2.946,4.115a.34.34,0,0,1-.235.117.332.332,0,0,1-.256-.092l-1.907-1.831a.6.6,0,0,0-.828.862l1.909,1.833a1.537,1.537,0,0,0,1.06.424l.1,0a1.545,1.545,0,0,0,1.1-.571l.02-.027,2.958-4.131A.6.6,0,0,0,1793.11,1242.112Z"></path>
    </g>
  </symbol>
  <symbol xmlns="http://www.w3.org/2000/svg" viewBox="0 0 8 8" id="cross">
    <path d="M10809.714,1741.473l-.8-.806-3.2,3.194-3.194-3.194-.806.806,3.2,3.194-3.2,3.194.806.806,3.194-3.194,3.2,3.194.8-.806-3.194-3.194Z" transform="translate(-10801.714 -1740.667)" fill="currentColor"></path>
  </symbol>
  <symbol xmlns="http://www.w3.org/2000/svg" viewBox="0 0 13.545 8" id="dropdown-arrow">
    <g transform="translate(-2864.918 -1094)">
      <path d="M2878.246,1094.669l-.443-.447a.744.744,0,0,0-1.048,0l-5.061,5.061-5.067-5.067a.744.744,0,0,0-1.048,0l-.444.444a.742.742,0,0,0,0,1.048l6.033,6.054a.754.754,0,0,0,.525.238h0a.753.753,0,0,0,.523-.238l6.027-6.038a.75.75,0,0,0,0-1.055Z" fill="currentColor"/>
    </g>
  </symbol>
  <symbol xmlns="http://www.w3.org/2000/svg" viewBox="0 0 66.712 50" id="dropzone-cloud-i">
    <g id="Group_288" data-name="Group 288" transform="translate(0 -64.129)">
      <g id="Group_279" data-name="Group 279">
        <g id="Group_278" data-name="Group 278">
          <path id="Path_111" data-name="Path 111" d="M55.812,78.752c-.131,0-.262,0-.4.007a13.116,13.116,0,0,0-4.378-5.79A12.947,12.947,0,0,0,39.9,70.849a15.575,15.575,0,0,0-22.215-3.562,15.756,15.756,0,0,0-5.318,7.3,12.989,12.989,0,0,0,.624,25.963h4.7a.977.977,0,1,0,0-1.954h-4.7a11.035,11.035,0,0,1-.021-22.069c.034,0,.068,0,.1,0h.008a.976.976,0,0,0,.936-.7,13.766,13.766,0,0,1,4.849-6.99,13.624,13.624,0,0,1,19.79,3.669.976.976,0,0,0,1.138.409,11.013,11.013,0,0,1,14.016,7.159.977.977,0,0,0,1.037.68A8.944,8.944,0,1,1,55.812,98.6H49.023a.977.977,0,0,0,0,1.954h6.789a10.9,10.9,0,1,0,0-21.8Z" fill="currentColor"/>
        </g>
      </g>
      <g id="Group_281" data-name="Group 281">
        <g id="Group_280" data-name="Group 280">
          <path id="Path_112" data-name="Path 112" d="M44.924,87.826l-6.087-6.088a3.05,3.05,0,0,0-2.169-.9H22.911a2.024,2.024,0,0,0-2.022,2.022v29.245a2.024,2.024,0,0,0,2.022,2.022H43.8a2.024,2.024,0,0,0,2.021-2.022V89.994A3.046,3.046,0,0,0,44.924,87.826Zm-1.056,24.281a.068.068,0,0,1-.067.068H22.911a.067.067,0,0,1-.067-.068V82.862a.067.067,0,0,1,.067-.067h12.6v6.334a2.024,2.024,0,0,0,2.022,2.022h3.133a.978.978,0,0,0,0-1.955H37.534a.067.067,0,0,1-.067-.067v-6l6.075,6.075a1.1,1.1,0,0,1,.326.786Z" fill="currentColor" opacity="0.6"/>
        </g>
      </g>
      <g id="Group_283" data-name="Group 283">
        <g id="Group_282" data-name="Group 282">
          <path id="Path_113" data-name="Path 113" d="M38.3,100.008l-4.178-5.223a.978.978,0,0,0-1.526,0l-4.178,5.223a.977.977,0,0,0,1.526,1.221l2.438-3.047v8.7a.977.977,0,0,0,1.954,0v-8.7l2.438,3.047a.977.977,0,0,0,1.526-1.221Z" fill="currentColor"/>
        </g>
      </g>
      <g id="Group_285" data-name="Group 285">
        <g id="Group_284" data-name="Group 284">
          <path id="Path_114" data-name="Path 114" d="M36.228,72.876a11.412,11.412,0,0,0-6.855-4.341.978.978,0,1,0-.389,1.916,9.454,9.454,0,0,1,5.681,3.6.977.977,0,1,0,1.563-1.174Z" fill="currentColor"/>
        </g>
      </g>
      <g id="Group_287" data-name="Group 287">
        <g id="Group_286" data-name="Group 286">
          <path id="Path_115" data-name="Path 115" d="M51.072,79.272a8.8,8.8,0,0,0-4.858-4.2.977.977,0,1,0-.651,1.842,6.85,6.85,0,0,1,3.781,3.268.977.977,0,1,0,1.728-.913Z" fill="currentColor"/>
        </g>
      </g>
    </g>
  </symbol>
  <symbol xmlns="http://www.w3.org/2000/svg" viewBox="0 0 5.8 25" id="empty-dots">
    <g transform="translate(-3077 -1085)">
      <circle cx="2.4" cy="2.4" r="2.4" transform="translate(3077.5 1085.5)" fill="#fff" stroke="currentColor" stroke-miterlimit="10" stroke-width="1"/>
      <circle cx="2.4" cy="2.4" r="2.4" transform="translate(3077.5 1095.1)" fill="#fff" stroke="currentColor" stroke-miterlimit="10" stroke-width="1"/>
      <circle cx="2.4" cy="2.4" r="2.4" transform="translate(3077.5 1104.7)" fill="#fff" stroke="currentColor" stroke-miterlimit="10" stroke-width="1"/>
    </g>
  </symbol>
  <symbol xmlns="http://www.w3.org/2000/svg" viewBox="0 0 25 25" id="filter-close">
    <g transform="translate(0.5 0.5)">
      <rect width="24" height="24" fill="currentColor" stroke="currentColor" stroke-miterlimit="10" stroke-width="1"/>
      <path class="diriq-table__close-icon-cross" d="M9489.239,1605.581l-.806-.806-3.194,3.194-3.194-3.194-.806.806,3.194,3.194-3.194,3.194.806.806,3.194-3.194,3.194,3.194.806-.806-3.194-3.194Z" transform="translate(-9473.239 -1596.775)" fill="currentColor"/>
    </g>
  </symbol>
  <symbol xmlns="http://www.w3.org/2000/svg" viewBox="0 0 20.187 22" id="filter">
    <g transform="translate(-7837.407 -1262.014)">
      <g>
        <path d="M7857.47,1266.111a1.042,1.042,0,0,0-.92-.552h-2.961a2.971,2.971,0,0,0-5.85,0h-3a2.272,2.272,0,0,0,.373-1.251,2.294,2.294,0,1,0-4.215,1.251h-2.446a1.042,1.042,0,0,0-.865,1.624l7,10.4v5.9a.52.52,0,0,0,.729.478l4.8-2.088a.522.522,0,0,0,.313-.478v-3.817l7-10.4A1.04,1.04,0,0,0,7857.47,1266.111Zm-6.806-1.96a1.932,1.932,0,0,1,1.856,1.408h-3.713A1.932,1.932,0,0,1,7850.664,1264.151Zm-7.847-1.095a1.251,1.251,0,1,1-1.251,1.252A1.253,1.253,0,0,1,7842.817,1263.056Zm6.648,14.081a.53.53,0,0,0-.088.291v3.634l-3.754,1.635v-4.748h1.884a.521.521,0,0,0,0-1.043h-2.127l-5.247-7.8h10.531a.521.521,0,0,0,0-1.043h-11.232l-.982-1.46h18.1Z" fill="currentColor"/>
      </g>
    </g>
    <g transform="translate(-7837.407 -1262.014)">
      <g>
        <path d="M7853.35,1268.214a.521.521,0,1,0,.153.369A.524.524,0,0,0,7853.35,1268.214Z" fill="currentColor"/>
      </g>
    </g>
  </symbol>
  <symbol xmlns="http://www.w3.org/2000/svg" viewBox="0 0 17.894 24" fill="#00eba8" id="integrations-i">
    <g transform="translate(-1775.553 -1441.65)">
      <path d="M1792.938,1450.087h-2.344v-2.343a.469.469,0,0,0-.469-.469h-2.812a.469.469,0,0,0-.469.469v2.343h-1.875v-2.343a.469.469,0,0,0-.469-.469h-4.218a.469.469,0,0,0-.469.469v2.343h-3.75a.469.469,0,0,0-.469.469v1.875a.467.467,0,0,0,.143.337l.006.006,6.882,6.424v5.983a.469.469,0,0,0,.729.39l2.812-1.875a.467.467,0,0,0,.209-.39V1459.2l6.883-6.424,0-.006a.467.467,0,0,0,.143-.337v-1.875a.468.468,0,0,0-.468-.469Zm-5.157-1.874h1.875v1.874h-1.875Zm-7.031,0h3.282v1.874h-3.282Zm11.719,2.812v.937h-5.859a.469.469,0,1,0,0,.938h5.139l-6.027,5.625h-2.443l-6.027-5.625h5.139a.469.469,0,1,0,0-.938h-5.86v-.937Zm-7.031,12.03-1.875,1.25v-4.842h1.875Zm0,0"></path>
      <path d="M1788.719,1445.4a.469.469,0,0,0,.469-.469v-2.812a.469.469,0,0,0-.469-.469h-2.813a.469.469,0,0,0-.468.469v2.812a.469.469,0,0,0,.468.469Zm-2.344-2.812h1.875v1.875h-1.875Zm0,0"></path>
      <path d="M1781.688,1445.4a.469.469,0,0,0,.469-.469v-2.812a.469.469,0,0,0-.469-.469h-2.813a.469.469,0,0,0-.469.469v2.812a.469.469,0,0,0,.469.469Zm-2.344-2.812h1.875v1.875h-1.875Zm0,0"></path>
      <path d="M1784.969,1452.431a.469.469,0,1,1-.469-.469.469.469,0,0,1,.469.469Zm0,0"></path>
    </g>
  </symbol>
  <symbol xmlns="http://www.w3.org/2000/svg" viewBox="0 0 39.852 40" id="logo-mobile">
    <g transform="translate(-679.523 -338.668)">
      <path d="M679.524,355.4h2.47v23.271h-2.47Z" fill="#fff"/>
      <path d="M716.9,355.4h2.471v23.271H716.9Z" fill="#fff"/>
      <path d="M681.855,378.668v-2.2h35.539v2.2Z" fill="#fff"/>
      <path d="M719.375,355.4l-19.926,14.331L679.523,355.4l19.926-16.729Z" fill="#fff"/>
      <path d="M706.665,364.518l3.777,3.777L689.8,374.242l8.077-5.719" fill="#fff"/>
    </g>
  </symbol>
  <symbol xmlns="http://www.w3.org/2000/svg" viewBox="0 0 44.834 45" id="logo">
    <path d="M.001 18.821h2.776V45H-.002z" fill="#00f"/>
    <path d="M42.054 18.821h2.78V45h-2.78z" fill="#00f"/>
    <path d="M2.624 45v-2.468h39.981v2.471z" fill="#00f"/>
    <path d="M44.834 18.821L22.416 34.943 0 18.821 22.416 0z" fill="#00f"/>
    <path d="M30.535 29.081l4.249 4.251-23.225 6.691 9.086-6.435" fill="#00f"/>
  </symbol>
  <symbol xmlns="http://www.w3.org/2000/svg" viewBox="0 0 41.62 42" id="mobile-bell">
    <g transform="translate(-745.152 -396.996)">
      <path d="M771.488,433.729A4.266,4.266,0,0,1,767.221,438h0a4.263,4.263,0,0,1-4.251-4.251v.689m18.218-12.146h-28.34m-2.024-9.373v7.217a8.382,8.382,0,0,1-1.437,4.692l-2.834,4.186a2.145,2.145,0,0,0,.505,2.99l.023.016a2.189,2.189,0,0,0,1.187.393H783.64a2.151,2.151,0,0,0,2.132-2.172h0a2.13,2.13,0,0,0-.4-1.227l-2.729-4.162a8.584,8.584,0,0,1-1.443-4.759V412.9A14.9,14.9,0,0,0,766.29,398h-.548a14.92,14.92,0,0,0-14.92,14.911Z" fill="none" stroke="#fff" stroke-linecap="round" stroke-linejoin="round" stroke-width="2"/>
    </g>
  </symbol>
  <symbol xmlns="http://www.w3.org/2000/svg" viewBox="0 0 24.354 40" id="mobile-bulb">
    <g transform="translate(-755.228 -411.26)">
      <path d="M761.313,411.26h12.174V413h-1.734s.083,13.733.083,14.744a12.174,12.174,0,1,1-8.818-.017c0-2.295.039-14.727.039-14.727h-1.734Z" fill="#fff" fill-rule="evenodd"/>
      <path d="M764.792,414.739h5.217s-.045,13.311-.045,14.231a10.431,10.431,0,1,1-5.2.017C764.764,426.1,764.792,414.739,764.792,414.739Z" fill="blue" fill-rule="evenodd"/>
      <path d="M776.009,439.324a8.609,8.609,0,0,1-17.217,0C765.721,439.324,776.009,429.526,776.009,439.324Z" fill="#fff" fill-rule="evenodd"/>
      <path d="M773.921,438.217a1.305,1.305,0,1,1-1.3,1.307h0a1.3,1.3,0,0,1,1.3-1.306Z" fill="blue" fill-rule="evenodd"/>
      <path d="M772.183,441.7a1.306,1.306,0,1,1-1.3,1.307h0a1.305,1.305,0,0,1,1.3-1.306Z" fill="blue" fill-rule="evenodd"/>
    </g>
  </symbol>
  <symbol xmlns="http://www.w3.org/2000/svg" viewBox="0 0 42.182 42.414" id="mobile-search">
    <g transform="translate(-670.628 -395.738)">
      <circle cx="14.247" cy="14.247" r="14.247" transform="translate(671.628 396.738)" fill="none" stroke="#fff" stroke-miterlimit="10" stroke-width="2"/>
      <line x2="14.613" y2="14.613" transform="translate(696.784 422.126)" fill="none" stroke="#fff" stroke-linecap="round" stroke-miterlimit="10" stroke-width="2"/>
    </g>
  </symbol>
  <symbol xmlns="http://www.w3.org/2000/svg" viewBox="0 0 42 42" id="mobile-user">
    <g transform="translate(-177 -506)">
      <g transform="translate(-2847.5 -568)">
        <circle cx="20" cy="20" r="20" transform="translate(3025.5 1075)" fill="none" stroke="#fff" stroke-miterlimit="10" stroke-width="2"/>
      </g>
      <text transform="translate(197.5 533.478)" fill="#fff" font-size="18" font-family="ProximaNova-Regular, Proxima Nova"><tspan x="-5.661" y="0">B</tspan></text>
    </g>
  </symbol>
  <symbol xmlns="http://www.w3.org/2000/svg" viewBox="0 0 5.8 25" fill="#00eba8" id="more-dots">
    <g transform="translate(-3045.538 -1649.326)">
      <circle cx="2.4" cy="2.4" r="2.4" transform="translate(3046.038 1649.826)" fill="currentColor" stroke="currentColor" stroke-miterlimit="10" stroke-width="1"/>
      <circle cx="2.4" cy="2.4" r="2.4" transform="translate(3046.038 1659.426)" fill="currentColor" stroke="currentColor" stroke-miterlimit="10" stroke-width="1"/>
      <circle cx="2.4" cy="2.4" r="2.4" transform="translate(3046.038 1669.026)" fill="currentColor" stroke="currentColor" stroke-miterlimit="10" stroke-width="1"/>
    </g>
  </symbol>
  <symbol xmlns="http://www.w3.org/2000/svg" viewBox="0 0 19.955 20.061" fill="#00eba8" id="search">
    <g transform="translate(-2704.75 -1088.25)">
      <circle cx="6.5" cy="6.5" r="6.5" transform="translate(2705.5 1089)" fill="none" stroke="blue" stroke-miterlimit="10" stroke-width="1.5"/>
      <line x2="6.667" y2="6.667" transform="translate(2716.977 1100.583)" fill="none" stroke="blue" stroke-linecap="round" stroke-miterlimit="10" stroke-width="1.5"/>
    </g>
  </symbol>
  <symbol xmlns="http://www.w3.org/2000/svg" viewBox="0 0 21.515 18.91" fill="#00eba8" id="settings-i">
    <g transform="translate(-1773.743 -1516.196)">
      <g>
        <path d="M1788.165,1529.643a1.681,1.681,0,1,0,1.681-1.681,1.683,1.683,0,0,0-1.681,1.681Zm2.522,0a.841.841,0,1,1-.841-.841.842.842,0,0,1,.841.841Zm0,0"></path>
        <path d="M1773.8,1528.446l1.261,2.183a.419.419,0,0,0,.572.155l1.5-.859a7.318,7.318,0,0,0,3.288,1.816v1.684a.421.421,0,0,0,.421.42h2.521a.42.42,0,0,0,.42-.42v-1.683a8.308,8.308,0,0,0,.821-.248l1.139,1.972a.42.42,0,0,0,.574.154l1.048-.606a4.141,4.141,0,0,0,.788.463v1.208a.421.421,0,0,0,.421.421h2.521a.421.421,0,0,0,.42-.421v-1.207a4.228,4.228,0,0,0,.806-.464l1.049.606a.42.42,0,0,0,.574-.155l1.255-2.183a.421.421,0,0,0-.153-.573l-1.031-.6a3.67,3.67,0,0,0,0-.937l1.031-.6a.421.421,0,0,0,.153-.573l-1.255-2.184a.42.42,0,0,0-.574-.154l-1.049.606a4.126,4.126,0,0,0-.806-.464V1524.6a.42.42,0,0,0-.42-.42h-2.108a10.3,10.3,0,0,0-.214-1.152l1.489-.859a.421.421,0,0,0,.153-.574l-1.26-2.184a.42.42,0,0,0-.574-.153l-1.486.857a7.359,7.359,0,0,0-3.312-1.815v-1.684a.42.42,0,0,0-.42-.42h-2.521a.421.421,0,0,0-.421.42v1.684a7.309,7.309,0,0,0-3.288,1.816l-1.5-.859a.42.42,0,0,0-.572.154l-1.261,2.184a.421.421,0,0,0,.156.575l1.5.858a7.431,7.431,0,0,0,0,3.985l-1.5.858a.421.421,0,0,0-.156.575Zm17.158-1.957a3.361,3.361,0,0,1,1.057.609.421.421,0,0,0,.483.044l.931-.538.837,1.456-.917.531a.422.422,0,0,0-.2.441,3,3,0,0,1,0,1.222.42.42,0,0,0,.2.44l.917.532-.837,1.455-.931-.537a.418.418,0,0,0-.483.044,3.361,3.361,0,0,1-1.057.609.418.418,0,0,0-.279.4v1.073H1789v-1.073a.42.42,0,0,0-.279-.4,3.3,3.3,0,0,1-1.04-.609.418.418,0,0,0-.483-.044l-.932.538-.84-1.456.921-.531a.42.42,0,0,0,.2-.439l-.014-.082v0h0a3.194,3.194,0,0,1-.048-.527,3.278,3.278,0,0,1,.063-.611.422.422,0,0,0-.2-.441l-.921-.532.84-1.455.932.538a.421.421,0,0,0,.483-.044,3.259,3.259,0,0,1,1.04-.609.421.421,0,0,0,.279-.4v-1.073h1.681v1.073a.419.419,0,0,0,.279.4Zm-14.794,1.088a.421.421,0,0,0,.19-.5,6.6,6.6,0,0,1,0-4.117.421.421,0,0,0-.19-.5l-1.425-.814.841-1.456,1.426.815a.421.421,0,0,0,.523-.085,6.366,6.366,0,0,1,3.4-1.878.421.421,0,0,0,.336-.412v-1.6h1.681v1.6a.42.42,0,0,0,.336.412,6.5,6.5,0,0,1,3.425,1.878.422.422,0,0,0,.525.085l1.408-.814.841,1.456-1.41.814a.421.421,0,0,0-.189.5,6.038,6.038,0,0,1,.274,1.638v1.209a4.136,4.136,0,0,0-.788.462l-.885-.511a6.57,6.57,0,0,0,.047-.74,4.545,4.545,0,0,0-2.434-3.9.42.42,0,1,0-.4.739,3.747,3.747,0,0,1,1.993,3.156,5.2,5.2,0,0,1-.122,1.109l-.837,1.45a3.87,3.87,0,0,1-2.612,1.013,3.54,3.54,0,0,1-1.664-6.681.42.42,0,1,0-.419-.728,4.38,4.38,0,0,0,2.083,8.25,4.867,4.867,0,0,0,2.632-.792l.924.534a3.878,3.878,0,0,0-.03.468,3.754,3.754,0,0,0,.023.4,7,7,0,0,1-2.385.949.42.42,0,0,0-.336.411v1.6h-1.681v-1.6a.421.421,0,0,0-.336-.411,6.366,6.366,0,0,1-3.4-1.878.421.421,0,0,0-.523-.086l-1.426.816-.841-1.456Zm0,0"></path>
      </g>
      <path d="M1782.117,1526.7a1.681,1.681,0,1,0-1.68-1.681,1.683,1.683,0,0,0,1.68,1.681Zm0-2.521a.84.84,0,1,1-.84.84.841.841,0,0,1,.84-.84Zm0,0"></path>
      <path d="M1782.483,1521.028a.42.42,0,1,1-.42-.42.421.421,0,0,1,.42.42Zm0,0"></path>
    </g>
  </symbol>
  <symbol xmlns="http://www.w3.org/2000/svg" viewBox="0 0 18 18" fill="#00eba8" id="templates-i">
    <defs>
      <clipPath id="clip-path">
        <rect width="18" height="18" fill="none"></rect>
      </clipPath>
    </defs>
    <g transform="translate(-1797.641 -1228.35)">
      <g transform="translate(23.14 -73.342)">
        <path d="M1780.985,1306.923h7.031a.391.391,0,1,0,0-.781h-7.031a.391.391,0,1,0,0,.781Zm0,0" transform="translate(-1 -0.463)"></path>
        <path d="M1780.985,1309.267h7.031a.391.391,0,1,0,0-.781h-7.031a.391.391,0,1,0,0,.781Zm0,0" transform="translate(-1 -0.707)"></path>
        <path d="M1780.985,1311.611h7.031a.391.391,0,0,0,0-.782h-7.031a.391.391,0,0,0,0,.782Zm0,0" transform="translate(-1 -0.951)"></path>
        <g transform="translate(1774.5 1301.692)">
          <g clip-path="url(#clip-path)">
            <path d="M1784.813,1321.259a.351.351,0,1,1-.352-.351.352.352,0,0,1,.352.351Zm0,0" transform="translate(-1775.461 -1303.614)"></path>
            <path d="M1775.555,1319.689h6.364a.351.351,0,0,0,0-.7h-6.364a.352.352,0,0,1-.351-.352v-8.661c.787.671,4.162,3.551,4.369,3.725l-1.594,1.593a.352.352,0,0,0,.5.5l1.634-1.633,2.7,2.3a1.058,1.058,0,0,0,1.385,0l2.682-2.286,1.652,1.621a.351.351,0,1,0,.492-.5l-1.607-1.578,4.385-3.739v8.661a.352.352,0,0,1-.351.352h-6.364a.351.351,0,0,0,0,.7h6.364a1.056,1.056,0,0,0,1.054-1.055v-9.422a.359.359,0,0,0-.128-.272h0l-3.247-2.663v-2.338a.351.351,0,0,0-.351-.352h-2.73l-1.849-1.635a1.059,1.059,0,0,0-1.391,0l-1.848,1.634h-2.73a.352.352,0,0,0-.352.352v2.338l-3.246,2.663h0a.36.36,0,0,0-.129.269v0h0v9.422a1.056,1.056,0,0,0,1.055,1.055Zm16.046-10.471-2.476,2.11v-4.141Zm-8.332-6.737a.351.351,0,0,1,.462,0l1.253,1.108h-2.965Zm5.153,1.809v7.637l-4.686,4,0,0a.354.354,0,0,1-.464,0l0,0-4.686-4v-7.637Zm-10.547,2.9v4.141l-2.475-2.11Zm0,0" transform="translate(-1774.5 -1301.692)"></path>
          </g>
        </g>
      </g>
    </g>
  </symbol>
</svg>