<svg xmlns="http://www.w3.org/2000/svg" xmlns:xlink="http://www.w3.org/1999/xlink" width="587.582" height="354.958" viewBox="0 0 587.582 354.958">
  <defs>
    <clipPath id="clip-path">
      <path d="M530.431,946.972c-73.214,6.469-148.171,11.182-214.364-23.71-87.712-46.236-91.18-112.539-79.838-134.954,16.667-32.941,43.834-32.285,69.951-35.172,29.437-3.254,66.651,14.167,95.8,13.386,13.095-.351,23.258-7.93,35.043-11.8,13.452-4.418,29.506-4.019,43.528-5.495,30.626-3.224,61.02-9.46,91.414-12.82s111-49.416,178.456-36.817c108.982,20.355,65.789,153.8,23.754,197.515-16.4,17.061-62.6,47.771-147.119,44.359C612.427,940.873,547.6,945.455,530.431,946.972Z" transform="translate(-231.581 -697.413)" fill="#fff"/>
    </clipPath>
    <clipPath id="clip-path-2">
      <path d="M2268.825,1201.81c3.472-6.805,11.155-10.332,18.527-10.662a31.594,31.594,0,0,1,23.708,9.492c3.3,3.37,6.093,7.631,10.414,9.312,3.431,1.333,7.234.789,10.874,1.194a21.783,21.783,0,0,1,15.442,9.535c4.457,6.671,5.611,15.967,11.973,20.656,10.923,8.051,26.2-6.915,34.927,5.214,5.744,7.987,3.416,20.162,6.775,29.2,9.828,26.44,41.844-2.656,58.988-2.564,23.068.124,27.763,24.822,26.624,44.643-1.267,22.05-8.377,39.917-24.54,54.447-29.138,26.194-77.634,28.99-113.336,20-19.818-4.993-40.95-13.871-54.424-30.673-18.842-23.494-27.5-60.987-27.139-90.628" transform="translate(-2267.627 -1191.119)" fill="#2e3192"/>
    </clipPath>
    <clipPath id="clip-path-3">
      <path d="M3384.3,1438.251c-10.8-11.665-21.65-23.279-33.433-34.041-21.383-19.527-42.81-40.139-56.255-67.374-10.275-20.815-18.515-44.956-14.961-68.982,4.749-32.116,25.1-68.058,58.892-60.605,6.864,1.514,14.641,4.206,20.2,9.234a51.861,51.861,0,0,1,15.677,28.87c.562,3.434,3.432,31.317-1.521,31.163a150.108,150.108,0,0,0-33.575,2.742c-2.055.4-4.554,1.341-4.755,3.516a4.485,4.485,0,0,0,1.24,3.109c2.925,3.589,7.405,5.233,11.4,7.419s8,5.647,8.332,10.348c.151,2.151-.486,4.436.358,6.4a7.972,7.972,0,0,0,2.681,2.993c10.007,7.675,22.411,11.029,33.29,17.274,30.811,17.688,28.062,71.616,24.086,102.948-1.277,10.065-2.229,22.648-7.407,30.66C3400.263,1455.558,3392.3,1446.891,3384.3,1438.251Z" transform="translate(-3278.813 -1206.257)" fill="#f7931e"/>
    </clipPath>
  </defs>
  <g transform="translate(0 28.227)">
    <path d="M530.431,946.972c-73.214,6.469-148.171,11.182-214.364-23.71-87.712-46.236-91.18-112.539-79.838-134.954,16.667-32.941,43.834-32.285,69.951-35.172,29.437-3.254,66.651,14.167,95.8,13.386,13.095-.351,23.258-7.93,35.043-11.8,13.452-4.418,29.506-4.019,43.528-5.495,30.626-3.224,61.02-9.46,91.414-12.82s111-49.416,178.456-36.817c108.982,20.355,65.789,153.8,23.754,197.515-16.4,17.061-62.6,47.771-147.119,44.359C612.427,940.873,547.6,945.455,530.431,946.972Z" transform="translate(-231.581 -697.413)" fill="#b6ffe8"/>
    <g transform="translate(0 0)" clip-path="url(#clip-path)">
      <path d="M2093.325,740.01a37.675,37.675,0,0,1-6.856,14.227c-5.607,7.027-12.37,7.154-20.932,7.507-13.344.55-26.449-1.285-39.774-2.131-12.159-.772-24.414-1.54-36.484.116-8.879,1.219-17.559,3.739-26.479,4.614-9.479.93-19.028-.015-28.523-.763a691.249,691.249,0,0,0-79.615-1.672c-25.177.922-50.773,1.843-75.791,4.85-35.878,4.313-71.651,9.576-107.084,16.39q-7.128,1.371-14.236,2.826c-2.385.489-10.791,3.487-12.826,2.705-2.806-1.077-2.158-5.243-2.433-8.062l-1.865-19.076c-.01-.108,60.937-6.626,64.368-7L1807.258,743.4c16.916-1.839,34.548-1.848,51.11-4.755,14.329-2.515,27.271-4.446,41.956-4.031,16.555.468,32.812,3.461,49.411,3.381,8.633-.042,17.453-.669,25.411-4.015,8.536-3.59,15.5-10.055,23.431-14.836,16.85-10.158,37.464-7.021,56.092-13.637,4.461-1.584,8.936-3.458,12.459-6.62s5.979-7.848,5.39-12.544c-.947-7.544-9.209-10.947-15.711-12.41-8.864-2-17.884-4.229-26.9-6.242-20.932-4.672-42.566-5.653-63.934-4.5-29.306,1.587-58.234,7.123-87.1,12.413-62.776,11.5-125.89,21.922-189.588,25.9-7.033.439-14.342.757-20.86-1.921,2.624-2.083,6.009-2.89,9.275-3.637q168.672-38.568,340.234-62.594c8.772-1.228,17.786-2.418,26.41-.4,12.905,3.027,22.069,16.324,28.777,26.992,8.762,13.936,14.544,29.7,18.512,45.613,2.363,9.48,3.979,19.32,2.731,29.01A45.69,45.69,0,0,1,2093.325,740.01Z" transform="translate(-1455.531 -640.474)" fill="#b6ffe8"/>
      <path d="M3610.543,1648.927c12.668-.31,22.531-6.085,27.879-14.869s7.839-16.78,16.135-22.857a26.159,26.159,0,0,1,24-3.4c-4.428-13.562.88-29.707,12.492-38,6.524-4.657,15.29-6.846,22.723-3.845,9.388,3.79,14.151,14.839,13.742,24.955s-4.894,19.561-9.293,28.679c4.151-3.9,8.8-8.024,14.491-8.336s11.707,5.689,9.117,10.761a44.643,44.643,0,0,1,16.207-9.468c3.761-1.23,7.866-1.948,11.656-.813s7.111,4.544,7.082,8.5c-.025,3.4-2.352,6.3-3.536,9.484-1.24,3.342-1.13,7.328.94,10.23s6.3,4.286,9.43,2.576" transform="translate(-3272.091 -1509.772)" fill="#fff"/>
      <path d="M3659.2,849.3a232.043,232.043,0,0,1,24.535-14.513c7.04-3.6,16-6.711,22.376-2.03a69.9,69.9,0,0,1,26.841-20.478c5.136-2.212,11.148-3.769,16.2-1.375,8.165,3.867,8.912,15,8.477,24.019a181.73,181.73,0,0,1,18.525-9.43c4.187-1.838,10.44-2.752,12.118,1.5,1.035,2.623-.575,5.825.723,8.329,1.335,2.573,4.827,2.883,7.725,2.858l21.46-.192" transform="translate(-3281.357 -646.967)" fill="#fff"/>
      <path d="M3659.2,849.3a232.043,232.043,0,0,1,24.535-14.513c7.04-3.6,16-6.711,22.376-2.03a69.9,69.9,0,0,1,26.841-20.478c5.136-2.212,11.148-3.769,16.2-1.375,8.165,3.867,8.912,15,8.477,24.019a181.73,181.73,0,0,1,18.525-9.43c4.187-1.838,10.44-2.752,12.118,1.5,1.035,2.623-.575,5.825.723,8.329,1.335,2.573,4.827,2.883,7.725,2.858l21.46-.192" transform="translate(-3247.357 -805.967)" fill="#fff"/>
    </g>
  </g>
  <path d="M232.7,690.974c-8.3,22.342-.121,64.421,10.561,84.979s27.182,34.805,44.231,45.959c33.511,21.923,70.369,33.779,107.267,42.6a737.841,737.841,0,0,0,107.788,17.5c29.568,2.565,41.721,1.929,70.843-5.2,58.97-14.436,81.365-120.909,68.663-192.791-9.694-54.858-49.175-94.361-92.594-95.148-45.216-.82-64.339,24.256-106.832,44.359-25.86,12.234-44.53,20.736-79.468,24.279C342.241,659.63,266.328,600.419,232.7,690.974Z" transform="translate(-170.6 -576.87)" fill="#b6ffe8" style="mix-blend-mode: multiply;isolation: isolate"/>
  <path d="M1963.905,482.337l.575.575" transform="translate(-1736.557 -482.337)" fill="#f15a24"/>
  <g transform="matrix(0.985, -0.174, 0.174, 0.985, 54.122, 83.953)">
    <g transform="translate(159.39)">
      <path d="M2268.825,1201.81c3.472-6.805,11.155-10.332,18.527-10.662a31.594,31.594,0,0,1,23.708,9.492c3.3,3.37,6.093,7.631,10.414,9.312,3.431,1.333,7.234.789,10.874,1.194a21.783,21.783,0,0,1,15.442,9.535c4.457,6.671,5.611,15.967,11.973,20.656,10.923,8.051,26.2-6.915,34.927,5.214,5.744,7.987,3.416,20.162,6.775,29.2,9.828,26.44,41.844-2.656,58.988-2.564,23.068.124,27.763,24.822,26.624,44.643-1.267,22.05-8.377,39.917-24.54,54.447-29.138,26.194-77.634,28.99-113.336,20-19.818-4.993-40.95-13.871-54.424-30.673-18.842-23.494-27.5-60.987-27.139-90.628" transform="translate(-2267.627 -1191.119)" fill="blue"/>
      <g clip-path="url(#clip-path-2)">
        <path d="M2437.543,1466.554c5.539,11.961-3.518,29.32-10.036,37.961-5.63,7.465-12.418,12.572-20.229,16.759-9.03,4.84-17.394,5.462-27.117,5.4-18.136-.119-36.2-7-54.5-6.548-10.518.259-30.284,8.973-38-2.693-9.791-14.8,21-38.319-5.118-48.223-11.091-4.206-28.518,14.429-33.561-2.054-2.25-7.355.975-15.259.663-21.746-10.662,19.313-17.362,39.293-13.912,62.922,7.413,50.78,67.9,82.874,107.933,89.125,34.881,5.446,75.025-7.923,91.591-45.032,8.676-19.436,14.436-34.935,8.851-57.054" transform="translate(-2218.941 -1385.188)" fill="#2e3192" style="mix-blend-mode: multiply;isolation: isolate"/>
      </g>
    </g>
    <g transform="translate(206.667 122.39)">
      <path d="M1980.646,1740.477c-1.755-4.829-5.849-9.553-8.319-14.154-6.813-12.693-29.494-1.47-32.417,2.227,40.785-42.153,70.4-8.4,75.032,2.587,4.845,11.5,4.961,22.813,6.914,34.838,2.929,18.024,14.574,38.816,34.212,36.331,12.541-1.588,21.009-10.408,32.656-14.207,16.574-5.405,29.569,3.185,44.423,9.639,13.889,6.035,42.98,16.685,56.7,4.18-3.93,15.984-17.208,30.583-32.1,36.162-12.915,4.837-26.8-.354-37.7-8.126-6.448-4.6-14.13-12.925-22.218-13.67-7.51-.691-13.864,5.5-19.257,10.17-9.31,8.064-17.667,15.117-28.826,20.313-11.144,5.187-26.586,14.38-38.307,7.5C1971.905,1831.052,1993.5,1775.837,1980.646,1740.477Z" transform="translate(-1939.91 -1707.93)" fill="#f15a24"/>
    </g>
    <g transform="translate(90.942 138.573)">
      <path d="M2893.718,1912.88c27.083-.96,45.928-36.632,49.033-54,2.689-15.046-4.128-28.494-12.978-39.932-11.818-15.273-22.171-26.862-40.437-32.461-22.309-6.838-44.063-10.483-67.4-10.2-16.4.2-33.3.458-44.953,14.271-7.291,8.638,12.96,51.329,27.225,83.273,4.325,9.686-13.571,35.192,22.408,37.258" transform="translate(-2775.583 -1776.267)" fill="blue"/>
    </g>
    <path d="M3099.835,1364.178c-.908-4.019-5.287-7.376-7.706-10.572-5.026-6.644-10.041-14.478-12.077-22.76-3.684-14.975,1.286-28.744,6.989-42.238,6.72-15.9,19.676-29.9,14.4-48.239-6.765-23.5-34.165-25.795-49.2-9.988-4.226,4.443-3.5,8.593-6.609,13.911-1.736,2.968-6.044,5.289-10.724,9.108-.453,3.562-4.1,21.015-4.652,27.575-.189,2.255-.012,4.689,1.347,6.5a10.278,10.278,0,0,0,3.305,2.6,45.5,45.5,0,0,0,9.524,4.017,11.3,11.3,0,0,1,4.033,1.7c4.259,3.423,1.22,9.6.467,13.813a110.394,110.394,0,0,1-5.033,19.281c-.72,1.928-12.378,24.026-12.449,23.988,15.242,8.27,31.437,11.336,48.327,13.554C3083.9,1366.97,3097.477,1365.076,3099.835,1364.178Z" transform="translate(-2904.265 -1213.369)" fill="#fff1e0"/>
    <path d="M2994.593,1205.6c3.87-2.713,12.143-1.2,14.71,3.324,6.035,10.637-10.742,26.677-4.457,39.394,5.39,10.9,21.034,6.821,26.188,16.775,9.649-19.369,13-43.551-6.133-57.313C3018.194,1202.956,2993.656,1206.237,2994.593,1205.6Z" transform="translate(-2830.59 -1198.239)" fill="blue"/>
    <path d="M3086.843,1697.474a5.635,5.635,0,0,0-.248-2.8c-1.844-5.65-5.752-8.919-6.6-15.074-.8-5.831-.194-13.132-3.4-18.247-4.329-6.906-13.729-1.644-19.775-.835a99.69,99.69,0,0,1-25.5-.009c-2.833-.383-6.937-.48-9.1-2.144a23.94,23.94,0,0,0,1.424-4.042c-2.521-.161-4.491-1.723-6.818-.539-4.76,2.424-6.928,11.188-8.822,15.779-1.952,4.729-4.171,11.766-8.5,14.6,2.6,2.97,7.662,4.745,11.023,6.706a127.25,127.25,0,0,0,14.313,7.651,90.49,90.49,0,0,0,27.97,7.153C3057.275,1706.076,3085.164,1706.62,3086.843,1697.474Z" transform="translate(-2881.249 -1543.883)" fill="#f15a24"/>
    <g transform="translate(0 3.585)">
      <path d="M3384.3,1438.251c-10.8-11.665-21.65-23.279-33.433-34.041-21.383-19.527-42.81-40.139-56.255-67.374-10.275-20.815-18.515-44.956-14.961-68.982,4.749-32.116,25.1-68.058,58.892-60.605,6.864,1.514,14.641,4.206,20.2,9.234a51.861,51.861,0,0,1,15.677,28.87c.562,3.434,3.432,31.317-1.521,31.163a150.108,150.108,0,0,0-33.575,2.742c-2.055.4-4.554,1.341-4.755,3.516a4.485,4.485,0,0,0,1.24,3.109c2.925,3.589,7.405,5.233,11.4,7.419s8,5.647,8.332,10.348c.151,2.151-.486,4.436.358,6.4a7.972,7.972,0,0,0,2.681,2.993c10.007,7.675,22.411,11.029,33.29,17.274,30.811,17.688,28.062,71.616,24.086,102.948-1.277,10.065-2.229,22.648-7.407,30.66C3400.263,1455.558,3392.3,1446.891,3384.3,1438.251Z" transform="translate(-3278.813 -1206.257)" fill="#f7931e"/>
      <g clip-path="url(#clip-path-3)">
        <path d="M3369.623,1943.244c-3.189-9.132-15.094-16.069-22.547-20.955q-48.2-31.6-93.192-67.773c7.108,13.012,17.407,20.467,26.013,31.977,9.873,13.208,19.645,26.529,30.7,38.788a402.116,402.116,0,0,0,43.784,42.38c6.145-5.868,18.262-13.956,15.5-23.586Q3369.769,1943.657,3369.623,1943.244Z" transform="translate(-3224.857 -1700.997)" fill="#f15a24"/>
        <path d="M3450.112,1306.29c-.634-7.565-3.385-15.36-6.36-21.733-4.523-9.69-12.273-17.876-22.206-22.053a33.469,33.469,0,0,0-15.454-2.224c-10.022.732-7.206,7.236-1.458,12.4,11.078,9.946,23.615,20.361,28.1,35.159a12.577,12.577,0,0,1,.674,5.725,5.274,5.274,0,0,1-3.462,4.29,8.345,8.345,0,0,1-4.462-.463,106.262,106.262,0,0,0-47.771-2.435c-9.066,1.622-18.7,5.017-23.479,12.889,16.213,1.12,32.791,2.438,47.642,9.036,3.229,1.435,6.4,3.126,9.869,3.8a27.72,27.72,0,0,0,11.546-.7,41.373,41.373,0,0,0,13.4-5.454,30.722,30.722,0,0,0,12.721-17.929A31.453,31.453,0,0,0,3450.112,1306.29Z" transform="translate(-3328.581 -1247.401)" fill="#f15a24"/>
      </g>
    </g>
    <path d="M3203.795,1260.529c1.263,2.455-6.993,10.015-11.741,12.222-3.053,1.42-7.856,1.7-10.477,4.167,2.943,1.742-10.838,7.761-11.919,7.809-8.765.217,2.3-3.508,5.336-8.6s.634-7.8,8.866-13.567" transform="translate(-3034.695 -1244.414)" fill="#f7dcbb"/>
    <path d="M3183.137,1216.685c18.539,1.9,36.493,2.2,55.062,2.775,10.1.314,22.15,2.3,31.494,6.265,1.392,6.756-10.985,8.31-14.926,8.974-4.569.77-9.185,1.209-13.792,1.646-3.128.3-10.215-.268-12.406,2.106,2.468,2.451,6.675,1.556,9.78,1.635,2.014.051,7.953.207,8.9,2.818,1.543,4.26-10.587,2.358-12.549,2.287-9.934-.361-13.973-2.8-22.629-7.572-8.611-4.75-19.526-2.322-28.37-.223-5.44,1.291-5.984.916-9.427-4.523-3.368-5.32-7.913-10.48-7.179-17.307" transform="translate(-3103.796 -1209.777)" fill="#fff1e0"/>
    <path d="M2359.522,2109.716c-9.881-2.064-19.949-3.217-29.751-5.631,12.4,7.272,27.41,10.071,38.356,19.392-.658-.561,7.22-4.143,7.9-4.307,1.857-.445,6.315-.361,4.677-2.579-1.523-2.062-7.8-3.294-10.2-4.054A112.642,112.642,0,0,0,2359.522,2109.716Z" transform="translate(-2016.782 -1887.878)" fill="#e6360c"/>
    <path d="M3004.159,1730.661c-3.7,2.365-7.266,5.939-7.209,10.329l7.208-2.841c3.061-1.206,6.241-2.433,9.525-2.252s6.714,2.184,7.447,5.391a8.232,8.232,0,0,1-.556,4.769,14.439,14.439,0,0,1-9.368,8.511,41.4,41.4,0,0,0,10.746-2.688c3.253-1.47,6.43-4.608,5.669-8.1-.427-1.964-1.99-3.438-3.163-5.069-2.155-2.994-2.99-6.609-3.566-10.189-.243-1.51-.437-10.1-2.018-10.405-1.446-.28-4.043,4.888-4.951,5.857C3011.2,1726.885,3007.468,1728.546,3004.159,1730.661Z" transform="translate(-2821.454 -1593.31)" fill="#e6360c"/>
  </g>
</svg>
