<svg xmlns="http://www.w3.org/2000/svg" xmlns:xlink="http://www.w3.org/1999/xlink" width="587.582" height="306.516" viewBox="0 0 587.582 306.516">
  <defs>
    <clipPath id="clip-path">
      <path d="M530.431,946.972c-73.214,6.469-148.171,11.182-214.364-23.71-87.712-46.236-91.18-112.539-79.838-134.954,16.667-32.941,43.834-32.285,69.951-35.172,29.437-3.254,66.651,14.167,95.8,13.386,13.095-.351,23.258-7.93,35.043-11.8,13.452-4.418,29.506-4.019,43.528-5.495,30.626-3.224,61.02-9.46,91.414-12.82s111-49.416,178.456-36.817c108.982,20.355,65.789,153.8,23.754,197.515-16.4,17.061-62.6,47.771-147.119,44.359C612.427,940.873,547.6,945.455,530.431,946.972Z" transform="translate(-231.581 -697.413)" fill="#fff"/>
    </clipPath>
    <clipPath id="clip-path-2">
      <path d="M2429.262,1199.031c-2.569-5.036-8.255-7.646-13.711-7.891a23.382,23.382,0,0,0-17.545,7.025c-2.439,2.494-4.509,5.648-7.707,6.891-2.539.987-5.354.584-8.047.884a16.121,16.121,0,0,0-11.428,7.057c-3.3,4.937-4.153,11.816-8.861,15.287-8.083,5.958-19.393-5.118-25.848,3.859-4.251,5.911-2.528,14.921-5.014,21.609-7.273,19.567-30.967-1.966-43.655-1.9-17.072.092-20.546,18.37-19.7,33.039.938,16.318,6.2,29.541,18.161,40.294,21.564,19.385,57.453,21.454,83.875,14.8,14.666-3.695,30.305-10.266,40.277-22.7,13.944-17.387,20.352-45.134,20.084-67.07" transform="translate(-2267.627 -1191.119)" fill="#2e3192"/>
    </clipPath>
    <clipPath id="clip-path-3">
      <path d="M2459.039,1966.76c2.6-2.79,5.542-5.312,8.329-7.917a28.759,28.759,0,0,0,6.057-7.044c2.629-4.87,2.363-10.8,3.352-16.295,1.753-9.742,8.837-16.756,13.039-25.465,4.313-8.937,10.177-19.343,10.494-29.585.551-17.8-20.409-2.7-26.315,3.116-4.833,4.764-8.855,10.356-13.559,15.259-9.736,10.147-22.083,17.04-32.942,25.855-17.385,14.112-26.026,34.891-23.905,57.819,1.952,21.094,14.832,37.542,34.678,42.728,26.594,6.949,49.944-4.461,51.056-38.471.213-6.535,2.748-16.9-4.426-19.907C2478.41,1964.132,2459.822,1966.856,2459.039,1966.76Z" transform="translate(-2403.273 -1872.046)" fill="#f7931e"/>
    </clipPath>
    <clipPath id="clip-path-4">
      <path d="M2792.225,1961.751c8.016-26.509,11.668-63.592-.3-89.357-5.342-11.5-13.609-22.135-15.906-34.991-1.99-11.135,3.055-21.087,9.6-29.552,8.746-11.3,16.407-19.879,29.926-24.023a160.344,160.344,0,0,1,49.883-7.549c12.138.147,24.641.339,33.268,10.561,7.072,8.378,7.51,19.776,4.055,29.951-11.313,33.321-54.039,67.434-35.947,105.51a118.805,118.805,0,0,0,23.207,32.776c3.282,3.186,7.542,5.984,9.068,10.4" transform="translate(-2775.583 -1776.268)" fill="#2e3192"/>
    </clipPath>
    <clipPath id="clip-path-5">
      <path d="M3304,1377.946c7.991-8.633,16.022-17.228,24.742-25.192,15.825-14.451,31.682-29.705,41.632-49.861,7.6-15.4,13.7-33.27,11.073-51.051-3.514-23.767-18.575-50.367-43.583-44.851-5.08,1.12-10.835,3.113-14.952,6.834a38.378,38.378,0,0,0-11.6,21.365c-.416,2.541-2.54,23.177,1.125,23.062a111.085,111.085,0,0,1,24.847,2.029c1.521.3,3.37.992,3.519,2.6a3.318,3.318,0,0,1-.917,2.3c-2.165,2.656-5.48,3.873-8.437,5.491s-5.921,4.179-6.166,7.658c-.112,1.592.36,3.283-.265,4.739a5.9,5.9,0,0,1-1.984,2.215c-7.406,5.68-16.586,8.162-24.637,12.784-22.8,13.09-20.767,53-17.825,76.187.945,7.449,1.649,16.761,5.481,22.69C3292.192,1390.754,3298.087,1384.34,3304,1377.946Z" transform="translate(-3278.812 -1206.257)" fill="#f7931e"/>
    </clipPath>
  </defs>
  <g transform="translate(-700 -236.259)">
    <g transform="translate(700 264.486)">
      <path d="M530.431,946.972c-73.214,6.469-148.171,11.182-214.364-23.71-87.712-46.236-91.18-112.539-79.838-134.954,16.667-32.941,43.834-32.285,69.951-35.172,29.437-3.254,66.651,14.167,95.8,13.386,13.095-.351,23.258-7.93,35.043-11.8,13.452-4.418,29.506-4.019,43.528-5.495,30.626-3.224,61.02-9.46,91.414-12.82s111-49.416,178.456-36.817c108.982,20.355,65.789,153.8,23.754,197.515-16.4,17.061-62.6,47.771-147.119,44.359C612.427,940.873,547.6,945.455,530.431,946.972Z" transform="translate(-231.581 -697.413)" fill="#b6ffe8"/>
      <g transform="translate(0 0)" clip-path="url(#clip-path)">
        <path d="M2093.325,740.01a37.675,37.675,0,0,1-6.856,14.227c-5.607,7.027-12.37,7.154-20.932,7.507-13.344.55-26.449-1.285-39.774-2.131-12.159-.772-24.414-1.54-36.484.116-8.879,1.219-17.559,3.739-26.479,4.614-9.479.93-19.028-.015-28.523-.763a691.249,691.249,0,0,0-79.615-1.672c-25.177.922-50.773,1.843-75.791,4.85-35.878,4.313-71.651,9.576-107.084,16.39q-7.128,1.371-14.236,2.826c-2.385.489-10.791,3.487-12.826,2.705-2.806-1.077-2.158-5.243-2.433-8.062l-1.865-19.076c-.01-.108,60.937-6.626,64.368-7L1807.258,743.4c16.916-1.839,34.548-1.848,51.11-4.755,14.329-2.515,27.271-4.446,41.956-4.031,16.555.468,32.812,3.461,49.411,3.381,8.633-.042,17.453-.669,25.411-4.015,8.536-3.59,15.5-10.055,23.431-14.836,16.85-10.158,37.464-7.021,56.092-13.637,4.461-1.584,8.936-3.458,12.459-6.62s5.979-7.848,5.39-12.544c-.947-7.544-9.209-10.947-15.711-12.41-8.864-2-17.884-4.229-26.9-6.242-20.932-4.672-42.566-5.653-63.934-4.5-29.306,1.587-58.234,7.123-87.1,12.413-62.776,11.5-125.89,21.922-189.588,25.9-7.033.439-14.342.757-20.86-1.921,2.624-2.083,6.009-2.89,9.275-3.637q168.672-38.568,340.234-62.594c8.772-1.228,17.786-2.418,26.41-.4,12.905,3.027,22.069,16.324,28.777,26.992,8.762,13.936,14.544,29.7,18.512,45.613,2.363,9.48,3.979,19.32,2.731,29.01A45.69,45.69,0,0,1,2093.325,740.01Z" transform="translate(-1455.531 -640.474)" fill="#b6ffe8"/>
        <path d="M3610.543,1648.927c12.668-.31,22.531-6.085,27.879-14.869s7.839-16.78,16.135-22.857a26.159,26.159,0,0,1,24-3.4c-4.428-13.562.88-29.707,12.492-38,6.524-4.657,15.29-6.846,22.723-3.845,9.388,3.79,14.151,14.839,13.742,24.955s-4.894,19.561-9.293,28.679c4.151-3.9,8.8-8.024,14.491-8.336s11.707,5.689,9.117,10.761a44.643,44.643,0,0,1,16.207-9.468c3.761-1.23,7.866-1.948,11.656-.813s7.111,4.544,7.082,8.5c-.025,3.4-2.352,6.3-3.536,9.484-1.24,3.342-1.13,7.328.94,10.23s6.3,4.286,9.43,2.576" transform="translate(-3272.091 -1509.772)" fill="#fff"/>
        <path d="M3659.2,849.3a232.043,232.043,0,0,1,24.535-14.513c7.04-3.6,16-6.711,22.376-2.03a69.9,69.9,0,0,1,26.841-20.478c5.136-2.212,11.148-3.769,16.2-1.375,8.165,3.867,8.912,15,8.477,24.019a181.73,181.73,0,0,1,18.525-9.43c4.187-1.838,10.44-2.752,12.118,1.5,1.035,2.623-.575,5.825.723,8.329,1.335,2.573,4.827,2.883,7.725,2.858l21.46-.192" transform="translate(-3281.357 -646.967)" fill="#fff"/>
        <path d="M3659.2,849.3a232.043,232.043,0,0,1,24.535-14.513c7.04-3.6,16-6.711,22.376-2.03a69.9,69.9,0,0,1,26.841-20.478c5.136-2.212,11.148-3.769,16.2-1.375,8.165,3.867,8.912,15,8.477,24.019a181.73,181.73,0,0,1,18.525-9.43c4.187-1.838,10.44-2.752,12.118,1.5,1.035,2.623-.575,5.825.723,8.329,1.335,2.573,4.827,2.883,7.725,2.858l21.46-.192" transform="translate(-3247.357 -805.967)" fill="#fff"/>
      </g>
    </g>
    <path d="M232.7,690.974c-8.3,22.342-.121,64.421,10.561,84.979s27.182,34.805,44.231,45.959c33.511,21.923,70.369,33.779,107.267,42.6a737.841,737.841,0,0,0,107.788,17.5c29.568,2.565,41.721,1.929,70.843-5.2,58.97-14.436,81.365-120.909,68.663-192.791-9.694-54.858-49.175-94.361-92.594-95.148-45.216-.82-64.339,24.256-106.832,44.359-25.86,12.234-44.53,20.736-79.468,24.279C342.241,659.63,266.328,600.419,232.7,690.974Z" transform="translate(529.4 -340.611)" fill="#b6ffe8" style="mix-blend-mode: multiply;isolation: isolate"/>
    <path d="M1963.905,482.337l.575.575" transform="translate(-1036.557 -246.078)" fill="#f15a24"/>
    <g transform="translate(763.199 247)">
      <g transform="translate(57.435)">
        <path d="M2429.262,1199.031c-2.569-5.036-8.255-7.646-13.711-7.891a23.382,23.382,0,0,0-17.545,7.025c-2.439,2.494-4.509,5.648-7.707,6.891-2.539.987-5.354.584-8.047.884a16.121,16.121,0,0,0-11.428,7.057c-3.3,4.937-4.153,11.816-8.861,15.287-8.083,5.958-19.393-5.118-25.848,3.859-4.251,5.911-2.528,14.921-5.014,21.609-7.273,19.567-30.967-1.966-43.655-1.9-17.072.092-20.546,18.37-19.7,33.039.938,16.318,6.2,29.541,18.161,40.294,21.564,19.385,57.453,21.454,83.875,14.8,14.666-3.695,30.305-10.266,40.277-22.7,13.944-17.387,20.352-45.134,20.084-67.07" transform="translate(-2267.627 -1191.119)" fill="blue"/>
        <g clip-path="url(#clip-path-2)">
          <path d="M2241.313,1461.057c-4.1,8.852,2.6,21.7,7.427,28.093a44.015,44.015,0,0,0,14.971,12.4c6.683,3.582,12.873,4.042,20.068,3.995,13.422-.088,26.788-5.179,40.333-4.846,7.783.191,22.412,6.64,28.122-1.993,7.246-10.955-15.541-28.358,3.787-35.687,8.208-3.113,21.1,10.678,24.837-1.52,1.665-5.443-.721-11.293-.49-16.093,7.891,14.293,12.848,29.079,10.3,46.566-5.486,37.58-50.248,61.331-79.877,65.958-25.814,4.031-55.523-5.863-67.782-33.326-6.421-14.384-10.683-25.854-6.55-42.223" transform="translate(-2240.571 -1400.842)" fill="#2e3192" style="mix-blend-mode: multiply;isolation: isolate"/>
        </g>
      </g>
      <g transform="translate(0 90.576)">
        <path d="M2094.732,1732.016c1.3-3.573,4.329-7.07,6.156-10.474,5.042-9.394,21.827-1.088,23.99,1.648-30.183-31.2-52.1-6.22-55.528,1.914-3.586,8.511-3.671,16.883-5.117,25.782-2.167,13.339-10.786,28.726-25.319,26.887-9.281-1.175-15.548-7.7-24.167-10.514-12.266-4-21.883,2.357-32.876,7.133-10.278,4.467-31.808,12.348-41.962,3.093,2.908,11.829,12.735,22.634,23.757,26.762,9.558,3.58,19.835-.262,27.9-6.014,4.772-3.4,10.457-9.565,16.442-10.117,5.558-.511,10.26,4.069,14.251,7.526,6.89,5.968,13.075,11.188,21.333,15.033s19.675,10.642,28.35,5.55C2101.2,1799.048,2085.219,1758.186,2094.732,1732.016Z" transform="translate(-1939.91 -1707.93)" fill="#f15a24"/>
      </g>
      <g transform="translate(81.208 119.338)">
        <path d="M2459.039,1966.76c2.6-2.79,5.542-5.312,8.329-7.917a28.759,28.759,0,0,0,6.057-7.044c2.629-4.87,2.363-10.8,3.352-16.295,1.753-9.742,8.837-16.756,13.039-25.465,4.313-8.937,10.177-19.343,10.494-29.585.551-17.8-20.409-2.7-26.315,3.116-4.833,4.764-8.855,10.356-13.559,15.259-9.736,10.147-22.083,17.04-32.942,25.855-17.385,14.112-26.026,34.891-23.905,57.819,1.952,21.094,14.832,37.542,34.678,42.728,26.594,6.949,49.944-4.461,51.056-38.471.213-6.535,2.748-16.9-4.426-19.907C2478.41,1964.132,2459.822,1966.856,2459.039,1966.76Z" transform="translate(-2403.273 -1872.046)" fill="#f7931e"/>
        <g clip-path="url(#clip-path-3)">
          <path d="M2657.172,2113.035q2.911,14.614,5.824,29.227c.46,2.313.91,4.779.047,6.975-1.753,4.463-7.514,5.306-12.171,6.446a35.479,35.479,0,0,0-18.485,11.428c.933-1.1,7.785-.944,9.355-1.135,5.141-.623,10.176-2.052,15.32-2.388a2.9,2.9,0,0,1,2.295.537,3.057,3.057,0,0,1,.4,2.68,40.817,40.817,0,0,0-.729,9.56c.178,2.415.706,5.646,2.327,7.567,1.167,1.385,3.049,2.228,4.411,3.463,4.354,3.95,8.785,7.8,13.4,11.448.426-10.309.832-20.809-1.872-30.766-3.241-11.937-7.365-24.249-12.964-35.22" transform="translate(-2592.233 -2070.8)" fill="#f15a24"/>
        </g>
      </g>
      <path d="M2780.8,2406.3s-3.364,8.687-.2,16.34,22.56,2.069,22.56,2.069l-.989-17.581S2786.338,2405.473,2780.8,2406.3Z" transform="translate(-2632.141 -2193.138)" fill="#fff1e0"/>
      <g transform="translate(146.459 102.552)">
        <path d="M2792.225,1961.751c7.745-14.85,11.668-63.592-.3-89.357-5.342-11.5-13.609-22.135-15.906-34.991-1.99-11.135,3.055-21.087,9.6-29.552,8.746-11.3,16.407-19.879,29.926-24.023a160.344,160.344,0,0,1,49.883-7.549c12.138.147,24.641.339,33.268,10.561,7.072,8.378,7.51,19.776,4.055,29.951-11.313,33.321-54.039,67.434-35.947,105.51a118.805,118.805,0,0,0,23.207,32.776c3.282,3.186,7.542,5.984,9.068,10.4" transform="translate(-2775.583 -1776.268)" fill="blue"/>
        <g clip-path="url(#clip-path-4)">
          <path d="M3184.208,2100.891q.5-.825,1.012-1.661c3.031-4.918,6.187-9.933,10.159-13.949,3.8-3.84,12.487-10.276,15.587-2.331.944,2.42-.612,6.761-.632,9.33-.042,5.507.708,10.777.148,16.329-1.6,15.824-7.524,28.838-4.756,45.205,1.659,9.81,6.277,19.044,10.026,28.153,3.292,8,9.817,16.778,10.651,25.575,1.284,13.532-16.216,25.94-28.383,20.063-6.609-3.193-4.565-15.133-6.053-21.822-2.148-9.656-5.747-18.862-8.423-28.356a223.258,223.258,0,0,1-7.894-48.346C3174.985,2118.241,3178.718,2110.008,3184.208,2100.891Z" transform="translate(-3105.472 -2026.079)" fill="#1b1464"/>
        </g>
      </g>
      <path d="M3032.292,1326.771c.672-2.974,3.913-5.458,5.7-7.824,3.72-4.917,7.431-10.714,8.938-16.844,2.727-11.082-.952-21.272-5.172-31.258-4.974-11.766-14.561-22.128-10.655-35.7,5.006-17.393,25.284-19.09,36.41-7.391,3.127,3.288,2.59,6.359,4.891,10.295,1.285,2.2,4.473,3.914,7.936,6.74.335,2.636,3.038,15.552,3.443,20.407a6.987,6.987,0,0,1-1,4.81,7.6,7.6,0,0,1-2.446,1.924,33.676,33.676,0,0,1-7.048,2.973,8.365,8.365,0,0,0-2.985,1.26c-3.152,2.533-.9,7.107-.345,10.223a81.672,81.672,0,0,0,3.725,14.269c.533,1.427,9.16,17.781,9.213,17.752-11.28,6.12-23.265,8.39-35.765,10.031C3044.082,1328.837,3034.037,1327.436,3032.292,1326.771Z" transform="translate(-2839.111 -1215.164)" fill="#fff1e0"/>
      <path d="M3027.271,1205.25c-2.864-2.008-8.987-.888-10.886,2.46-4.466,7.872,7.95,19.743,3.3,29.154-3.989,8.07-15.567,5.048-19.381,12.414-7.141-14.334-9.618-32.23,4.539-42.415C3009.8,1203.293,3027.965,1205.721,3027.271,1205.25Z" transform="translate(-2810.729 -1199.802)" fill="blue"/>
      <path d="M2999.565,1686a4.172,4.172,0,0,1,.183-2.07c1.365-4.181,4.257-6.6,4.882-11.155.591-4.315.144-9.718,2.516-13.5,3.2-5.111,10.16-1.217,14.635-.618a73.772,73.772,0,0,0,18.871-.007c2.1-.283,5.134-.355,6.734-1.587a17.716,17.716,0,0,1-1.054-2.992c1.865-.119,3.323-1.276,5.046-.4,3.523,1.794,5.127,8.279,6.529,11.677,1.444,3.5,3.087,8.708,6.292,10.8-1.923,2.2-5.67,3.511-8.158,4.963a94.121,94.121,0,0,1-10.593,5.662,66.966,66.966,0,0,1-20.7,5.293C3021.447,1692.369,3000.809,1692.772,2999.565,1686Z" transform="translate(-2813.803 -1572.337)" fill="#f15a24"/>
      <g transform="translate(234.654 2.653)">
        <path d="M3304,1377.946c7.991-8.633,16.022-17.228,24.742-25.192,15.825-14.451,31.682-29.705,41.632-49.861,7.6-15.4,13.7-33.27,11.073-51.051-3.514-23.767-18.575-50.367-43.583-44.851-5.08,1.12-10.835,3.113-14.952,6.834a38.378,38.378,0,0,0-11.6,21.365c-.416,2.541-2.54,23.177,1.125,23.062a111.085,111.085,0,0,1,24.847,2.029c1.521.3,3.37.992,3.519,2.6a3.318,3.318,0,0,1-.917,2.3c-2.165,2.656-5.48,3.873-8.437,5.491s-5.921,4.179-6.166,7.658c-.112,1.592.36,3.283-.265,4.739a5.9,5.9,0,0,1-1.984,2.215c-7.406,5.68-16.586,8.162-24.637,12.784-22.8,13.09-20.767,53-17.825,76.187.945,7.449,1.649,16.761,5.481,22.69C3292.192,1390.754,3298.087,1384.34,3304,1377.946Z" transform="translate(-3278.812 -1206.257)" fill="#f7931e"/>
        <g clip-path="url(#clip-path-5)">
          <path d="M3254.378,1920.18c2.36-6.758,11.171-11.892,16.686-15.508q35.672-23.388,68.967-50.156c-5.261,9.63-12.882,15.147-19.251,23.665-7.307,9.774-14.538,19.633-22.721,28.705a297.6,297.6,0,0,1-32.4,31.364c-4.547-4.343-13.515-10.328-11.474-17.455Q3254.27,1920.485,3254.378,1920.18Z" transform="translate(-3258.254 -1740.903)" fill="#f15a24"/>
          <path d="M3354.337,1294.3a49.341,49.341,0,0,1,4.707-16.084,32.357,32.357,0,0,1,16.434-16.321,24.77,24.77,0,0,1,11.437-1.646c7.417.542,5.333,5.355,1.079,9.175-8.2,7.36-17.476,15.068-20.8,26.019a9.308,9.308,0,0,0-.5,4.237,3.9,3.9,0,0,0,2.562,3.174,6.176,6.176,0,0,0,3.3-.343,78.639,78.639,0,0,1,35.353-1.8c6.709,1.2,13.838,3.713,17.376,9.539-12,.829-24.267,1.8-35.258,6.687a34.619,34.619,0,0,1-7.3,2.81,20.517,20.517,0,0,1-8.545-.517,30.621,30.621,0,0,1-9.917-4.036,22.735,22.735,0,0,1-9.414-13.268A23.269,23.269,0,0,1,3354.337,1294.3Z" transform="translate(-3341.018 -1250.719)" fill="#f15a24"/>
        </g>
      </g>
      <path d="M3166.442,1260.529c-.935,1.817,5.175,7.411,8.689,9.045,2.26,1.051,5.814,1.261,7.753,3.084-2.178,1.289,8.021,5.744,8.821,5.779,6.487.16-1.7-2.6-3.949-6.362s-.469-5.772-6.561-10.041" transform="translate(-2953.672 -1248.603)" fill="#f7dcbb"/>
      <path d="M3231.151,1216.395c-13.72,1.4-27.007,1.627-40.749,2.054-7.474.233-16.393,1.7-23.307,4.636-1.03,5,8.13,6.15,11.046,6.641,3.382.57,6.8.9,10.207,1.218,2.315.219,7.559-.2,9.181,1.558-1.826,1.814-4.94,1.151-7.238,1.21-1.491.038-5.885.153-6.585,2.086-1.142,3.153,7.835,1.745,9.287,1.692,7.352-.267,10.341-2.07,16.747-5.6,6.372-3.515,14.451-1.718,21-.165,4.026.956,4.428.678,6.976-3.347,2.492-3.937,5.856-7.756,5.313-12.808" transform="translate(-2951.954 -1211.282)" fill="#fff1e0"/>
      <path d="M2899.149,2410.931s46.042,1.379,63.457,3.447c0,0-3.43,13.375.923,23.3,0,0-41.988-4.495-61.777-3.254C2901.752,2434.428,2900.468,2421.824,2899.149,2410.931Z" transform="translate(-2731.034 -2197.149)" fill="#f15a24"/>
      <path d="M2345.711,2108.253c7.313-1.528,14.763-2.381,22.018-4.168-9.178,5.382-20.285,7.453-28.386,14.351.487-.415-5.344-3.066-5.848-3.187-1.375-.329-4.674-.267-3.461-1.908,1.127-1.526,5.775-2.438,7.55-3A83.317,83.317,0,0,1,2345.711,2108.253Z" transform="translate(-2261.445 -1944.08)" fill="#e6360c"/>
      <path d="M3014.4,1727.4c2.737,1.75,5.377,4.4,5.335,7.644l-5.334-2.1c-2.265-.893-4.619-1.8-7.049-1.667s-4.969,1.616-5.511,3.99a6.093,6.093,0,0,0,.411,3.53,10.686,10.686,0,0,0,6.933,6.3,30.638,30.638,0,0,1-7.953-1.989c-2.407-1.088-4.758-3.41-4.2-5.991.316-1.453,1.472-2.544,2.341-3.751a17.315,17.315,0,0,0,2.639-7.54c.18-1.118.323-7.474,1.493-7.7,1.07-.207,2.992,3.617,3.664,4.334C3009.188,1724.6,3011.948,1725.833,3014.4,1727.4Z" transform="translate(-2811.694 -1625.751)" fill="#e6360c"/>
    </g>
  </g>
</svg>
